{"accessors" : [{"bufferView" : 0, "byteOffset" : 0, "componentType" : 5123, "count" : 9216, "type" : "SCALAR", "max" : [7377], "min" : [0]}, {"bufferView" : 1, "byteOffset" : 0, "componentType" : 5126, "count" : 7378, "type" : "VEC3", "max" : [1.8467299938201904, 2.9570798873901367, 0.12354999780654907], "min" : [-1.8470699787139893, -0.7366979718208313, -0.12354999780654907], "name" : "POSITION"}, {"bufferView" : 1, "byteOffset" : 12, "componentType" : 5126, "count" : 7378, "type" : "VEC2", "max" : [0.9684280157089233, -0], "min" : [0, -1], "name" : "TEXCOORD_0"}, {"bufferView" : 1, "byteOffset" : 20, "componentType" : 5126, "count" : 7378, "type" : "VEC3", "max" : [1.0000044107437134, 1.0000044107437134, 1.0000044107437134], "min" : [-1.0000044107437134, -1.0000044107437134, -1.0000044107437134], "name" : "NORMAL"}, {"bufferView" : 0, "byteOffset" : 18432, "componentType" : 5123, "count" : 2376, "type" : "SCALAR", "max" : [1905], "min" : [0]}, {"bufferView" : 2, "byteOffset" : 0, "componentType" : 5126, "count" : 1906, "type" : "VEC3", "max" : [2.5952999591827393, 4.177279949188232, 0.12354999780654907], "min" : [-2.5947299003601074, -4.177279949188232, -0.12354999780654907], "name" : "POSITION"}, {"bufferView" : 2, "byteOffset" : 12, "componentType" : 5126, "count" : 1906, "type" : "VEC2", "max" : [0.974826991558075, -0], "min" : [0, -1], "name" : "TEXCOORD_0"}, {"bufferView" : 2, "byteOffset" : 20, "componentType" : 5126, "count" : 1906, "type" : "VEC3", "max" : [1.0000044107437134, 1.0000044107437134, 1.0000044107437134], "min" : [-1.0000044107437134, -1.0000044107437134, -1.0000044107437134], "name" : "NORMAL"}, {"bufferView" : 0, "byteOffset" : 23184, "componentType" : 5123, "count" : 1296, "type" : "SCALAR", "max" : [1016], "min" : [0]}, {"bufferView" : 3, "byteOffset" : 0, "componentType" : 5126, "count" : 1017, "type" : "VEC3", "max" : [2.806529998779297, 4.388490200042725, 0.12354999780654907], "min" : [-2.806529998779297, -4.388490200042725, -0.12354999780654907], "name" : "POSITION"}, {"bufferView" : 3, "byteOffset" : 12, "componentType" : 5126, "count" : 1017, "type" : "VEC2", "max" : [1, -0], "min" : [0, -0.8866639733314514], "name" : "TEXCOORD_0"}, {"bufferView" : 3, "byteOffset" : 20, "componentType" : 5126, "count" : 1017, "type" : "VEC3", "max" : [1.0000044107437134, 1.0000044107437134, 1.0000044107437134], "min" : [-1.0000044107437134, -1.0000044107437134, -1.0000044107437134], "name" : "NORMAL"}], "asset" : {"generator" : "Aspose.3D 23.9.0", "version" : "2.0"}, "buffers" : [{"uri" : "data:application/octet-stream;base64,", "byteLength" : 438208}], "bufferViews" : [{"buffer" : 0, "byteOffset" : 0, "byteLength" : 25776, "target" : 34963}, {"buffer" : 0, "byteOffset" : 25780, "byteLength" : 294912, "byteStride" : 32, "target" : 34962}, {"buffer" : 0, "byteOffset" : 320696, "byteLength" : 76032, "byteStride" : 32, "target" : 34962}, {"buffer" : 0, "byteOffset" : 396732, "byteLength" : 41472, "byteStride" : 32, "target" : 34962}], "meshes" : [{"primitives" : [{"attributes" : {"POSITION" : 1, "TEXCOORD_0" : 2, "NORMAL" : 3}, "indices" : 0, "mode" : 4}], "name" : ""}, {"primitives" : [{"attributes" : {"POSITION" : 5, "TEXCOORD_0" : 6, "NORMAL" : 7}, "indices" : 4, "mode" : 4}], "name" : ""}, {"primitives" : [{"attributes" : {"POSITION" : 9, "TEXCOORD_0" : 10, "NORMAL" : 11}, "indices" : 8, "mode" : 4}], "name" : ""}], "nodes" : [{"mesh" : 0, "name" : "groupNumber_0"}, {"mesh" : 1, "name" : "groupNumber_1"}, {"mesh" : 2, "name" : "groupNumber_2"}], "scene" : 0, "scenes" : [{"nodes" : [0, 1, 2]}]}