<?xml version="1.0" encoding="UTF-8"?>
<svg id="Layer_2" data-name="Layer 2" xmlns="http://www.w3.org/2000/svg" viewBox="0 0 555.3 300.24">
  <defs>
    <style>
      .cls-1 {
        fill: #231f20;
        stroke-width: 0px;
      }
    </style>
  </defs>
  <g id="Layer_1-2" data-name="Layer 1">
    <g>
      <path class="cls-1" d="m51.8,88.31c19.92-5.06,39.99-9.68,60.36-12.52,19.9-2.78,40.18-3.79,60.18-1.49,11.28,1.29,22.42,3.73,33.18,7.36,2.29.77,3.28-2.85,1-3.62-19.3-6.51-39.72-9.01-60.03-8.74-20.73.28-41.35,3.29-61.63,7.45-11.42,2.34-22.76,5.07-34.05,7.94-2.34.59-1.35,4.21,1,3.62h0Z"/>
      <path class="cls-1" d="m52.64,87.33c16.73-13.66,37.73-20.94,58.88-24.1,20.78-3.1,42.68-2.81,62.99,2.89,11.36,3.19,22.14,8.22,31.58,15.34.81.61,2.09.12,2.57-.67.57-.95.13-1.96-.67-2.57-17.44-13.15-39.19-19-60.75-20.33-10.96-.67-22.01-.22-32.89,1.19-10.96,1.42-21.8,3.8-32.19,7.59-11.63,4.24-22.57,10.16-32.17,18-.79.65-.66,1.98,0,2.65.77.78,1.87.64,2.65,0h0Z"/>
      <path class="cls-1" d="m68.12,71.63c-2.67-10.55,2.33-21.3,9.76-28.65,3.72-3.68,8.03-6.68,12.53-9.32,4.98-2.91,10.18-5.52,15.59-7.52s11.5-3.47,17.5-3.86c6.2-.4,12.43.07,18.57.99s12.18,2.2,18.22,3.55c5.25,1.17,10.42,2.72,14.31,6.63,9.07,9.1,8.84,23.21,8.66,35.13-.04,2.41,3.71,2.41,3.75,0,.18-11.83.2-24.89-7.24-34.82-3.44-4.59-8.01-7.56-13.48-9.25-6.04-1.87-12.44-2.97-18.65-4.08-13.09-2.35-26.38-3.11-39.22.93-5.92,1.87-11.6,4.48-17.04,7.45-4.98,2.72-9.78,5.8-14.05,9.55-9.57,8.41-16.11,21.38-12.84,34.28.59,2.34,4.21,1.35,3.62-1h0Z"/>
      <path class="cls-1" d="m66.38,86.56c-1.31,19.68-.63,39.99,5.85,58.8,5.61,16.28,15.81,30.98,30.24,40.61,6.81,4.55,14.56,7.84,22.65,9.18,4.79.79,9.63.99,14.44.3s9.64-2.56,13.92-5.13c15.23-9.16,25.33-25.02,30.83-41.59,6.52-19.66,6.63-40.75,5.76-61.23-.11-2.65-.24-5.3-.38-7.95-.12-2.4-3.87-2.42-3.75,0,1.04,20.32,1.85,41.11-3.16,61.01-4.07,16.17-12.17,31.82-25.32,42.42-3.46,2.79-7.31,5.29-11.46,6.92-4.6,1.8-9.48,2.42-14.4,2.2-7.96-.35-15.74-2.76-22.7-6.6-14.05-7.75-24.77-20.86-30.94-35.55-7.43-17.71-8.97-37.26-8.22-56.26.09-2.38.22-4.75.38-7.13s-3.59-2.4-3.75,0h0Z"/>
      <path class="cls-1" d="m68.85,108.38c-3.98-3.51-9.55-4.92-14.71-3.54s-9.02,5.41-10.66,10.32c-1.84,5.51.06,11.37,2.6,16.33s6.1,9.21,10.95,11.6c5.38,2.65,12.13,2.89,17.21-.58,1.98-1.35.11-4.6-1.89-3.24-3.6,2.46-8.07,2.6-12.1,1.15-4.08-1.48-7.32-4.8-9.57-8.42-2.41-3.87-4.7-8.85-4.13-13.51.49-4,3.15-7.66,6.79-9.39,4.16-1.97,9.44-1.09,12.87,1.93,1.8,1.59,4.46-1.05,2.65-2.65h0Z"/>
      <path class="cls-1" d="m191.37,105.37c1.95-1.53,4.25-2.62,6.65-3.23,2.25-.57,5.09-.96,7.31-.07,3.76,1.51,5.76,6.6,6.23,10.31.5,4.03-.39,8.22-2.62,11.63s-5.87,5.63-9.81,6.52c-4.45,1.01-9.17.23-12.99-2.29-2.02-1.33-3.9,1.91-1.89,3.24,8.57,5.66,21.03,3.64,27.22-4.58,3.07-4.08,4.4-9.46,3.84-14.52s-2.91-10.66-7.45-13.24c-2.98-1.7-6.77-1.49-10.02-.81s-6.43,2.27-9.12,4.39c-.8.63-.65,1.99,0,2.65.78.8,1.86.62,2.65,0h0Z"/>
      <path class="cls-1" d="m58.74,87.98c-.86,4.87-1.64,9.75-2.34,14.64-.14,1,.25,2.01,1.31,2.31.88.24,2.16-.3,2.31-1.31.7-4.89,1.48-9.77,2.34-14.64.18-1-.27-2.02-1.31-2.31-.91-.25-2.13.31-2.31,1.31h0Z"/>
      <path class="cls-1" d="m190.4,79.25c1.44,6.48,2.88,12.96,4.33,19.45.52,2.35,4.14,1.36,3.62-1-1.44-6.48-2.88-12.96-4.33-19.45-.52-2.35-4.14-1.36-3.62,1h0Z"/>
      <path class="cls-1" d="m235.9,265.67c4.02.41,8.04.84,12.06,1.31,1.45.17,2.28-1.7,1.62-2.82-.73-1.22-2.66-1.77-3.73-.61-.56.61-.73,1.54-.29,2.27s1.11.98,1.91,1.09c1.29.18,2.82-.8,2.31-2.31-5.73-16.91-11.47-33.82-17.2-50.72-5.73-16.91-11.47-33.82-17.2-50.72-3.25-9.58-6.5-19.17-9.75-28.75-.77-2.27-4.39-1.3-3.62,1,5.73,16.9,11.46,33.79,17.19,50.69s11.47,33.82,17.2,50.72c3.25,9.59,6.51,19.19,9.76,28.78l2.31-2.31c-.67-.17-.56.04.33.63l-.29,2.27c-.85.66-1.57.61-2.16-.15l1.62-2.82c-4.02-.47-8.04-.9-12.06-1.31-1.01-.1-1.88.93-1.88,1.88,0,1.1.86,1.77,1.88,1.88h0Z"/>
      <path class="cls-1" d="m54.54,143.94c-.23,23.42-2.11,46.78-4.6,70.05-.71,6.62-1.46,13.23-2.25,19.83-.12,1.01.95,1.88,1.88,1.88,1.11,0,1.76-.86,1.88-1.88,2.76-23.34,5.21-46.74,6.29-70.22.3-6.55.49-13.11.56-19.67.02-2.41-3.73-2.42-3.75,0h0Z"/>
      <path class="cls-1" d="m107.83,190.35c.5,6.11,1.01,12.22,1.51,18.33.08,1.01.8,1.88,1.88,1.88.95,0,1.96-.86,1.88-1.88-.5-6.11-1.01-12.22-1.51-18.33-.08-1.01-.8-1.88-1.88-1.88-.95,0-1.96.86-1.88,1.88h0Z"/>
      <path class="cls-1" d="m155.24,190.93c.1,6.86,1.42,13.68,3.95,20.06.37.94,1.25,1.6,2.31,1.31.9-.25,1.68-1.36,1.31-2.31-2.41-6.09-3.72-12.51-3.82-19.06-.04-2.41-3.79-2.42-3.75,0h0Z"/>
      <path class="cls-1" d="m107.29,210.41c.11,10.75,11.4,15.79,20.5,17.2,9.61,1.49,20.61.07,28.89-5.33,4.14-2.7,7.58-6.68,7.76-11.83.08-2.41-3.67-2.41-3.75,0-.12,3.54-2.64,6.36-5.43,8.27-3.44,2.36-7.5,3.8-11.54,4.71-8.19,1.84-17.88,1.37-25.39-2.68-3.9-2.1-7.24-5.71-7.29-10.36-.02-2.41-3.77-2.42-3.75,0h0Z"/>
      <path class="cls-1" d="m101.68,208.87c-8.77,2.84-17.54,5.68-26.32,8.52-4.17,1.35-8.47,2.5-12.49,4.26-3.66,1.61-6.46,4.27-8.95,7.34-5.78,7.14-11.36,14.46-17.03,21.69s-11.4,14.54-17.11,21.8c-6.42,8.18-12.84,16.37-19.26,24.55-.63.8-.77,1.87,0,2.65.64.66,2.03.8,2.65,0,11.25-14.34,22.5-28.68,33.75-43.02,5.65-7.2,11.3-14.4,16.95-21.61,2.39-3.05,4.74-6.51,8.03-8.66s7.56-3.17,11.37-4.4c9.8-3.17,19.6-6.35,29.4-9.52,2.29-.74,1.31-4.36-1-3.62h0Z"/>
      <path class="cls-1" d="m164.25,213.95c15.18,5.93,30.58,11.3,46.17,16.08,1.66.51,3.45.9,4.97,1.77,1.4.81,2.25,2.11,2.98,3.52,1.88,3.59,3.5,7.34,5.23,11.01,3.54,7.49,7.09,14.98,10.63,22.46,4.04,8.54,8.08,17.07,12.12,25.61,1.03,2.18,4.27.28,3.24-1.89-7.3-15.43-14.6-30.85-21.89-46.28-1.8-3.8-3.59-7.61-5.4-11.41-.74-1.55-1.53-3.05-2.67-4.35-1.2-1.37-2.77-2.22-4.45-2.86-3.72-1.41-7.64-2.39-11.42-3.6-4.02-1.29-8.02-2.61-12.01-3.97-8.9-3.04-17.74-6.28-26.5-9.7-.95-.37-2.05.41-2.31,1.31-.3,1.06.37,1.94,1.31,2.31h0Z"/>
      <path class="cls-1" d="m196.46,117.96c-.9.09-1.65.37-2.32.99-.55.51-.88,1.17-1.15,1.86-.17.44-.28.9-.35,1.37-.1.68-.18,1.37-.12,2.05.09.97.37,1.94,1.1,2.62.68.64,1.53.95,2.45.99,1.44.07,2.94-.68,3.86-1.76s1.58-2.51,1.47-3.96c-.12-1.56-.88-2.9-2.22-3.72-1.1-.67-2.62-.94-3.84-.48-.86.33-1.52.83-2.04,1.59-.42.61-.61,1.39-.64,2.12-.04.96.32,1.88.94,2.6s1.52,1.05,2.43,1.09c.72.03,1.54-.21,2.13-.63.89-.64,1.38-1.48,1.46-2.57.03-.46-.23-1.01-.55-1.33s-.86-.57-1.33-.55c-1.08.05-1.8.82-1.88,1.88,0,.04,0,.08-.01.13l.07-.5c-.02.1-.05.2-.09.29l.19-.45c-.04.09-.09.18-.15.26l.29-.38c-.08.1-.16.18-.25.26l.38-.29c-.13.1-.28.18-.43.25l.45-.19c-.16.06-.32.1-.49.13l.5-.07c-.15.02-.29.02-.44,0l.5.07c-.15-.02-.28-.06-.42-.12l.45.19c-.1-.05-.18-.1-.27-.16l.38.29c-.11-.09-.21-.19-.3-.3l.29.38c-.08-.12-.15-.24-.21-.37l.19.45c-.06-.16-.1-.32-.13-.48l.07.5c-.02-.2-.02-.39,0-.58l-.07.5c.03-.2.08-.38.15-.57l-.19.45c.08-.18.18-.35.3-.51l-.29.38c.09-.11.2-.21.31-.31l-.38.29c.15-.11.3-.2.47-.28l-.45.19c.19-.08.38-.13.58-.16l-.5.07c.23-.03.45-.03.68,0l-.5-.07c.28.04.54.11.8.22l-.45-.19c.24.1.46.23.66.39l-.38-.29c.18.14.35.31.49.49l-.29-.38c.13.17.23.34.32.53l-.19-.45c.1.24.17.49.2.75l-.07-.5c.03.29.03.57,0,.86l.07-.5c-.05.32-.14.62-.26.91l.19-.45c-.13.3-.29.57-.48.83l.29-.38c-.21.28-.46.52-.73.74l.38-.29c-.21.16-.44.3-.68.4l.45-.19c-.27.11-.55.19-.84.23l.5-.07c-.21.02-.41.02-.62,0l.5.07c-.18-.03-.34-.07-.5-.14l.45.19c-.11-.05-.22-.11-.32-.19l.38.29c-.1-.08-.19-.17-.28-.27l.29.38c-.09-.12-.15-.24-.21-.37l.19.45c-.09-.22-.14-.44-.17-.67l.07.5c-.06-.54-.02-1.1.05-1.64l-.07.5c.07-.49.18-.98.37-1.44l-.19.45c.1-.24.22-.46.38-.67l-.29.38c.11-.14.23-.26.36-.38l-.38.29c.12-.09.24-.17.38-.23l-.45.19c.15-.06.29-.1.45-.12l-.5.07h.07c.51-.06.95-.18,1.33-.56.33-.33.57-.86.55-1.33-.04-.93-.83-1.98-1.88-1.88h0Z"/>
      <path class="cls-1" d="m59.2,127.28c-1.6,1.01-3.01,2.71-2.94,4.71.03,1,.44,1.95,1.16,2.65s1.61,1.08,2.59,1.16c.56.04,1.11-.12,1.61-.36s.91-.66,1.22-1.12c.51-.73.67-1.72.57-2.6-.11-.95-.34-1.83-.74-2.7-.55-1.2-1.97-1.97-3.27-1.59-.75.22-1.31.7-1.75,1.33-.35.5-.56,1.21-.52,1.82.04.69.24,1.34.6,1.93.29.49.68.93,1.06,1.35.27.3.69.46,1.08.52s.87.02,1.2-.22.6-.44.84-.74c.34-.43.57-.8.75-1.33.27-.79.18-1.8-.27-2.5-.42-.65-1.08-1.17-1.85-1.33-.92-.2-1.94,0-2.59.72-.33.37-.55.82-.55,1.33,0,.46.2,1.01.55,1.33s.83.57,1.33.55.99-.18,1.33-.55c.04-.04.07-.07.11-.11l-.38.29s.08-.05.13-.08l-.45.19c.08-.03.16-.05.24-.07l-.5.07c.07,0,.14,0,.21,0l-.5-.07c.11.01.21.04.31.08l-.45-.19c.1.04.19.1.28.16l-.38-.29c.07.06.13.12.19.19l-.29-.38c.04.06.08.12.11.18l-.19-.45c.04.1.06.2.08.31l-.07-.5c.01.12,0,.23,0,.34l.07-.5c-.02.14-.06.27-.12.4l.19-.45c-.06.13-.13.25-.22.37l.29-.38c-.12.15-.25.29-.4.41l.38-.29-.06.04,2.27.29c-.17-.19-.34-.39-.5-.59l.29.38c-.17-.22-.32-.46-.44-.71l.19.45c-.07-.16-.12-.33-.15-.5l.07.5c-.02-.14-.02-.27,0-.41l-.07.5c.02-.11.05-.21.08-.31l-.19.45c.05-.12.11-.23.19-.34l-.29.38c.08-.1.16-.19.27-.27l-.38.29c.07-.05.13-.09.21-.12l-.45.19c.07-.03.15-.05.22-.07l-.5.07c.08-.01.15-.01.23,0l-.5-.07c.08.01.16.04.24.07l-.45-.19c.06.03.11.06.16.1l-.38-.29c.08.07.15.14.22.22l-.29-.38c.11.14.19.3.26.46l-.19-.45c.21.52.36,1.08.44,1.63l-.07-.5c.04.29.05.57.01.86l.07-.5c-.02.17-.06.32-.12.48l.19-.45c-.06.13-.13.26-.21.37l.29-.38c-.08.1-.16.18-.26.26l.38-.29c-.09.06-.18.12-.27.16l.45-.19c-.11.05-.23.08-.35.09l.5-.07c-.14.02-.28.01-.42,0l.5.07c-.16-.03-.32-.07-.47-.13l.45.19c-.17-.08-.33-.17-.48-.28l.38.29c-.15-.12-.28-.25-.4-.4l.29.38c-.12-.15-.21-.31-.29-.49l.19.45c-.06-.14-.09-.28-.12-.43l.07.5c-.02-.21-.02-.41,0-.62l-.07.5c.03-.23.1-.45.18-.67l-.19.45c.12-.29.28-.55.46-.8l-.29.38c.25-.33.55-.62.87-.88l-.38.29c.15-.12.31-.23.48-.33.41-.26.73-.65.86-1.12s.07-1.05-.19-1.44c-.54-.83-1.68-1.23-2.57-.67h0Z"/>
      <path class="cls-1" d="m98.67,100.07c-.39.46-.75.94-1.04,1.47s-.52,1.1-.7,1.67c-.08.25-.09.5-.03.75.01.25.09.48.22.7.27.42.64.72,1.12.86.64.19,1.35.18,2,.01.31-.08.62-.22.91-.37s.56-.37.81-.58.45-.48.65-.75c.11-.14.2-.29.27-.45.13-.29.28-.6.33-.91.06-.33.12-.68.08-1.02l-.07-.5c-.06-.24-.17-.46-.34-.64-.08-.14-.2-.25-.34-.34-.18-.17-.39-.28-.64-.34-.12-.04-.24-.08-.37-.11-.22-.05-.44-.07-.66-.1-.06,0-.12-.01-.19,0-.37.01-.68.08-1.02.22-.11.05-.22.08-.32.15-.12.07-.3.22-.4.31-.02.02-.04.03-.06.05-.45.46-.68,1.04-.72,1.68,0,.04,0,.08,0,.11.01.19.03.41.09.59.06.17.13.37.23.52.06.09.23.33.31.4.02.02.03.03.05.05.17.18.37.31.6.39.22.12.46.17.72.16.46,0,1.01-.2,1.33-.55s.57-.83.55-1.33l-.07-.5c-.09-.32-.25-.59-.48-.83-.02-.02-.04-.04-.06-.06l.29.38s-.03-.04-.04-.07l.19.45s-.02-.07-.03-.11l.07.5s0-.08,0-.11l-.07.5c0-.05.02-.1.04-.15l-.19.45c.02-.06.05-.11.09-.16l-.29.38s.07-.08.11-.11l-.38.29s.07-.04.11-.06l-.45.19c.06-.02.12-.04.18-.05l-.5.07c.11-.01.21-.01.32,0l-.5-.07c.17.03.34.08.51.13l-1.38-1.81c.02.15.02.3,0,.46l.07-.5c-.02.17-.07.34-.14.5l.19-.45c-.08.17-.17.33-.29.48l.29-.38c-.13.16-.27.3-.43.42l.38-.29c-.16.12-.33.22-.52.3l.45-.19c-.17.07-.35.12-.54.15l.5-.07c-.16.02-.32.02-.49,0l.5.07c-.09-.01-.19-.03-.28-.06l1.31,2.31c.07-.22.14-.43.23-.65l-.19.45c.22-.52.51-1.01.85-1.46l-.29.38c.06-.07.11-.14.17-.21.18-.17.31-.37.39-.6.12-.22.17-.46.16-.72,0-.46-.2-1.01-.55-1.33s-.83-.57-1.33-.55c-.47.02-1.01.17-1.33.55h0Z"/>
      <path class="cls-1" d="m153.15,98.03c-.11-.14-.36-.3-.45-.36-.15-.11-.41-.19-.54-.24-.03-.01-.07-.02-.11-.03-.17-.03-.36-.06-.53-.07-.02,0-.05,0-.07,0-.2.01-.4.04-.59.08-.18.04-.45.18-.55.22-.03.02-.07.03-.1.05-.16.11-.32.22-.46.36-.01.01-.03.03-.04.04-.09.11-.21.27-.3.39,0,0-.01.02-.02.02-.11.16-.18.37-.24.54-.06.19-.08.43-.09.59,0,.02,0,.03,0,.05,0,.01,0,.02,0,.04l.07.5c.09.32.25.59.48.83.13.14.34.28.46.37.04.03.08.05.12.07.18.09.36.17.55.23.02,0,.05.01.07.02.18.04.37.06.55.08.05,0,.09,0,.14,0,.21,0,.42-.04.63-.08.04,0,.09-.02.13-.04.19-.07.39-.14.56-.24s.32-.23.47-.36c.04-.03.07-.06.1-.1l.29-.38h0c.16-.28.28-.65.26-.97l-.03-.25c0-.09-.02-.18-.04-.26,0,0,0-.02,0-.03-.01-.05-.03-.1-.04-.15s-.03-.1-.05-.14c-.07-.17-.14-.33-.21-.5-.01-.03-.02-.05-.04-.08-.02-.04-.05-.08-.07-.12-.11-.16-.23-.34-.38-.48-.31-.31-.62-.47-1.04-.61-.02,0-.04-.01-.06-.02-.09-.02-.42-.06-.51-.07,0,0-.01,0-.02,0-.2,0-.4.02-.59.08-.08.02-.24.1-.24.1-.06.03-.17.07-.25.11-.02,0-.03.02-.05.03-.1.07-.29.22-.39.3,0,0-.02.02-.03.02-.02.01-.03.03-.04.04-.12.14-.26.3-.35.47,0,0,0,.02-.01.02-.06.13-.15.33-.2.47,0,.02-.01.03-.02.05-.05.19-.09.4-.08.6.02.41.08.67.27,1.02.09.17.21.32.35.45.05.04.34.27.39.3,0,0,.02,0,.03.01.15.08.32.16.5.21.25.08.5.09.75.03.25-.01.48-.09.7-.22.22-.12.39-.28.53-.48.17-.18.28-.39.34-.64l.07-.5c0-.34-.09-.65-.26-.95l-.29-.38c-.23-.23-.51-.39-.83-.48-.01,0-.03,0-.04-.01l.45.19s-.03-.01-.04-.02l.38.29s-.02-.02-.03-.03l.29.38s-.02-.02-.02-.04l.19.45s-.01-.03-.01-.05l.07.5s0-.05,0-.08l-.07.5s.02-.07.03-.11l-.19.45s.04-.07.06-.1l-.29.38s.05-.06.09-.09l-.38.29s.05-.04.08-.05l-.45.19s.05-.02.07-.02l-.5.07s.05,0,.08,0l-.5-.07s.07.02.1.03l-.45-.19s.08.04.11.07l-.38-.29s.09.08.12.12l-.29-.38c.06.07.1.16.13.24l-.19-.45c.05.12.09.25.12.38l.19-1.44s-.01.02-.02.02l.29-.38s-.08.08-.12.12l.38-.29s-.1.07-.16.09l.45-.19c-.07.03-.14.04-.21.05l.5-.07c-.07,0-.14,0-.21,0l.5.07c-.07,0-.14-.03-.21-.06l.45.19c-.05-.02-.1-.05-.15-.09l.38.29s-.06-.05-.08-.08l.55,1.33s0-.06,0-.1l-.07.5s.01-.07.03-.1l-.19.45s.04-.07.06-.1l-.29.38s.06-.06.09-.09l-.38.29s.09-.06.13-.08l-.45.19c.05-.02.11-.04.16-.05l-.5.07s.09,0,.14,0l-.5-.07s.07.02.11.03l-.45-.19s.06.03.09.05l-.38-.29s.05.04.07.07c.17.18.37.31.6.39.22.12.46.17.72.16.26,0,.5-.04.72-.16.23-.08.43-.2.6-.39l.29-.38c.17-.29.25-.61.26-.95l-.07-.5c-.09-.32-.25-.59-.48-.83h0Z"/>
      <path class="cls-1" d="m119.27,131.23c.52,2.05,2.05,3.69,3.96,4.53,2.19.97,4.62.91,6.89.2,4.12-1.29,8.1-4.03,9.7-8.16.37-.94-.4-2.06-1.31-2.31-1.06-.29-1.94.36-2.31,1.31-1.02,2.62-3.97,4.42-6.49,5.34-2.31.85-6.07,1.07-6.83-1.91-.59-2.34-4.21-1.35-3.62,1h0Z"/>
      <path class="cls-1" d="m130,160.98c4.37,2.97,10.69.69,14.9-1.5,4.67-2.44,8.29-6.68,8.81-12.04.1-1.01-.93-1.88-1.88-1.88-1.1,0-1.78.86-1.88,1.88-.39,4.01-3.56,7.04-6.95,8.81-1.79.93-3.74,1.63-5.71,2.08-1.85.42-3.78.53-5.41-.57-2-1.36-3.88,1.89-1.89,3.24h0Z"/>
      <path class="cls-1" d="m58.14,128.2l-.84.19c-.39.09-.73.36-.97.67-.26.34-.39.7-.4,1.14-.05,1.43.8,2.74,1.98,3.49s2.77.81,3.99.1c.58-.34,1.06-.84,1.41-1.4.38-.6.54-1.25.62-1.94.14-1.18-.38-2.49-1.3-3.24-.53-.43-1.1-.77-1.78-.92s-1.33-.15-2.03-.02-1.24.48-1.76.9c-.54.44-.88,1.06-1.13,1.7-.45,1.16-.29,2.55.3,3.63.78,1.43,2.61,2.39,4.22,1.86.91-.3,1.69-.91,2.17-1.75.38-.68.61-1.51.53-2.29-.06-.59-.18-1.02-.44-1.56-.17-.35-.42-.67-.7-.94-.53-.54-1.29-.99-2.04-1.1-.25-.08-.5-.09-.75-.03-.25.01-.48.09-.7.22-.39.23-.76.67-.86,1.12-.11.48-.09,1.02.19,1.44.25.38.65.79,1.12.86.17.03.34.07.5.13l-.45-.19c.18.08.34.17.5.29l-.38-.29c.15.12.29.26.41.41l-.29-.38c.1.14.19.29.26.45l-.19-.45c.07.16.11.33.14.51l-.07-.5c.02.18.02.35,0,.53l.07-.5c-.03.2-.08.39-.15.57l.19-.45c-.08.18-.18.35-.3.51l.29-.38c-.1.13-.21.24-.34.34l.38-.29c-.13.09-.26.17-.4.23l.45-.19c-.12.05-.25.08-.38.11l.5-.07c-.13.01-.26.01-.39,0l.5.07c-.15-.02-.3-.07-.44-.12l.45.19c-.16-.07-.31-.16-.45-.27l.38.29c-.13-.11-.25-.23-.36-.36l.29.38c-.12-.15-.21-.32-.29-.49l.19.45c-.09-.21-.15-.43-.18-.66l.07.5c-.03-.25-.03-.49,0-.74l-.07.5c.03-.21.09-.41.16-.61l-.19.45c.08-.19.18-.37.31-.54l-.29.38c.11-.14.23-.26.37-.36l-.38.29c.14-.1.28-.18.43-.25l-.45.19c.19-.08.38-.13.58-.16l-.5.07c.22-.03.44-.03.66,0l-.5-.07c.24.03.46.09.68.18l-.45-.19c.18.08.36.18.52.3l-.38-.29c.13.1.25.22.35.35l-.29-.38c.1.13.19.28.26.43l-.19-.45c.07.17.12.35.14.53l-.07-.5c.02.2.02.4,0,.6l.07-.5c-.03.22-.09.43-.17.63l.19-.45c-.09.2-.2.39-.33.56l.29-.38c-.12.14-.24.27-.39.39l.38-.29c-.13.1-.28.18-.43.25l.45-.19c-.15.06-.29.1-.45.13l.5-.07c-.18.02-.35.02-.53,0l.5.07c-.2-.03-.38-.08-.56-.16l.45.19c-.18-.08-.35-.18-.51-.3l.38.29c-.17-.13-.32-.28-.46-.46l.29.38c-.11-.14-.2-.29-.27-.46l.19.45c-.07-.16-.12-.33-.14-.51l.07.5c-.01-.11-.02-.21-.01-.32l-1.38,1.81.84-.19c.45-.1.89-.47,1.12-.86s.33-.99.19-1.44c-.32-1-1.28-1.55-2.31-1.31h0Z"/>
      <path class="cls-1" d="m94.08,89.76c.83-.48,1.68-.94,2.55-1.37.4-.2.81-.39,1.22-.57.23-.11.47-.21.71-.31-.26.11.29-.12.35-.14,1.76-.7,3.57-1.28,5.42-1.73.95-.23,1.62-1.36,1.31-2.31s-1.29-1.56-2.31-1.31c-3.9.95-7.67,2.48-11.14,4.5-.85.49-1.22,1.72-.67,2.57s1.66,1.2,2.57.67h0Z"/>
      <path class="cls-1" d="m147.69,83.71c4.97.48,9.86,1.93,14.3,4.21.9.46,2.03.23,2.57-.67.49-.84.23-2.1-.67-2.57-5.07-2.6-10.52-4.18-16.19-4.73-1.01-.1-1.88.93-1.88,1.88,0,1.09.86,1.78,1.88,1.88h0Z"/>
    </g>
    <g>
      <g>
        <path class="cls-1" d="m444.37,20.33c-5.72,6.91-11.93,13.42-18.58,19.43-3.3,2.98-6.71,5.85-10.22,8.59-1.71,1.34-3.46,2.64-5.22,3.91-.95.68-1.9,1.36-2.86,2.02-.77.53-1.74,1.5-2.63,1.78h1l.42.28.55,1.33v-.21c-.09.32-.17.63-.26.95l.1-.16-1.62.93h.17c2.4-.16,2.41-3.91,0-3.76-2.07.13-3.04,2.9-1.09,4.04,1.81,1.06,3.86-.97,5.25-1.93,3.43-2.38,6.77-4.87,10.04-7.46,6.45-5.13,12.57-10.68,18.28-16.62,3.24-3.36,6.34-6.85,9.32-10.45,1.53-1.85-1.11-4.51-2.65-2.65h0Z"/>
        <path class="cls-1" d="m447.43,22.66c19.39,11.61,41.29,18.65,59.93,31.57,5.16,3.57,9.96,7.63,14.23,12.23,1.65,1.78,4.24-.86,2.65-2.65-.69-.78-1.39-1.57-2.08-2.35-1.6-1.81-4.25.85-2.65,2.65.69.78,1.39,1.57,2.08,2.35l2.65-2.65c-15.68-16.86-37.51-25.42-57.79-35.26-5.82-2.83-11.58-5.79-17.13-9.12-2.08-1.24-3.96,2-1.89,3.24h0Z"/>
        <path class="cls-1" d="m447.56,15.58c14.18-4.04,30.03-3.59,43.77,1.81,19.19,7.55,32.62,25.14,37.2,44.95,2.62,11.37,2.36,23.27-.44,34.58-.58,2.34,3.03,3.34,3.62,1,5.12-20.66,1.97-43.41-10.32-61.03-6.14-8.8-14.36-16.13-24.01-20.89s-20.16-6.88-30.77-6.8c-6.73.05-13.57.91-20.05,2.75-2.32.66-1.33,4.28,1,3.62h0Z"/>
        <path class="cls-1" d="m447.06,11.89c-14.85.46-29.49,5.38-40.97,14.95-12.81,10.68-20.55,26.44-22.79,42.82-1.36,9.93-.79,20.01,1.44,29.77.54,2.35,4.15,1.36,3.62-1-3.65-15.94-2.6-33.21,4.43-48.11s19.62-26.3,35.31-31.4c6.13-1.99,12.52-3.07,18.96-3.28,2.41-.08,2.42-3.83,0-3.75h0Z"/>
        <path class="cls-1" d="m400.63,95.71c-5.23.14-10.34,1.89-14.3,5.36s-6.39,9.04-6.2,14.54c.3,8.5,6.32,16.2,14.72,18.13,4.01.92,8.48.7,12.36-.7,2.25-.82,1.28-4.44-1-3.62-7.06,2.56-15.44.7-19.72-5.76-3.64-5.52-3.63-13.42,1.13-18.61,3.33-3.63,8.13-5.46,13-5.59,2.41-.06,2.42-3.81,0-3.75h0Z"/>
        <path class="cls-1" d="m518.33,94.26c9.34.94,16.68,9.1,15.76,18.6-.66,6.81-5.1,12.53-11.61,14.73-2.34.79-4.23,1.18-6.54,1.12s-2.41,3.68,0,3.75c7,.2,14.15-3.36,18.18-9.03,5.27-7.4,4.92-17.89-.68-24.96-3.7-4.67-9.25-7.36-15.12-7.96-1.01-.1-1.88.93-1.88,1.88,0,1.1.86,1.77,1.88,1.88h0Z"/>
        <path class="cls-1" d="m400.1,59.69c-3.18,21.69-2.22,43.89,2.98,65.2,4.65,19.04,12.57,38.57,28.71,50.7,7.32,5.5,16.15,9.13,25.36,9.56s17.92-2.35,25.56-6.97c16.83-10.17,26.2-28.08,31.14-46.56,2.73-10.22,4.36-20.75,5.57-31.25.64-5.63,1.12-11.28,1.42-16.94s.51-11.12.04-16.66c-.23-2.67-.61-5.33-1.2-7.94-.53-2.35-4.14-1.36-3.62,1,1.16,5.15,1.4,10.41,1.32,15.67s-.42,10.87-.87,16.29c-.87,10.42-2.26,20.83-4.43,31.06-3.82,18.03-10.82,36.27-25.59,48.15-6.57,5.28-14.61,9.18-23.03,10.18-8.63,1.03-17.2-1.1-24.67-5.43-16.44-9.54-25.16-27.38-30.27-45-5.85-20.18-7.78-41.43-5.74-62.35.25-2.57.56-5.14.94-7.7.15-1.01-.25-2-1.31-2.31-.88-.25-2.16.31-2.31,1.31h0Z"/>
        <path class="cls-1" d="m440.76,182.46c-.64,9.15-.84,18.33-.61,27.5.06,2.41,3.81,2.42,3.75,0-.23-9.17-.03-18.35.61-27.5.17-2.41-3.58-2.4-3.75,0h0Z"/>
        <path class="cls-1" d="m478.81,180.49c.37,6.37,1.12,12.73,2.25,19.01.27,1.51.57,3.02.89,4.52.3,1.41.46,3.17,2.03,3.72,1.36.47,2.82-.52,2.82-1.98s-1.26-2.3-2.62-2.05c-2.37.44-1.37,4.05,1,3.62l.13-.02-1.82-.48-.37-.56v-1l-.04.15.86-1.12-.13.08,1.44-.19c.68.93.89,1.01.63.25-.05-.24-.1-.47-.16-.71-.12-.55-.24-1.11-.35-1.66-.19-.95-.38-1.9-.56-2.85-.38-2.06-.72-4.14-1.02-6.21-.59-4.15-.99-8.33-1.23-12.51-.14-2.4-3.89-2.41-3.75,0h0Z"/>
        <path class="cls-1" d="m442.21,215.07c6.97,4.77,15.84,6.49,24.09,4.66,7.74-1.72,14.58-6.58,18.96-13.15,1.34-2.01-1.9-3.89-3.24-1.89-3.86,5.78-9.94,9.92-16.72,11.43-7.3,1.62-15.06-.08-21.2-4.28-2-1.37-3.87,1.88-1.89,3.24h0Z"/>
        <path class="cls-1" d="m437.07,212.8c-7.77,1.61-15.45,3.6-23.01,5.99-3.78,1.19-7.53,2.48-11.25,3.86-1.78.66-3.56,1.35-5.33,2.06-1.66.67-3.32,1.35-4.66,2.57s-2.07,2.69-2.74,4.24c-.8,1.86-1.55,3.74-2.3,5.62-1.44,3.64-2.8,7.31-4.08,11-2.57,7.39-4.82,14.89-6.76,22.47-2.17,8.49-3.94,17.08-5.31,25.73-.16,1.01.26,2.01,1.31,2.31.89.25,2.15-.31,2.31-1.31,2.37-14.99,5.95-29.79,10.71-44.2,1.18-3.57,2.43-7.11,3.75-10.62s2.51-6.97,4.13-10.27c.76-1.55,1.7-2.55,3.25-3.32s3.29-1.36,4.94-1.99c3.56-1.36,7.15-2.63,10.76-3.81,8.29-2.71,16.74-4.94,25.28-6.71,2.36-.49,1.36-4.11-1-3.62h0Z"/>
        <path class="cls-1" d="m490.59,210.56c7.8,1.33,15.61,2.65,23.41,3.98,1.95.33,3.9.66,5.85,1,1.51.26,3.31.41,4.57,1.35,1.04.78,1.59,2.07,2.07,3.24.78,1.91,1.51,3.84,2.26,5.76,5.54,14.29,10.64,28.74,15.31,43.33,2.65,8.29,5.16,16.63,7.54,25.01.66,2.32,4.28,1.33,3.62-1-4.35-15.36-9.17-30.59-14.47-45.65-2.62-7.46-5.36-14.87-8.21-22.24-.7-1.8-1.4-3.61-2.12-5.41-.65-1.63-1.27-3.28-2.38-4.67-2.24-2.81-5.85-3.11-9.15-3.67-9.1-1.55-18.21-3.1-27.31-4.65-2.36-.4-3.37,3.21-1,3.62h0Z"/>
        <path class="cls-1" d="m522.46,131.82c-5.14,7.96-7.39,17.75-6.25,27.16.28,2.34.73,4.65,1.42,6.9s1.54,4.46,2.07,6.75c.47,2,.73,4.28-.25,6.17s-2.81,2.91-4.11,4.44c-3.96,4.66-1.36,10.21,1.74,14.52l.29-2.27c-.79.78-2.05.32-2.97.02-1.34-.43-2.61-1.06-3.96-1.46-3.25-.96-6.71-.86-10.05-.56-5.41.48-12.28,1.81-16.78-2.16-1.8-1.59-4.47,1.05-2.65,2.65,5.45,4.81,12.76,3.85,19.43,3.26,3.71-.33,7.26-.35,10.77,1.04,2.9,1.15,6.3,2.37,8.87-.14.55-.54.77-1.61.29-2.27-1.3-1.82-2.64-3.76-3.17-5.96s.35-3.63,1.84-5.05,3-2.66,3.88-4.51c.97-2.04,1.14-4.25.86-6.47-.57-4.46-2.61-8.57-3.44-12.98s-.82-8.91-.04-13.26c.89-4.98,2.73-9.69,5.47-13.93,1.31-2.03-1.93-3.92-3.24-1.89h0Z"/>
        <path class="cls-1" d="m388.58,136.11c-2.83,7.13-2.04,15.13,1.71,21.76,1.69,2.99,3.9,5.81,5.03,9.08,1.06,3.07.52,5.77-1.04,8.55s-3.46,5.19-4.29,8.2c-.92,3.31.2,6.19,1.65,9.15.55,1.13,1.37,2.49,1.31,3.79-.07,1.43-1.6,1.96-2.67,2.58-1.39.81-2.57,1.91-3.06,3.49s-.04,3.45,1.46,4.35c1.81,1.09,4.19.46,6.16.23,2.43-.28,4.85-.6,7.28-.94,4.83-.68,9.65-1.49,14.44-2.42.77-.15,1.41-1.04,1.38-1.81-.13-3.31-.25-6.62-.38-9.93l-1.38,1.81c-.19.03-.04,0,.06.17.18.26.41.49.58.76.54.82,1.01,1.66,1.63,2.43,1.67,2.1,4,2.35,6.52,2.2,5.99-.37,11.91-1.57,17.57-3.56,2.26-.8,1.29-4.42-1-3.62-5.61,1.98-11.51,3.25-17.46,3.48-.99.04-1.93.07-2.63-.71-.56-.63-.94-1.41-1.4-2.11-1.19-1.83-2.62-2.97-4.88-2.66-.78.11-1.4,1.07-1.38,1.81.13,3.31.25,6.62.38,9.93l1.38-1.81c-3.99.77-8,1.47-12.02,2.07s-7.98,1.27-11.97,1.51c-.31.02-.65.07-.96-.03.19.07.1.3.16.14.18-.51.37-.84.8-1.17,1.29-.97,2.8-1.43,3.87-2.72,2.11-2.56,1.12-5.65-.15-8.34s-2.46-4.81-1.47-7.7c.88-2.57,2.7-4.76,3.98-7.14,1.51-2.83,2.26-5.79,1.68-8.99s-2.37-6.11-4.06-8.86c-2.04-3.31-3.87-6.55-4.52-10.44s-.12-7.87,1.33-11.52c.38-.95-.41-2.05-1.31-2.31-1.06-.3-1.93.37-2.31,1.31h0Z"/>
        <path class="cls-1" d="m437.14,90.36c3.22,0,3.22-5,0-5s-3.22,5,0,5h0Z"/>
        <path class="cls-1" d="m480.47,88.98c3.22,0,3.22-5,0-5s-3.22,5,0,5h0Z"/>
        <path class="cls-1" d="m451.53,118.38c6.38,3.49,14.81,2.25,19.84-3.04,1.66-1.75-.98-4.4-2.65-2.65-3.87,4.07-10.36,5.15-15.29,2.45-2.12-1.16-4.01,2.08-1.89,3.24h0Z"/>
        <path class="cls-1" d="m431.2,148.38c3.79,5.79,11.53,8.57,18.1,6.2.95-.34,1.59-1.28,1.31-2.31-.25-.92-1.35-1.66-2.31-1.31-4.95,1.79-10.94,0-13.87-4.47-.55-.85-1.66-1.2-2.57-.67-.84.49-1.23,1.71-.67,2.57h0Z"/>
        <path class="cls-1" d="m426.71,80.22c.6-.63,1.23-1.24,1.9-1.79.17-.14.34-.31.52-.42-.13.08-.19.14-.02.02.08-.06.16-.12.24-.18.36-.26.73-.52,1.11-.76.71-.46,1.45-.87,2.21-1.24.2-.1.4-.19.61-.28.09-.04.18-.08.27-.12.21-.09-.3.12.03-.01.42-.16.84-.32,1.26-.46.93-.31,1.63-1.31,1.31-2.31-.3-.92-1.31-1.64-2.31-1.31-3.71,1.24-7.1,3.36-9.79,6.22-.67.71-.76,1.95,0,2.65s1.93.76,2.65,0h0Z"/>
        <path class="cls-1" d="m478.07,72.27c5.25.21,10.35,2.3,14.23,5.84.75.68,1.91.74,2.65,0,.69-.69.75-1.97,0-2.65-4.64-4.22-10.62-6.68-16.89-6.93-1.01-.04-1.88.89-1.88,1.88,0,1.05.86,1.83,1.88,1.88h0Z"/>
      </g>
      <path class="cls-1" d="m446.41,14.09c3.74-3.75,7.78-6.93,12.3-9.67.87-.52,1.19-1.68.67-2.57s-1.7-1.2-2.57-.67c-4.75,2.87-9.15,6.33-13.06,10.26-.71.72-.72,1.93,0,2.65s1.93.72,2.65,0h0Z"/>
      <path class="cls-1" d="m446.95,11.89c-3.45-5.65-8.92-9.88-15.24-11.82-.97-.3-2.04.35-2.31,1.31s.34,2.01,1.31,2.31c5.36,1.64,10.06,5.29,13,10.09,1.26,2.06,4.5.17,3.24-1.89h0Z"/>
    </g>
  </g>
</svg>