<?xml version="1.0" encoding="UTF-8"?>
<svg id="Layer_2" data-name="Layer 2" xmlns="http://www.w3.org/2000/svg" viewBox="0 0 587.5 474.57">
  <defs>
    <style>
      .cls-1 {
        letter-spacing: -.03em;
      }

      .cls-2 {
        letter-spacing: -.03em;
      }

      .cls-3 {
        letter-spacing: -.03em;
      }

      .cls-4 {
        letter-spacing: -.02em;
      }

      .cls-5 {
        font-size: 12px;
      }

      .cls-5, .cls-6, .cls-7 {
        fill: #231f20;
      }

      .cls-5, .cls-7 {
        font-family: Inter-Bold, Inter;
        font-variation-settings: 'wght' 700, 'slnt' 0;
        font-weight: 700;
      }

      .cls-6 {
        stroke-width: 0px;
      }

      .cls-7 {
        font-size: 13.67px;
      }

      .cls-8 {
        letter-spacing: -.01em;
      }
    </style>
  </defs>
  <g id="Layer_1-2" data-name="Layer 1">
    <g>
      <path class="cls-6" d="m138.39,136.55c-16.31-10.09-33.33-19-50.92-26.65-.76-.33-1.42.79-.65,1.12,17.58,7.66,34.61,16.57,50.92,26.65.71.44,1.36-.68.65-1.12h0Z"/>
      <path class="cls-6" d="m136.81,139.73c-8.29,1.48-16.61,2.71-24.98,3.65-4.05.46-8.1.86-12.16,1.19-2.11.17-4.22.33-6.34.47-.98.06-1.95.13-2.93.18s-2.59.45-3.44-.04c-.72-.42-1.38.7-.65,1.12s1.35.36,2.14.32c1.14-.06,2.28-.13,3.42-.2,2.11-.13,4.23-.28,6.34-.45,4.39-.34,8.77-.76,13.14-1.25,8.64-.97,17.25-2.23,25.81-3.76.82-.15.47-1.4-.34-1.25h0Z"/>
      <path class="cls-6" d="m85.13,109.71c-7.7,2.19-15.67,3.18-23.68,2.94-.84-.03-.83,1.27,0,1.3,8.11.25,16.22-.76,24.02-2.98.8-.23.46-1.48-.34-1.25h0Z"/>
      <path class="cls-6" d="m60.72,115.38c4.19,5.17,8.39,10.34,12.58,15.51,3.89,4.8,7.72,9.68,10.66,15.13.4.74,1.52.08,1.12-.65-2.93-5.42-6.72-10.27-10.58-15.04-4.28-5.29-8.58-10.57-12.86-15.86-.53-.65-1.44.27-.92.92h0Z"/>
      <g>
        <path class="cls-6" d="m74.63,73.68c1.11,2.58,2.29,5.13,3.55,7.64,1.01,2,1.96,4.48,3.63,6.04s3.38,1.16,5.16.14c1.66-.96,3.46-2.15,4.25-3.97.97-2.21-.17-4.46-1-6.52-1.08-2.67-2.15-5.35-3.23-8.02-.74-1.83-1.34-4.33-3.04-5.54s-4.12-.8-5.89.06c-2.37,1.14-3.67,3.29-4.75,5.59-1.38,2.92-2.73,5.86-4.09,8.79-.35.75.77,1.41,1.12.65.92-1.96,1.83-3.93,2.75-5.89.84-1.81,1.58-3.74,2.69-5.4,1.22-1.83,3.2-3.16,5.44-3.24,2.59-.09,3.29,2.23,4.08,4.22s1.68,4.16,2.51,6.24,1.83,3.99,2.34,6.06c.57,2.31-.81,3.9-2.63,5.12-.72.48-1.48.99-2.29,1.29-1.23.45-2.16-.01-2.95-.97-1.4-1.7-2.31-3.96-3.28-5.92-1.15-2.3-2.22-4.64-3.24-7.01-.33-.77-1.45-.11-1.12.65h0Z"/>
        <path class="cls-6" d="m88.13,71.11c2.29.21,4.61-.29,6.57-1.5s3.19-3.09,5.07-4.27c2.24-1.4,4.93-.74,6.76,1.04,1.93,1.87,2.71,4.63,3.2,7.19,1.07,5.6.91,11.61.51,17.28-.13,1.86-.43,4.27-1.95,5.57-2.36,2.01-5.29-.34-6.2-2.66-1.07-2.73-.96-6.04-.95-8.93.01-2.4-.22-5.96,2.1-7.45.7-.45.05-1.57-.65-1.12-2.02,1.29-2.52,3.65-2.67,5.9-.2,3.15-.17,6.45.32,9.57.41,2.6,1.56,5.19,4.11,6.3,2.03.88,4.26.3,5.56-1.48,1.41-1.94,1.57-4.52,1.69-6.83.18-3.54.23-7.1.05-10.64-.27-5.27-1.04-12.84-6.62-15.25-2.86-1.23-5.45-.25-7.64,1.75-1.19,1.09-2.27,2.31-3.69,3.11-1.71.96-3.63,1.3-5.57,1.12-.83-.08-.83,1.22,0,1.3h0Z"/>
        <path class="cls-6" d="m99.58,79.16c-1.64-1.8-2.73-4.02-3.18-6.41-.06-.34-.48-.54-.8-.45-.36.1-.52.45-.45.8.48,2.61,1.72,5.03,3.51,6.99.57.62,1.48-.3.92-.92h0Z"/>
        <path class="cls-6" d="m110.07,72.87c3.11.9,6.01,2.01,7.02,5.38s1.06,6.92.98,10.28c-.04,1.82-.19,3.64-.46,5.44-.22,1.52-.41,3.18-.97,4.61-.67,1.71-2.46,2.15-4.01,1.29s-2.24-2.66-2.74-4.26c-.25-.8-1.5-.46-1.25.34.92,2.95,3.34,6.81,7.05,5.41,1.49-.57,2.15-2.01,2.51-3.47.53-2.14.83-4.36,1.02-6.55.37-4.3.37-9.07-.82-13.26-1.12-3.95-4.31-5.41-7.99-6.47-.8-.23-1.15,1.02-.34,1.25h0Z"/>
        <path class="cls-6" d="m107.62,98.54c-.27,2.42.44,4.92,1.91,6.86.74.97,1.7,1.97,2.89,2.35s2.38-.13,3.13-1.05c.98-1.21,1.05-2.78,1.05-4.27,0-.84-1.3-.84-1.3,0,0,1.26.03,2.74-.96,3.67-1.05.99-2.26.17-3.09-.67-1.78-1.8-2.62-4.37-2.34-6.88.04-.35-.33-.65-.65-.65-.38,0-.61.3-.65.65h0Z"/>
        <path class="cls-6" d="m68.63,77.77c-5.86,7.1-13.73,12.33-22.57,14.93-3.68,1.08-8.39,2.42-9.3,6.77-.82,3.95,3,6.71,6.51,7.07,5.36.55,9.82-2.95,13.7-6.14.65-.53-.28-1.44-.92-.92-3.27,2.68-6.88,5.63-11.31,5.81-2.1.09-4.33-.5-5.75-2.13-1.49-1.71-1.23-3.98.17-5.66s3.43-2.41,5.42-3.02,3.79-1.11,5.64-1.83c3.49-1.36,6.82-3.13,9.9-5.28,3.52-2.46,6.68-5.38,9.42-8.69.53-.64-.39-1.56-.92-.92h0Z"/>
        <path class="cls-6" d="m57.03,100.43c10.75,1.66,22.15-.84,30.47-8.05.63-.55-.29-1.46-.92-.92-7.94,6.87-18.95,9.3-29.21,7.72-.82-.13-1.17,1.12-.34,1.25h0Z"/>
        <path class="cls-6" d="m79.47,97.48c6.99,2.05,14.49,1.89,21.38-.49.78-.27.45-1.52-.34-1.25-6.68,2.3-13.91,2.48-20.69.49-.8-.24-1.15,1.02-.34,1.25h0Z"/>
        <path class="cls-6" d="m82.92,83.11c-.76-1.26-1.33-2.8-.96-4.28.27-1.1,1.19-2.15,2.35-2.32,1.35-.2,2.51.98,3.28,1.94.89,1.12,1.47,2.45,1.74,3.85l.63-.82c-2.63.29-5.22.82-7.74,1.62-.79.25-.45,1.5.34,1.25,2.41-.76,4.88-1.3,7.39-1.57.44-.05.71-.37.63-.82-.26-1.33-.78-2.62-1.55-3.74s-1.74-2.18-2.99-2.71c-2.55-1.1-5.11,1.04-5.44,3.58-.21,1.65.36,3.28,1.2,4.68.43.71,1.55.06,1.12-.65h0Z"/>
        <path class="cls-6" d="m104.6,92.64c-.35-1.77-.79-4.15.85-5.45,1.46-1.15,3.11.25,3.55,1.72.35,1.17.24,2.42.14,3.61l.65-.65c-1.87.17-3.75.35-5.62.52-.35.03-.65.28-.65.65,0,.33.3.68.65.65,1.87-.17,3.75-.35,5.62-.52.37-.03.62-.27.65-.65.19-2.37.16-5.2-2.14-6.58-.98-.59-2.17-.63-3.17-.08s-1.64,1.52-1.94,2.56c-.43,1.49-.13,3.08.17,4.57.07.34.48.54.8.45.36-.1.52-.45.45-.8h0Z"/>
        <path class="cls-6" d="m117.28,96.64l-3.55-.69c-.1-.02-.29-.1-.38-.07-.07-.04-.09-.04-.07,0,.09.12.13.15.12.09.01,0-.02-.55-.02-.62.01-.45.11-.9.27-1.32.62-1.72,2.39-2.72,4.17-2.6.35.02.65-.32.65-.65,0-.37-.3-.62-.65-.65-1.86-.13-3.69.75-4.77,2.27-.53.75-.84,1.64-.94,2.54-.05.45-.06.94.04,1.38.13.55.54.75,1.05.85l3.74.73c.34.07.7-.1.8-.45.09-.32-.11-.73-.45-.8h0Z"/>
      </g>
      <path class="cls-6" d="m86.84,124.05l.1-.98c.05-.51-.59-.79-.98-.56-4.08,2.36-4.02,7.97-1.42,11.41,2.92,3.86,8.16,4.84,12.71,4.28,2.65-.33,5.47-.98,7.92-2.06,2.05-.91,3.3-2.72,3.35-4.99.11-4.61-4.53-8.17-8.4-9.68-5.28-2.06-11.21-1.01-15.66,2.43-.66.51.26,1.42.92.92,3.33-2.58,7.71-3.69,11.85-2.85,3.68.75,7.67,3.04,9.36,6.53.92,1.88.92,4.42-.86,5.81-1.64,1.28-4.23,1.73-6.21,2.17-4,.89-8.5.94-12-1.5s-5.39-8.78-.91-11.37l-.98-.56-.1.98c-.09.83,1.21.82,1.3,0h0Z"/>
    </g>
    <g>
      <path class="cls-6" d="m272.32,27.75c5.28.18,10.47,2.1,14.57,5.46,4.38,3.58,6.97,8.52,8.06,14.03,1.79,9.02.04,17.93-.72,26.93-.51,6.08-.52,12.21-.08,18.3.02.29.19.55.48.63,2.62.73,5.29.85,7.97.4.82-.14.47-1.39-.34-1.25-2.44.41-4.9.27-7.28-.4l.48.63c-.41-5.74-.43-11.51,0-17.24.32-4.28,1-8.52,1.36-12.8.89-10.5-.04-22.44-8.57-29.77-4.43-3.8-10.08-6-15.91-6.2-.84-.03-.83,1.27,0,1.3h0Z"/>
      <path class="cls-6" d="m295.67,53.38c1.15,10.38,2.29,20.75,3.44,31.13.04.33.27.67.65.65,2.43-.17,4.86-.33,7.28-.5.83-.06.84-1.35,0-1.3-2.43.17-4.86.33-7.28.5l.65.65c-1.15-10.38-2.29-20.75-3.44-31.13-.09-.82-1.39-.83-1.3,0h0Z"/>
      <path class="cls-6" d="m280.31,28.64c4.71-3.34,9.43-6.68,14.14-10.02.42-.3.41-.82,0-1.12-5.97-4.44-12.86-7.56-20.11-9.2-.81-.18-1.16,1.07-.34,1.25,7.16,1.62,13.91,4.69,19.8,9.07v-1.12c-4.71,3.34-9.43,6.68-14.14,10.02-.68.48-.03,1.6.65,1.12h0Z"/>
      <path class="cls-6" d="m279.09,30.43c-.23,3.26-.46,6.53-.69,9.79-.02.21.13.46.32.56,4.21,2.16,8.28,4.6,12.16,7.31.69.48,1.34-.65.65-1.12-3.89-2.71-7.95-5.14-12.16-7.31l.32.56c.23-3.26.46-6.53.69-9.79.06-.83-1.24-.83-1.3,0h0Z"/>
      <path class="cls-6" d="m257.16,23.89c.2,2.27.55,4.63,1.31,6.79.61,1.71,1.75,3.01,3.41,3.74,3.48,1.53,7.42.08,9.77-2.74,2.52-3.02,2.96-7.12.39-10.27s-6.86-3.98-10.51-2.84c-4.23,1.32-7.2,5.3-6.94,9.77.05.83,1.34.84,1.3,0-.19-3.32,1.6-6.4,4.55-7.93s6.73-1.37,9.41.66c2.89,2.19,3.4,5.95,1.45,8.93-1.71,2.6-4.9,4.39-8.03,3.54-1.75-.47-3.02-1.64-3.6-3.36-.69-2.01-1.03-4.19-1.22-6.3-.07-.83-1.37-.83-1.3,0h0Z"/>
      <path class="cls-6" d="m273.41,12.26c1.1-2.95,2.19-5.9,3.29-8.85.12-.31-.13-.73-.45-.8-2.8-.57-5.6-1.13-8.39-1.7-1.37-.28-2.74-.56-4.11-.83-.99-.19-1.65-.14-2.12.83-.58,1.21-1.15,2.43-1.72,3.64-.3.63-.6,1.26-.9,1.89-.2.42-.49.89-.37,1.37.21.85,1.59,1.41,2.28,1.77.95.48,1.96.86,2.97,1.2,2.48.82,5.05,1.4,7.34,2.7l.65-1.12c-.17-.08-.35-.16-.52-.24-.75-.35-1.41.76-.65,1.12.17.08.35.16.52.24.74.35,1.39-.7.65-1.12-2.15-1.23-4.54-1.85-6.89-2.59-1.13-.35-2.25-.73-3.31-1.26-.36-.17-1.37-.55-1.58-.92-.25-.45.58-1.69.77-2.1.62-1.31,1.23-2.63,1.86-3.93.19-.39.21-.31.65-.23.33.06.66.13.99.2l2.3.47c3.07.62,6.14,1.24,9.22,1.86l-.45-.8c-1.1,2.95-2.19,5.9-3.29,8.85-.29.78.96,1.12,1.25.34h0Z"/>
      <path class="cls-6" d="m265.39,4.39c-.78-.35-1.6.04-1.91.82-.24.63-.12,1.39.04,2.02.31,1.25,1.2,2.35,2.58,2.38,1.27.03,2.43-.84,2.83-2.02.43-1.28-.03-2.76-.93-3.73-.54-.58-1.27-.99-2.07-1.03s-1.56.35-2,1.01c-.2.29-.06.72.23.89.32.19.69.06.89-.23.15-.23.48-.36.77-.37.18,0,.33.02.55.11.16.07.34.19.48.31.65.57,1.01,1.42.94,2.26-.01.13-.06.34-.13.51-.01.03-.08.16-.11.22-.02.04-.05.08-.07.11-.03.04-.03.04,0,0l-.04.05c-.13.14-.26.26-.35.32-.22.14-.29.17-.49.23-.32.09-.55.11-.89-.02-.13-.05-.05-.02-.03-.01-.04-.02-.08-.04-.12-.06-.1-.06-.12-.07-.19-.14-.16-.15-.24-.26-.34-.46-.18-.34-.32-.9-.35-1.26-.02-.22-.05-.47.04-.66.03-.07.04-.06.08-.09l.03-.02c-.05.02-.04.02.03,0-.01,0-.09,0-.11-.02.32.15.7.09.89-.23.16-.28.09-.74-.23-.89h0Z"/>
    </g>
    <g>
      <path class="cls-6" d="m245.79,374.93c-1.54,16.34-2.06,32.76-1.57,49.16.02.83,1.32.84,1.3,0-.02-1.01-.05-2.02-.07-3.03-.02-.83-1.32-.84-1.3,0,.02,1.01.05,2.02.07,3.03h1.3c-.49-16.4.03-32.83,1.57-49.16.08-.83-1.22-.83-1.3,0h0Z"/>
      <path class="cls-6" d="m279.63,384.97c2.43-3.19,5.55-6.82,9.97-6.54,4.66.3,5.52,5.06,5.44,8.86-.1,4.66-.6,9.34-1.33,13.94-.37,2.37-.82,4.74-1.34,7.08-.41,1.86-.64,4.98-2.48,6.03-1.96,1.12-4.6.03-6.26-1.17-1.81-1.31-3.07-3.22-3.64-5.37-.22-.81-1.47-.46-1.25.34,1.07,3.99,4.61,7.62,8.89,7.91,2.07.14,3.87-.77,4.73-2.68,1.1-2.43,1.45-5.4,1.95-8.01,1.12-5.83,1.84-11.77,2.03-17.71.12-4.02-.6-8.99-5.12-10.26-5.47-1.54-9.73,3.02-12.7,6.92-.51.66.62,1.31,1.12.65h0Z"/>
      <path class="cls-6" d="m282.33,387.25c.72-1.52,1.54-3.39,3.29-3.93,1.99-.62,2.92,1.08,3.17,2.75.51,3.37.23,7.05-.26,10.41s-1.36,6.69-2.59,9.87c-.2.51-.39,1.03-.63,1.53-.22.45-.15.51-.72.48-.81-.03-1.42-1.21-1.82-1.86-.95-1.53-1.55-3.23-1.79-5.01-.11-.82-1.41-.83-1.3,0,.21,1.61.64,3.15,1.37,4.6.6,1.21,1.64,3.12,2.94,3.74,1.14.54,1.99-.33,2.44-1.29.8-1.69,1.4-3.49,1.93-5.28,1.1-3.68,1.73-7.52,1.88-11.36.08-1.9.08-3.86-.15-5.75-.16-1.26-.5-2.59-1.49-3.47-1.11-.99-2.72-.98-4.01-.35-1.71.85-2.6,2.61-3.38,4.26-.35.75.77,1.41,1.12.65h0Z"/>
      <path class="cls-6" d="m281.54,385.53l-2.76,18.51c-.12.82,1.13,1.17,1.25.34l2.76-18.51c.12-.82-1.13-1.17-1.25-.34h0Z"/>
      <path class="cls-6" d="m280.29,383.34c-.25-3.54-.5-7.07-.74-10.61-.03-.43-.39-.72-.82-.63-8.67,1.94-17.65,2.04-26.36.27-.82-.17-1.16,1.09-.34,1.25,8.94,1.82,18.15,1.73,27.05-.27l-.82-.63c.25,3.54.5,7.07.74,10.61.06.83,1.36.83,1.3,0h0Z"/>
      <path class="cls-6" d="m244.32,424.72c1.3,2.42,4.14,2.98,6.62,3.42,3.51.63,7.08,1.05,10.65.99,6.25-.11,12.5-1.84,17.35-5.92.64-.54-.28-1.45-.92-.92-4.44,3.74-10.23,5.35-15.95,5.53-3.14.1-6.27-.19-9.37-.69-2.44-.39-5.95-.62-7.26-3.06-.4-.74-1.52-.08-1.12.65h0Z"/>
      <path class="cls-6" d="m277.99,406.94c-.55,5.61-1.11,11.23-1.66,16.84-.08.83,1.22.82,1.3,0,.55-5.61,1.11-11.23,1.66-16.84.08-.83-1.22-.82-1.3,0h0Z"/>
      <path class="cls-6" d="m247.39,373.78c4.39-4.18,10.95-3.54,16.53-4.08,5.78-.56,12.16-1.77,17.28,1.76.69.48,1.34-.65.65-1.12-5.48-3.78-12.25-2.45-18.42-1.89-5.84.53-12.39.06-16.96,4.42-.61.58.31,1.49.92.92h0Z"/>
      <path class="cls-6" d="m275.04,425.68c2.81,1.5,5.6,3.02,8.38,4.57.73.41,1.39-.71.65-1.12-2.78-1.55-5.57-3.07-8.38-4.57-.74-.39-1.39.73-.65,1.12h0Z"/>
      <path class="cls-6" d="m235.45,406.65c2.97,1.28,5.93,2.58,8.88,3.92.32.15.69.09.89-.23.17-.28.09-.74-.23-.89-2.95-1.33-5.91-2.64-8.88-3.92-.32-.14-.69-.09-.89.23-.16.27-.09.75.23.89h0Z"/>
      <path class="cls-6" d="m204.03,419.9c9.88-4.6,19.75-9.2,29.63-13.81.76-.35.1-1.47-.65-1.12-9.88,4.6-19.75,9.2-29.63,13.81-.76.35-.1,1.47.65,1.12h0Z"/>
      <path class="cls-6" d="m253.89,446.55c9.15-5.21,18.13-10.73,26.91-16.55.69-.46.04-1.58-.65-1.12-8.78,5.81-17.76,11.33-26.91,16.55-.73.41-.07,1.53.65,1.12h0Z"/>
      <path class="cls-6" d="m204.37,421.22c14.79,9.27,29.59,18.55,44.38,27.82.71.44,1.36-.68.65-1.12-14.79-9.27-29.59-18.55-44.38-27.82-.71-.44-1.36.68-.65,1.12h0Z"/>
      <path class="cls-6" d="m244.87,415.59c-5.84-2.54-12.97-1.41-17.84,2.67-.64.54.28,1.45.92.92,4.38-3.67,11-4.75,16.27-2.47.76.33,1.42-.79.65-1.12h0Z"/>
      <path class="cls-6" d="m229.17,415.59c-2.21,1.58-4.52,3.7-4.62,6.61-.08,2.44,1.15,4.91,2.95,6.51s4.28,2.63,6.68,3.3c2.63.73,5.31,1.26,8.06.95,3.37-.39,6.5-1.9,8.6-4.61.51-.65-.4-1.58-.92-.92-4.21,5.41-11.38,4.85-17.19,2.76-2.52-.9-5.06-2.38-6.21-4.92-.69-1.54-.95-3.35-.19-4.91s2.13-2.68,3.49-3.65c.67-.48.03-1.61-.65-1.12h0Z"/>
      <path class="cls-6" d="m261.22,363.64c1.36-4.47,2.66-9.82-.2-14.02-1.32-1.93-3.35-3.04-5.11-4.5s-3.73-4.27-1.92-6.38c.54-.63-.37-1.55-.92-.92-1.27,1.49-1.28,3.39-.52,5.14.94,2.15,2.86,3.41,4.68,4.77,2.38,1.78,3.9,3.95,4.15,6.98s-.58,5.81-1.43,8.59c-.24.8,1.01,1.14,1.25.34h0Z"/>
      <path class="cls-6" d="m266.61,355.68c.81-8.12-8.04-13.23-7.91-21.2.07-4.2,2.53-10.41,7.07-11.54,1.86-.46,4.28.03,5.3,1.8.7,1.21.38,2.74-1.26,2.7-.99-.03-1.9-.53-2.57-1.26-1.64-1.79-1.83-4.36-.78-6.49,1.12-2.27,3.27-3.85,5.42-5.06.73-.41.07-1.53-.65-1.12-4.1,2.31-8.4,6.73-6.1,11.78.86,1.9,2.65,3.49,4.84,3.46,2.33-.03,3.32-2.22,2.44-4.23s-3.12-3.01-5.21-3.04c-2.49-.03-4.68,1.36-6.21,3.24-3.5,4.29-4.59,10.31-2.36,15.4s7.27,9.62,6.68,15.56c-.08.83,1.22.82,1.3,0h0Z"/>
    </g>
    <g>
      <g>
        <path class="cls-6" d="m36.6,314.32c18.67-.3,37.35.52,55.92,2.47.72.08.9-1.18.17-1.27-.49-.07-.98-.13-1.47-.2-.82-.11-1.17,1.14-.34,1.25.49.07.98.13,1.47.2l.17-1.27c-18.57-1.94-37.25-2.77-55.92-2.47-.83.01-.84,1.31,0,1.3h0Z"/>
        <path class="cls-6" d="m56.72,291.45c1.72-1.67,3.47-3.32,5.25-4.94.26-.24.24-.68,0-.92-.26-.26-.66-.24-.92,0-1.78,1.62-3.52,3.27-5.25,4.94-.6.58.32,1.5.92.92h0Z"/>
        <path class="cls-6" d="m36.46,313.92c4.43-5.61,9.11-11.02,14.04-16.2.58-.61-.34-1.52-.92-.92-4.93,5.18-9.61,10.59-14.04,16.2-.51.65.4,1.57.92.92h0Z"/>
        <path class="cls-6" d="m93.08,316.46c4.83-7.65,9.66-15.3,14.49-22.95.45-.71-.68-1.36-1.12-.65-4.83,7.65-9.66,15.3-14.49,22.95-.45.71.68,1.36,1.12.65h0Z"/>
        <path class="cls-6" d="m61.51,286.7c15.36.35,30.6,2.73,45.33,7.12.8.24,1.14-1.01.34-1.25-14.83-4.42-30.21-6.81-45.67-7.16-.84-.02-.84,1.28,0,1.3h0Z"/>
        <path class="cls-6" d="m28.07,295.09c4.62-3.66,11.08-4.33,16.3-1.55,2.53,1.35,4.16,3.38,6.06,5.44,1.53,1.66,3.53,3.12,5.91,2.97,2.01-.13,3.5-1.58,3.86-3.53.4-2.2-.65-4.23-2.07-5.84-3.42-3.88-8.29-6.95-13.15-8.65-2.77-.97-5.71-1.48-8.65-1.4-3.52.09-6.97.93-10.38,1.77-.81.2-.47,1.45.34,1.25,5.45-1.34,10.86-2.43,16.4-.96,4.9,1.3,9.35,4.06,13.06,7.47,1.77,1.63,3.84,3.89,3.07,6.51-.85,2.91-4.25,2.31-6.11.83s-3.2-3.69-5.11-5.23c-1.73-1.4-3.73-2.45-5.87-3.05-5.08-1.44-10.5-.19-14.6,3.07-.65.52.27,1.43.92.92h0Z"/>
        <path class="cls-6" d="m26.22,295.67c-1.06,4.17.96,8.94,4.85,10.91s8.93.87,11.67-2.48c.53-.64-.39-1.56-.92-.92-2.36,2.88-6.72,3.99-10.1,2.27s-5.17-5.8-4.25-9.44c.21-.81-1.05-1.16-1.25-.34h0Z"/>
        <path class="cls-6" d="m21.18,313.31c4.82,1.65,10.03,1.91,15,.77.81-.19.47-1.44-.34-1.25-4.75,1.08-9.7.8-14.31-.77-.79-.27-1.13.98-.34,1.25h0Z"/>
        <path class="cls-6" d="m25.16,282.13c7.27-5.45,17.69-3.94,22.97,3.52.48.68,1.6.03,1.12-.65-5.65-7.99-16.87-9.88-24.74-3.98-.66.49-.01,1.62.65,1.12h0Z"/>
        <path class="cls-6" d="m24.55,277.21c2.36-1.28,4.95-2.29,7.67-2.28,1.2,0,2.39.22,3.51.65.53.2,1.03.47,1.5.78.42.28,1.3.8,1.38,1.35l.07-.5-.08.17c-.35.75.77,1.41,1.12.65.6-1.3-1.17-2.41-2.13-2.98-1.28-.76-2.72-1.19-4.2-1.35-3.34-.37-6.61.82-9.5,2.38-.73.4-.08,1.52.65,1.12h0Z"/>
        <path class="cls-6" d="m21.64,275.54c.16-3.4,2.22-6.59,5.2-8.22.77-.42,1.66-.82,2.54-.89,1.16-.08,1.72.79,2.22,1.7.98,1.77,1.38,3.79,1.23,5.8-.06.83,1.24.83,1.3,0,.14-1.86-.17-3.72-.91-5.43-.68-1.58-1.7-3.39-3.64-3.38-1.6,0-3.28.87-4.54,1.8s-2.37,2.13-3.17,3.5c-.92,1.56-1.44,3.31-1.53,5.12-.04.83,1.26.83,1.3,0h0Z"/>
        <path class="cls-6" d="m26.03,275.58c0-.09.02-.19.03-.28.02-.14,0,.02.02-.11.03-.16.06-.33.1-.49.08-.32.18-.64.3-.95.17-.46.54-1.14.88-1.46.02-.02.15-.12.06-.06.02-.02.23-.12.11-.08.05-.02.11-.04.17-.05-.07.01-.07.02,0,.01-.06-.01-.06-.01.02,0,.15.03-.05-.04.09.03.02.01.21.14.14.08.12.09.23.21.33.32.13.15-.05-.09.06.08.05.07.1.15.14.22.03.06.06.12.09.17.03.07.04.08.01.03.02.04.03.08.05.12.05.13.08.27.11.41,0,.03.01.06.02.1,0-.06,0-.06,0,.02,0,.09,0,.17,0,.26,0,.34.3.66.65.65s.65-.29.65-.65c0-.65-.17-1.3-.51-1.86s-.88-1.13-1.54-1.26c-1.48-.3-2.34,1.41-2.78,2.54-.27.7-.42,1.43-.48,2.17-.03.34.32.66.65.65.38-.02.62-.29.65-.65h0Z"/>
        <path class="cls-6" d="m19.53,276.06c-3.46,2.43-5.3,6.27-7.8,9.57-2.77,3.65-6.22,6.75-10.12,9.16-.71.44-.06,1.56.65,1.12,3.77-2.33,7.14-5.27,9.9-8.74s4.47-7.5,8.01-9.98c.68-.48.03-1.6-.65-1.12h0Z"/>
        <path class="cls-6" d="m21.68,312.13c-2.71-1.77-5.77-2.87-9.02-2.96-1.61-.04-3.21.21-4.81.41-2.4.31-4.81.51-7.23.62-.83.04-.84,1.34,0,1.3,2.22-.11,4.44-.28,6.65-.55,1.67-.2,3.35-.49,5.04-.49,3.14,0,6.1,1.08,8.71,2.79.7.46,1.35-.66.65-1.12h0Z"/>
        <path class="cls-6" d="m55.09,291.18c-1.75.21-2.92,1.92-2.75,3.63s1.47,3.29,3.23,3.57c1.01.16,2.06-.03,2.92-.61.29-.2.42-.57.23-.89-.17-.29-.6-.43-.89-.23-1.33.9-3.12.51-3.89-.91-.35-.65-.42-1.38-.18-2.05.11-.3.3-.59.54-.82.22-.21.53-.37.78-.4.35-.04.65-.27.65-.65,0-.32-.3-.69-.65-.65h0Z"/>
        <path class="cls-6" d="m72.96,294.78c-3.19,1.43-5.92,4.63-5.35,8.32.61,3.99,4.4,6.44,8.19,6.7,4.09.28,8.69-1.58,11.37-4.71,1.21-1.42,2.02-3.2,1.69-5.1s-1.69-3.49-3.34-4.43c-4.17-2.4-9.73-1.93-13.96.04-.76.35-.1,1.47.65,1.12,3.25-1.51,7.03-1.9,10.49-.92,1.71.48,3.39,1.38,4.32,2.96s.7,3.3-.29,4.78c-3.52,5.22-14.68,7.77-17.52.55-1.4-3.54,1.3-6.8,4.4-8.19.76-.34.1-1.46-.65-1.12h0Z"/>
      </g>
      <g>
        <g>
          <path class="cls-6" d="m117.93,320.56c3.03.43,6.51,1.08,7.65,4.34.58,1.68.84,3.44,1.5,5.11s1.46,3.11,2.45,4.52c.5.7,1.12,1.42,1.36,2.26.3,1.07-.37,1.85-1.25,2.34-1.46.8-3.25.64-4.74.03-3.22-1.31-4.91-4.65-6.42-7.56-.38-.74-1.5-.09-1.12.65,1.38,2.66,2.87,5.47,5.4,7.22,2.25,1.55,5.52,2.16,7.91.55,1.07-.73,1.79-1.86,1.57-3.19-.26-1.57-1.53-2.8-2.34-4.11-.94-1.51-1.67-3.14-2.18-4.84-.46-1.55-.65-3.22-1.45-4.65-1.59-2.82-5.04-3.5-7.98-3.92-.82-.12-1.17,1.13-.34,1.25h0Z"/>
          <path class="cls-6" d="m120.62,337.17c-2.15-.41-4,.61-5.86,1.56-2.12,1.08-4.23,2.18-6.26,3.42-3.59,2.2-6.91,4.86-10.74,6.64-1.08.5-2.21.94-3.36,1.23-1.36.34-2.35.2-3.56-.53-1.88-1.13-3.85-1.74-5.81-2.68-1.04-.5-2.06-1.17-2.69-2.16-.74-1.15-.72-2.63.83-2.9,2.47-.42,4.98.17,7.1,1.47.71.44,1.37-.68.65-1.12-1.6-.98-3.36-1.58-5.23-1.73-1.36-.11-3.79-.21-4.73,1.03-.85,1.12-.44,2.82.25,3.91.91,1.43,2.38,2.32,3.9,2.95.97.41,1.97.73,2.93,1.15,1.01.45,1.87,1.12,2.86,1.61,1.73.87,3.49.43,5.24-.18,3.71-1.3,6.94-3.57,10.18-5.74,2.06-1.38,4.16-2.66,6.35-3.83,1.12-.6,2.25-1.17,3.38-1.75,1.32-.67,2.7-1.39,4.22-1.1.82.15,1.17-1.1.34-1.25h0Z"/>
          <path class="cls-6" d="m90.17,343.45c.39.11.78.23,1.16.38.05.02.1.04.16.06.01,0,.19.08.05.02.09.04.17.07.25.11.19.09.39.18.58.28.18.09.35.2.53.29.34.18.77.17,1.02-.16.28-.36.13-.88-.29-1.06s-.97.11-.95.61c.01.34.29.66.65.65s.66-.29.65-.65v-.02c-.06.15-.13.31-.19.46h.01c-.15.05-.31.12-.46.18l-.39-.15-.17-.29v.02c.03-.17.05-.33.07-.5v.02c.07-.08.15-.16.22-.23.48.08.64.07.46-.02-.03-.02-.06-.04-.1-.06-.06-.04-.13-.07-.19-.11-.11-.06-.23-.12-.34-.18-.24-.12-.48-.24-.73-.34-.54-.23-1.09-.43-1.66-.58-.33-.09-.72.11-.8.45s.1.7.45.8h0Z"/>
          <path class="cls-6" d="m91.4,343.45c1.98-.63,3.36-2.14,5.08-3.23.8-.51,1.69-.9,2.65-.9.79,0,1.88.78,2.51.02.53-.64-.38-1.56-.92-.92.09-.11.11,0-.03-.09-.08-.05-.19-.07-.27-.1-.21-.07-.42-.12-.63-.15-.47-.07-.93-.06-1.41,0-.92.14-1.78.52-2.56,1.01-1.6,1.01-2.92,2.51-4.77,3.1-.79.25-.45,1.5.34,1.25h0Z"/>
          <path class="cls-6" d="m81.48,344.32c-1.8-.77-3.37-1.91-4.8-3.22-.72-.66-1.5-1.35-2.07-2.15-.65-.91-.72-1.91-.48-2.98.11-.52.25-1.06.44-1.56.17-.47.45-.67.94-.78.89-.21,1.84,0,2.64.43,1.78.94,2.8,2.79,3.76,4.48.41.73,1.53.07,1.12-.65-.9-1.6-1.86-3.25-3.35-4.39-1.37-1.04-3.27-1.63-4.94-.99-.87.34-1.25.98-1.51,1.84-.29.95-.58,1.95-.53,2.96.1,1.96,1.57,3.32,2.92,4.58,1.55,1.44,3.26,2.73,5.21,3.56.76.32,1.42-.79.65-1.12h0Z"/>
          <path class="cls-6" d="m81.46,337.8c1.66,1.38,3.82,1.04,5.71.39,1.73-.6,4.21-1.65,5.67.04.55.63,1.46-.29.92-.92-1.35-1.56-3.61-1.46-5.41-.9s-4.27,1.89-5.98.47c-.64-.53-1.56.38-.92.92h0Z"/>
          <path class="cls-6" d="m91.83,337.22c.99-.44,1.83-1.24,2.34-2.19.16-.3.08-.72-.23-.89s-.72-.09-.89.23c-.12.21-.25.41-.39.61l.1-.13c-.24.3-.51.58-.81.81l.13-.1c-.28.21-.58.39-.9.54-.14.06-.26.25-.3.39-.04.16-.02.36.07.5s.22.26.39.3c.18.04.33,0,.5-.07h0Z"/>
          <path class="cls-6" d="m74.17,333.1c-.99-.8-2.95-2.39-1.92-3.86.41-.58,1.21-.77,1.86-.89,1.01-.18,1.84-.06,2.66.58,1.46,1.13,2.76,2.52,4.11,3.78,1.13,1.05,2.43,2.54,4.14,2.31.82-.11.83-1.41,0-1.3-1.14.15-1.98-.77-2.74-1.49-.83-.77-1.66-1.55-2.49-2.32-1.43-1.33-2.85-3.06-5-2.95-1.62.08-3.63.69-4.01,2.5-.41,1.96,1.1,3.44,2.48,4.55.64.52,1.57-.39.92-.92h0Z"/>
          <path class="cls-6" d="m83.45,334.14c2.68-.03,5.43-.09,7.99-.99.78-.28.45-1.53-.34-1.25-2.46.87-5.07.91-7.64.95-.83.01-.84,1.31,0,1.3h0Z"/>
          <path class="cls-6" d="m89.17,331.21c-2.37-.2-4.58-1.11-6.65-2.24s-4.17-2.41-6.07-3.82c-.6-.44-2.56-1.93-1.33-2.7.77-.48,2.16.01,2.92.28,1.94.69,3.55,2.09,4.56,3.88.41.73,1.53.07,1.12-.65-.97-1.73-2.47-3.16-4.26-4.03-1.42-.68-3.78-1.53-5.21-.44-.74.56-.92,1.54-.64,2.4.35,1.05,1.33,1.76,2.19,2.39,1.91,1.41,3.99,2.69,6.07,3.82,2.28,1.25,4.7,2.2,7.31,2.41.83.07.83-1.23,0-1.3h0Z"/>
          <path class="cls-6" d="m82.46,325.8l4.78.2c.69.03,1.39.01,2.02.34s1.18.63,1.91.49c.82-.15.47-1.4-.34-1.25-.25.04-.52-.15-.73-.27-.3-.16-.6-.32-.92-.41-.67-.2-1.41-.18-2.1-.21l-4.62-.2c-.84-.04-.83,1.26,0,1.3h0Z"/>
          <path class="cls-6" d="m90.83,326.17c4.5-1.78,9.04-3.46,13.62-5.04,2.17-.75,4.49-1.81,6.8-1.97s4.82.52,7.13.88c.82.13,1.17-1.12.34-1.25-2.29-.36-4.68-.96-7-.94s-4.55.97-6.71,1.71c-4.89,1.67-9.73,3.46-14.54,5.36-.77.3-.43,1.56.34,1.25h0Z"/>
          <path class="cls-6" d="m119.98,328.55l1.83-1.05c.29-.17.42-.59.23-.89s-.57-.41-.89-.23l-1.83,1.05c-.29.17-.42.59-.23.89s.57.41.89.23h0Z"/>
        </g>
        <path class="cls-6" d="m110.63,319.3c1.06-.06,1.72-.79,2.31-1.6.83-1.15,1.65-2.31,2.48-3.47,1.63-2.28,3.26-4.56,4.88-6.85.49-.68-.64-1.33-1.12-.65-1.45,2.03-2.9,4.06-4.35,6.1-.71,1-1.43,2-2.14,3-.34.47-.66.96-1.02,1.42-.26.33-.59.74-1.04.76-.83.04-.84,1.34,0,1.3h0Z"/>
        <path class="cls-6" d="m127.54,322.4c3.31-4.37,7.17-8.33,11.43-11.78.65-.53-.27-1.44-.92-.92-4.35,3.53-8.25,7.58-11.63,12.04-.5.67.62,1.31,1.12.65h0Z"/>
      </g>
    </g>
    <g>
      <path class="cls-6" d="m295.27,151.97c17.36-4.81,34.91-9.69,52.97-10.85,12.67-.81,25.53,1.1,37.57,5.04,7.34,2.4,14.39,5.65,21.14,9.41,6.33,3.52,12.16,7.83,17.02,13.24,7.58,8.44,12.59,19.11,14.74,30.22,2.63,13.57.72,27.86-5.15,40.35-.37.79-.76,1.57-1.16,2.34s.74,1.4,1.12.65c5.81-11.22,8.49-24.05,7.42-36.66-1.01-11.87-5.24-23.66-12.34-33.27-8.72-11.8-21.56-19.26-34.92-24.76s-27.51-8.31-41.75-8.02c-17.05.35-33.91,4.73-50.27,9.19-2.24.61-4.49,1.23-6.73,1.85-.8.22-.46,1.47.34,1.25h0Z"/>
      <path class="cls-6" d="m426.75,232.47c.1,6.07-.57,12.1-2,18-.11.47.31.94.8.8,6.52-1.85,12.75-4.58,18.53-8.11.71-.43.06-1.56-.65-1.12-5.69,3.48-11.81,6.16-18.22,7.98l.8.8c1.45-6,2.14-12.17,2.04-18.35-.01-.83-1.31-.84-1.3,0h0Z"/>
    </g>
    <g>
      <path class="cls-6" d="m361.86,280.92c-10.51,5.61-21.93,9.52-33.7,11.41-13.76,2.22-27.94,1.32-41.58-1.32-13.1-2.53-25.91-7.69-35.38-17.37-11.06-11.3-15.82-26.84-15.25-42.43.36-9.62,2.43-19.4,6.11-28.31.12-.28.21-.5.34-.8.34-.76-.78-1.42-1.12-.65-3.46,7.78-5.44,16.39-6.29,24.83-1.54,15.35,1.61,31.13,11.16,43.52,8.67,11.26,21.43,17.99,35.04,21.35,5.5,1.36,11.11,2.2,16.73,2.82,7.94.88,15.86,1.24,23.84.47,13.26-1.27,26.24-5.1,38.14-11.06.88-.44,1.75-.89,2.61-1.35.74-.39.08-1.51-.65-1.12h0Z"/>
      <path class="cls-6" d="m230.59,205.56c6.15-6.33,12.93-12.01,20.25-16.94l-.98-.56c-1.2,8.95-3.16,17.79-5.84,26.41-.25.8,1,1.14,1.25.34,2.72-8.74,4.68-17.69,5.89-26.76.06-.49-.6-.81-.98-.56-7.41,4.99-14.29,10.73-20.51,17.15-.58.6.33,1.52.92.92h0Z"/>
    </g>
    <g>
      <path class="cls-6" d="m528.89,53.42c6.52-4.57,13.05-9.11,19.62-13.62,4.44-3.05,8.92-5.96,13.69-8.47,4.39-2.31,8.92-4.33,13.56-6.1.84-.32.48-1.69-.38-1.37-7.23,2.76-14.23,6.12-20.81,10.2-5.33,3.3-10.41,7.01-15.56,10.58-3.62,2.51-7.23,5.02-10.83,7.55-.74.52-.03,1.75.72,1.22h0Z"/>
      <path class="cls-6" d="m574.69,25.31c.25.76.29,1.62.4,2.41.25,1.82.48,3.64.71,5.46.73,5.78,1.42,11.57,2.12,17.35,1.73,14.24,3.45,28.48,5.48,42.68.78,5.44,1.51,10.93,2.7,16.3.2.89,1.56.51,1.37-.38-1.04-4.67-1.71-9.43-2.4-14.17-1-6.84-1.9-13.69-2.77-20.54-1.7-13.32-3.27-26.66-4.93-39.99-.27-2.2-.55-4.41-.85-6.61-.13-.94-.17-1.98-.47-2.89s-1.65-.49-1.37.38h0Z"/>
      <path class="cls-6" d="m586.98,108.84c-11.48-3.03-23.41-4.13-35.25-4.12-4.56,0-9.12.19-13.67.54-.9.07-.91,1.49,0,1.42,13.47-1.03,27.17-.72,40.47,1.72,2.71.5,5.4,1.11,8.07,1.81.88.23,1.26-1.13.38-1.37h0Z"/>
      <path class="cls-6" d="m529.69,106.3c-.62-.86-1.41-1.62-1.98-2.51-.72-1.13-1.04-2.49-1.54-3.73-.82-2.05-1.45-4.08-.8-6.29.88-2.96,4.08-4.93,6.67-6.26.39-.2.79-.39,1.2-.57.1-.05.21-.09.31-.14,0,0-.16.06.12-.04,1.25-.46,2.54-.79,3.85-1,1.09-.18,2.19-.27,3.3-.28,1.04-.01,2.5-.13,3.45.39.52.28.98.95.7,1.58-.23.52-.77.56-1.26.57s-.95-.07-1.42-.08c-3.66-.07-7.4,1.48-10.71,2.83-.83.34-.47,1.71.38,1.37,3.34-1.36,7.18-3,10.88-2.75,1.66.11,3.6-.23,3.61-2.31.01-2.54-2.67-2.94-4.65-3-3.16-.1-6.48.39-9.38,1.7s-6.11,3.25-7.76,6.12c-1.21,2.1-1.23,4.66-.48,6.93.5,1.51,1.08,3.07,1.7,4.53s1.68,2.44,2.57,3.68c.53.73,1.76.02,1.22-.72h0Z"/>
      <path class="cls-6" d="m543.22,89.33c.39.6,1.69,2.48.44,2.81-.56.15-1.17.12-1.74.14-.78.03-1.55.07-2.32.19-2.64.4-4.99,1.76-7.01,3.46-.7.59.31,1.58,1,1,1.28-1.07,2.71-2,4.29-2.56,1.25-.45,2.53-.62,3.86-.66,1.12-.04,2.61.08,3.42-.87,1.06-1.25.02-3.1-.71-4.23-.5-.76-1.72-.05-1.22.72h0Z"/>
      <path class="cls-6" d="m540.67,93.77c.78-.04,1.59.04,2.28.45.38.23.76.59.65,1.07-.14.59-.73,1.11-1.2,1.45s-.98.52-1.58.57c-1.26.11-2.36.54-3.35,1.32-1.12.88-2.31,1.62-3.58,2.27-.81.41-.1,1.63.72,1.22,1.24-.63,2.42-1.35,3.51-2.21.71-.56,1.5-1.06,2.48-1.16.56-.06,1.1-.08,1.63-.3.6-.24,1.13-.62,1.6-1.06.93-.86,1.64-2.2.89-3.41-.82-1.32-2.59-1.72-4.04-1.63-.91.05-.91,1.47,0,1.42h0Z"/>
      <path class="cls-6" d="m540.04,98.85c.66-.11,1.77-.02,1.81.85.03.57-.34,1.18-.66,1.63s-.76.7-1.22,1c-.73.47-1.45,1-2.05,1.64-1.09,1.17-2.28,2.46-3.78,3.1s-3.27.09-4.55-.91c-.71-.56-1.72.44-1,1,1.23.97,2.72,1.7,4.32,1.62,1.92-.1,3.45-1.33,4.83-2.56.5-.45.91-.98,1.39-1.46.62-.61,1.35-1.06,2.07-1.53.99-.65,1.78-1.75,2.01-2.93.42-2.2-1.69-3.11-3.54-2.81-.9.15-.52,1.51.38,1.37h0Z"/>
      <path class="cls-6" d="m527.67,53.35c1.76,10.71,4.09,21.32,6.99,31.78.24.88,1.61.5,1.37-.38-2.89-10.46-5.23-21.07-6.99-31.78-.15-.9-1.51-.52-1.37.38h0Z"/>
      <path class="cls-6" d="m546.81,51.65c-2.13,1.77-3.82,4.1-4.84,6.67-1.17,2.94-1.78,6.75-.89,9.83s3.61,5.92,6.36,7.68,6.37,2.37,9.6,2.01c11.66-1.29,17.29-18.66,8.5-26.52-2.92-2.61-6.93-3.96-10.84-3.43-2.99.41-5.6,1.86-7.9,3.75-.7.58.3,1.58,1,1,4.41-3.62,10.21-4.69,15.22-1.47,4.69,3.01,6.1,8.6,4.97,13.83-1.02,4.71-4.09,9.53-8.91,11-6.05,1.84-12.85-1.05-15.91-6.53-1.7-3.04-1.16-7.14-.02-10.3.92-2.54,2.59-4.81,4.66-6.53.7-.58-.3-1.58-1-1Z"/>
      <path class="cls-6" d="m554.05,60.41c.19-.07,2.46-.86,3.76.33.15.13.45.42.57.87.32,1.23-.95,2.61-2.15,3.06-1.51.57-3.51.15-3.67-1.61-.07-.72-.12-1.78.55-2.28.17-.12.33-.18.46-.22"/>
      <path class="cls-6" d="m549.35,4.27c-.01,5.26-.63,10.57.24,15.8.13.76,1.28.44,1.16-.32-.85-5.11-.21-10.34-.2-15.48,0-.77-1.2-.77-1.2,0h0Z"/>
      <path class="cls-6" d="m550.39,28.9c1.67,0,1.67-2.6,0-2.6s-1.67,2.6,0,2.6h0Z"/>
    </g>
    <g>
      <path class="cls-6" d="m513.24,255.84c.18,4.32-1.64,8.61-3.12,12.59-1.77,4.76-3.73,9.39-5.74,14.05s-4.23,9.08-5.43,13.83c-1.27,5.02-.57,10.32-.49,15.44s.22,9.71.37,14.57c.12,4.07.25,8.36,1.56,12.25.91,2.7,2.8,6.77,6.11,6.92,1.61.07,2.93-.9,3.64-2.31.78-1.56.46-3.19.39-4.88-.51-12.05-.67-24.12-.51-36.18.01-.84-1.29-.84-1.3,0-.13,10.01-.04,20.02.28,30.03.08,2.44.17,4.88.28,7.32.07,1.58.26,3.35-1.31,4.35-3.53,2.25-6.12-4.58-6.72-6.95-1-3.92-1.06-8.04-1.16-12.06-.12-4.6-.26-9.2-.34-13.8-.08-4.92-.74-9.99.57-14.8s3.46-9.12,5.38-13.52c2.04-4.67,3.98-9.33,5.75-14.1,1.5-4.04,3.29-8.37,3.1-12.76-.04-.83-1.33-.84-1.3,0h0Z"/>
      <path class="cls-6" d="m544.56,256.69c0,2.66-.14,5.32-.31,7.97-.15,2.39-.72,4.76-.78,7.14-.09,3.66,2.23,6.28,3.58,9.49s2.31,6.83,2.45,10.29c.16,3.81-.68,7.64-1.75,11.28-.63,2.17-1.46,4.62-2.3,6.55-.33.76.79,1.42,1.12.65,2.19-5.04,3.85-10.62,4.19-16.12.25-3.94-.64-7.91-1.94-11.61-.32-.92-.69-1.82-1.12-2.7-.92-1.87-2.27-3.63-2.74-5.69-.61-2.67.31-5.4.49-8.08.21-3.06.39-6.12.39-9.18,0-.84-1.3-.84-1.3,0h0Z"/>
      <path class="cls-6" d="m509.28,342.17c.51,2.76,1.11,5.58,2.09,8.22.43,1.16.93,2.29,2.13,2.79,1.78.75,4.09.21,5.28-1.32,1.04-1.35,1.24-3.2,1.36-4.84.55-7.37-.35-14.72-.58-22.08-.17-5.53-.34-11.06-.5-16.59-.02-.83-1.32-.84-1.3,0,.19,6.55.19,13.15.61,19.69.26,4.08.58,8.13.6,12.22.01,2.4.07,4.83-.16,7.23-.14,1.46-.37,3.36-1.73,4.22-.93.59-2.55.81-3.47.07-.51-.41-.76-1.15-.97-1.73-.98-2.64-1.58-5.46-2.09-8.22-.15-.82-1.4-.47-1.25.34h0Z"/>
      <path class="cls-6" d="m530.18,322.39c-.22,5.04-.27,10.08-.14,15.13.12,4.59.82,9.52-.06,14.06-.16.82,1.09,1.17,1.25.34.88-4.52.25-9.36.12-13.93-.15-5.2-.09-10.41.13-15.61.04-.84-1.26-.83-1.3,0h0Z"/>
      <path class="cls-6" d="m523.75,353.81c-1.67-2.23-2.49-4.92-2.91-7.64-.49-3.14-.7-6.31-.69-9.49,0-.84-1.29-.84-1.3,0-.01,3.29.23,6.58.73,9.83.44,2.81,1.32,5.64,3.04,7.95.49.66,1.62.01,1.12-.65h0Z"/>
      <path class="cls-6" d="m529.85,311.48c.18,6.51.38,13.02.69,19.52.18,3.75.19,7.48.71,11.21.37,2.66.74,6.07,2.87,7.96.62.55,1.54-.36.92-.92-1.81-1.61-2.12-4.59-2.46-6.86-.41-2.76-.59-5.57-.68-8.36-.08-2.45-.18-4.9-.28-7.35-.2-5.07-.33-10.14-.47-15.21-.02-.83-1.32-.84-1.3,0h0Z"/>
      <path class="cls-6" d="m542.26,344.61c.51-3.79.61-7.67.49-11.49-.1-3.18-.65-6.32-.89-9.49-.48-6.38-.69-12.79-.86-19.18-.04-1.57.23-3.08.45-4.63.37-2.62.75-5.24,1.12-7.86.12-.82-1.13-1.17-1.25-.34-.33,2.3-.66,4.6-.99,6.91-.24,1.64-.64,3.36-.66,5.02-.03,2.43.14,4.87.22,7.29.13,3.52.28,7.04.51,10.56.21,3.23.65,6.43.92,9.65.37,4.34.25,8.92-.33,13.24-.11.82,1.14,1.17,1.25.34h0Z"/>
      <path class="cls-6" d="m497.75,352.47c1.1-5.18,2.24-10.36,3.42-15.52.19-.81-1.06-1.16-1.25-.34-1.18,5.16-2.32,10.34-3.42,15.52-.17.81,1.08,1.16,1.25.34h0Z"/>
      <path class="cls-6" d="m541.01,310.21c3.16-.11,6.28.27,9.31,1.17l-.48-.63c-.05,1.38-.39,2.78-.66,4.13-.5,2.49-1.07,4.97-1.65,7.45-1.61,6.87-3.33,13.71-5.09,20.55-.21.81,1.04,1.15,1.25.34,1.79-6.96,3.55-13.93,5.18-20.92.57-2.44,1.12-4.88,1.61-7.33.27-1.38.61-2.8.65-4.22,0-.29-.21-.55-.48-.63-3.13-.94-6.39-1.33-9.65-1.22-.83.03-.84,1.33,0,1.3h0Z"/>
      <path class="cls-6" d="m550.58,323.32c-.06,8.7-4.11,16.19-10.66,21.78-7.39,6.31-17.11,9.81-26.85,9.25-5.34-.3-10.54-1.69-15.77-2.68l.48.63c.47-14.12.97-28.23,1.94-42.33.06-.83-1.24-.83-1.3,0-.98,14.1-1.47,28.2-1.94,42.33,0,.26.21.57.48.63,4.85.91,9.66,2.15,14.59,2.61s10.12-.12,14.99-1.59c8.8-2.67,17.23-8.7,21.79-16.8,2.38-4.23,3.52-8.98,3.55-13.82,0-.84-1.29-.84-1.3,0h0Z"/>
      <path class="cls-6" d="m549.07,323.59h14.21c.84,0,.84-1.3,0-1.3h-14.21c-.84,0-.84,1.3,0,1.3h0Z"/>
      <path class="cls-6" d="m548.48,307.17h17.65c.84,0,.84-1.3,0-1.3h-17.65c-.84,0-.84,1.3,0,1.3h0Z"/>
      <path class="cls-6" d="m496.92,356.54c5.44,1.11,10.92,2.2,16.48,2.51s10.94-.33,16.19-2.13c8.54-2.93,18.48-6.66,22.37-15.51,1.15-2.62,1.88-5.41,2.63-8.17.81-2.99,1.51-6.01,1.64-9.12.03-.84-1.26-.83-1.3,0-.11,2.75-.7,5.43-1.4,8.08-.63,2.38-1.26,4.78-2.11,7.09-1.63,4.46-4.52,7.84-8.54,10.34s-8.11,4.03-12.31,5.57c-5.03,1.84-10.14,2.76-15.51,2.62-6.01-.15-11.92-1.34-17.79-2.54-.82-.17-1.16,1.08-.34,1.25h0Z"/>
      <path class="cls-6" d="m496.18,351.94v19.14c0,.84,1.3.84,1.3,0v-19.14c0-.84-1.3-.84-1.3,0h0Z"/>
    </g>
    <text class="cls-5" transform="translate(69.09 175.47)"><tspan x="0" y="0">1</tspan><tspan class="cls-1" x="5.87" y="0">.</tspan><tspan x="9.03" y="0" xml:space="preserve"> Pak</tspan></text>
    <text class="cls-5" transform="translate(281.07 118.17)"><tspan x="0" y="0">2</tspan><tspan class="cls-1" x="7.56" y="0">.</tspan><tspan x="10.72" y="0" xml:space="preserve"> Kijk</tspan></text>
    <text class="cls-7" transform="translate(270.2 222.82)"><tspan x="0" y="0">The Circle of Kijken</tspan></text>
    <text class="cls-5" transform="translate(538.06 137.72)"><tspan x="0" y="0">3</tspan><tspan class="cls-2" x="7.91" y="0">.</tspan><tspan x="11.08" y="0" xml:space="preserve"> Zie</tspan></text>
    <text class="cls-5" transform="translate(498.86 399.51)"><tspan class="cls-8" x="0" y="0">4</tspan><tspan class="cls-1" x="7.97" y="0">.</tspan><tspan x="11.13" y="0" xml:space="preserve"> Neem mee</tspan></text>
    <text class="cls-5" transform="translate(218.52 470.73)"><tspan class="cls-4" x="0" y="0">5</tspan><tspan class="cls-1" x="7.46" y="0">.</tspan><tspan x="10.62" y="0" xml:space="preserve"> Bewaar</tspan></text>
    <text class="cls-5" transform="translate(31.52 378.93)"><tspan class="cls-3" x="0" y="0">6</tspan><tspan class="cls-2" x="7.56" y="0">.</tspan><tspan x="10.73" y="0" xml:space="preserve"> Geef door</tspan></text>
  </g>
</svg>