<?xml version="1.0" encoding="UTF-8"?><svg id="Layer_2" xmlns="http://www.w3.org/2000/svg" viewBox="0 0 957.26 674.3"><g id="Layer_1-2"><path d="m19.26,283.08c2.98,99.94,5.97,199.87,8.95,299.81.84,28.08,1.25,56.22,3.66,84.22.82,9.55,15.83,9.63,15,0-2.15-25.03-2.64-50.16-3.39-75.25-.73-24.57-1.47-49.14-2.2-73.71-1.5-50.13-2.99-100.27-4.49-150.4l-2.53-84.66c-.29-9.63-15.29-9.67-15,0h0Z"/><path d="m9.37,295.46c80.78-17.9,163.63-25.73,246.34-23.23,10.14.31,20.32.6,30.44,1.4,3.46.28,7.42.77,9.99,3.34s3.46,6.42,4.16,9.86c1.89,9.36,2.28,19.16,3.28,28.64,1.12,10.56,2.24,21.11,3.36,31.67,4.49,42.22,8.97,84.45,13.46,126.67,5.08,47.83,10.16,95.66,15.25,143.49l5.51-7.23c-76.64,11.39-153.28,22.79-229.92,34.18-21.62,3.21-43.23,6.43-64.85,9.64-4,.59-6.24,5.66-5.24,9.23,1.2,4.29,5.19,5.84,9.23,5.24,76.64-11.39,153.28-22.79,229.92-34.18,21.62-3.21,43.23-6.43,64.85-9.64,2.94-.44,5.82-4.28,5.51-7.23-9.39-88.41-18.78-176.81-28.18-265.22-2.25-21.2-4.04-42.52-6.83-63.66-1.1-8.35-3.31-17.2-9.91-23-7.68-6.76-18.17-6.78-27.83-7.29-42.75-2.25-85.64-1.74-128.33,1.49-48.49,3.67-96.72,10.83-144.19,21.35-9.42,2.09-5.43,16.55,3.99,14.46h0Z"/><path d="m148.06,348.54c-17.78-6.47-30.96,12.34-38.25,25.59-8.5,15.43-15.6,33.28-14.47,51.23,2.32,36.88,38.17,57.63,72.01,59.43,34.09,1.81,68-17.01,81.26-49.07,7.36-17.8,5.77-36.38-4.86-52.47-9.08-13.74-21.9-25.26-36.71-32.52-33.32-16.34-75.89-10.08-99.7,19.68-2.55,3.19-3.05,7.48,0,10.61,2.59,2.65,8.08,3.16,10.61,0,16.37-20.45,43.78-28.93,68.98-22.02,12.65,3.47,24.23,10.34,33.58,19.51s18.43,21.99,17.9,36.17c-1.02,27.47-26.82,48.76-52.06,53.88s-59.55-3.59-72.06-28.33c-7.36-14.55-3.63-31.91,2.42-46.21,3.14-7.42,7-14.87,11.57-21.52,3.44-5.01,9.11-11.92,15.81-9.48,9.09,3.31,13-11.18,3.99-14.46h0Z"/><path d="m479.04,272.92c78.34-15.15,158.25-21.27,237.99-18.45l-7.5-7.5c6.86,84.01,11.79,168.18,14.74,252.42.74,21.14,1.36,42.29,1.85,63.44.25,10.57.46,21.15.65,31.73.18,10.04,1.07,20.41.37,30.43-.57,8.12-9.17,7.01-15.48,7.22-10.58.36-21.16.68-31.74.95-21.16.54-42.33.88-63.5,1.03-47.63.34-95.26-.32-142.86-1.93l7.5,7.5c-5.2-95.45-10.41-190.9-15.61-286.36-1.47-26.94-2.94-53.88-4.41-80.82l-7.5,7.5c3.78-.07,6.35,2.06,7.22,5.72,2.22,9.39,16.69,5.41,14.46-3.99-2.35-9.95-11.5-16.91-21.68-16.74-3.89.07-7.72,3.38-7.5,7.5,5.2,95.45,10.41,190.9,15.61,286.36,1.47,26.94,2.94,53.88,4.41,80.82.23,4.15,3.26,7.36,7.5,7.5,43.64,1.47,87.3,2.15,130.96,1.99,21.83-.08,43.66-.36,65.48-.85,11.24-.25,22.48-.56,33.72-.92,8.75-.28,18.64.48,26.81-3.2,8.78-3.95,11.58-12.46,11.66-21.49.09-10.72-.29-21.47-.49-32.19-.4-21.81-.93-43.62-1.59-65.43-1.32-43.61-3.17-87.21-5.54-130.78-2.68-49.18-6.03-98.32-10.04-147.41-.34-4.15-3.17-7.35-7.5-7.5-81.07-2.86-162.33,3.59-241.98,18.99-9.47,1.83-5.46,16.29,3.99,14.46h0Z"/><path d="m572.29,335.99c-15.28-10.01-29.71,11.63-37.02,22.14-9.35,13.45-15.5,30.08-9.85,46.3s18.27,28.01,31.01,37.82c12.29,9.46,26.51,15.31,42.16,15.41,29.4.18,56.75-18.5,65.1-47.01,8.83-30.17-4.01-62.67-31.26-78.31-34.19-19.64-75.13-10.14-106.92,9.54-8.19,5.07-.67,18.05,7.57,12.95,22.92-14.2,50.59-23.38,77.39-15.62,23.62,6.84,40.82,26.32,40.99,51.4.15,23.42-14.55,43.38-37.09,49.84-10.3,2.95-21.24,2.98-31.45-.35-12.52-4.09-23.14-13.58-31.97-23.04-9.89-10.61-15.91-23.03-10.52-37.41,2.6-6.95,7.06-13.3,11.59-19.12,2-2.57,9.71-13.54,12.69-11.59,8.1,5.3,15.62-7.68,7.57-12.95h0Z"/><path d="m316.36,336.94c14.07-22.21,39.98-35.84,66.28-34.58s49.65,17.27,61.69,39.93c4.53,8.53,17.49.96,12.95-7.57-14.56-27.39-43.65-45.88-74.65-47.36s-62.44,15.51-79.23,42.01c-5.18,8.18,7.79,15.71,12.95,7.57h0Z"/><path d="m23.73,295.12c40.98-47.23,81.95-94.46,122.93-141.69,20.49-23.62,40.98-47.23,61.47-70.85,9.78-11.27,19.29-22.89,29.53-33.74,7.94-8.41,17.12-16.65,28.72-19.25,20.59-4.62,44.23,12.5,45.97,33.56.79,9.55,15.8,9.64,15,0-1.92-23.19-19.97-42.68-42.55-47.84-27.56-6.3-48.41,11.95-65.31,31.34-44.05,50.56-87.89,101.3-131.83,151.95-24.85,28.64-49.7,57.28-74.54,85.92-6.3,7.26,4.27,17.91,10.61,10.61h0Z"/><path d="m725.89,256.17c31.21-41.4,61.35-83.61,90.33-126.6,14.31-21.23,28.34-42.65,42.08-64.25,6.39-10.04,12.41-20.4,19.22-30.17,5.74-8.23,12.96-16.05,22.89-18.9,10.81-3.11,23.19-.69,31.4,7.21,3.62,3.48,6.49,7.74,8.26,12.46.94,2.52,1.67,5.24,1.96,7.92.11.96.15,1.94.17,2.9.02.97,0,1.94-.06,2.91-.21,1.67.67,1.09,2.65-1.73h3.99l-.61-.19,4.48,3.45-.31-.5,1.02,3.79-2.97,4.51h-7.57l.46.31c7.99,5.46,15.5-7.53,7.57-12.95-5.87-4.01-12.61,1.53-12.52,7.8.11,7.75,9.17,10.84,14.71,6.06,4.68-4.04,4.5-11.46,3.9-17.08-.71-6.67-2.64-13.06-5.88-18.95-13.15-23.91-45.92-31.77-68.33-15.86-11.13,7.9-18.48,19.37-25.61,30.76-8.66,13.83-17.43,27.6-26.32,41.29-17.43,26.84-35.3,53.4-53.6,79.65-20.87,29.93-42.3,59.46-64.27,88.59-2.46,3.26-.49,8.35,2.69,10.26,3.82,2.29,7.84.53,10.26-2.69h0Z"/></g></svg>