<?xml version="1.0" encoding="UTF-8"?><svg id="Layer_2" xmlns="http://www.w3.org/2000/svg" viewBox="0 0 924.11 1957.15"><g id="Layer_1-2"><path d="m474.04,21.06c-51.47,5.13-101.56,20.56-146.74,45.81-38.96,21.77-76.82,53.63-91.89,97.02-7.02,20.21-7.58,42.73-.65,63.05,6.21,18.21,17.77,34.11,32.19,46.73,31.32,27.4,72.5,40.96,113.08,46.8,93.92,13.52,191.95-6.52,273.07-55.8,20.1-12.21,39.47-26.17,56.83-42.07,18.06-16.55,33.84-36.27,42.04-59.61,7.97-22.7,8.16-48.55-2.89-70.26s-30.9-35.71-51.04-47.07C613.94-1.76,510.17-12.65,417.75,14.89c-11.13,3.32-22.07,7.22-32.81,11.64-3.73,1.54-6.43,4.99-5.24,9.23.99,3.53,5.44,6.79,9.23,5.24,84.27-34.69,181.02-34.39,265.34.04,20.23,8.26,40.9,18.37,58.19,31.87,17.44,13.62,29.61,31.89,30.25,54.52,1.34,47.12-36.86,82.38-72.08,107.7-72.41,52.06-162.33,78.34-251.36,74.16-40-1.88-80.99-9.1-116.36-28.73-31.57-17.52-58.39-46.48-58.11-84.56.31-41.61,31.88-76.79,63.87-99.72,38.42-27.54,84.35-45.63,130.52-54.97,11.53-2.33,23.15-4.08,34.85-5.24,4.03-.4,7.5-3.16,7.5-7.5,0-3.74-3.44-7.9-7.5-7.5h0Z"/><path d="m364.33,393.73c-.94-23.44-1.88-46.87-2.82-70.31-.39-9.62-15.39-9.67-15,0,.94,23.44,1.89,46.87,2.82,70.31.38,9.62,15.39,9.67,15,0h0Z"/><path d="m694.99,320.77c-3.27-23.62-3.82-47.59-2.07-71.36.71-9.63-14.29-9.58-15,0-1.86,25.2-.86,50.34,2.6,75.35.55,4,5.69,6.23,9.23,5.24,4.32-1.21,5.8-5.18,5.24-9.23h0Z"/><path d="m355.38,411.96c53.44,24.82,113.64,33.08,171.57,21.21,51.11-10.47,98.1-36.72,136.01-72.26,10.84-10.16,20.97-21.11,30.1-32.85,2.5-3.22,3.08-7.46,0-10.61-2.56-2.62-8.12-3.19-10.61,0-20.08,25.83-44.85,48.23-72.45,65.75-50.58,32.12-110.88,46.23-170.46,38.25-26.42-3.54-52.51-11.26-76.59-22.45-8.7-4.04-16.33,8.88-7.57,12.95h0Z"/><path d="m267.53,277.03c59.2,54.69,142.4,82.5,222.62,73.39,36.9-4.19,73.16-15.53,107.02-30.63,29.8-13.29,57.89-32.3,82.12-54.11,28.62-25.76,51.83-57.83,68.51-92.46,4.17-8.66-8.76-16.27-12.95-7.57-15.17,31.47-35.6,60.39-60.9,84.54-22.78,21.75-49.53,39.52-77.69,53.48-27.67,13.71-59.28,23.64-90.08,29.32-38.13,7.03-77.78,4.94-115.2-5.01-41.89-11.14-80.98-32.13-112.85-61.57-7.08-6.54-17.72,4.04-10.61,10.61h0Z"/><path d="m276.45,685.3c2.34,23.68,5.2,47.3,8.34,70.89,1.53,11.48,3.11,22.95,4.72,34.41.83,5.89,1.67,11.77,2.51,17.66.42,2.94.82,5.89,1.26,8.82.38,2.49,1.36,5.04,1.06,7.53l1.02-3.79,2.71-1.54h3.99c1.32.55,2.23,1.43,2.73,2.64v3.99l.11-.38-3.45,4.48.36-.19-3.79,1.02.65.07c4.03.44,7.5-3.76,7.5-7.5,0-4.42-3.46-7.06-7.5-7.5-7.08-.77-10.44,7.38-7.21,12.86,3.05,5.17,10.21,7.13,14.76,2.67,5.63-5.51,2.18-13.69,1.23-20.31-1.22-8.5-2.43-17-3.62-25.5-4.69-33.37-9.08-66.79-12.39-100.33-.4-4.03-3.16-7.5-7.5-7.5-3.75,0-7.9,3.44-7.5,7.5h0Z"/><path d="m773.21,382.35c14.11,16.06,23.22,34.49,26.61,55.47,4.06,25.15,5.46,50.83,7.29,76.21,3.33,46.41,5.7,92.9,6.7,139.42.65,30.09.85,60.18.63,90.27-.07,9.65,14.93,9.66,15,0,.33-45.12-.23-90.25-2.04-135.34-1.17-29.22-2.79-58.41-4.82-87.58s-3.68-55.66-7.72-83.19c-1.09-7.42-2.31-14.96-4.77-22.06-5.62-16.23-14.98-30.95-26.27-43.8-6.38-7.27-16.96,3.38-10.61,10.61h0Z"/><path d="m300.03,830.71c61.5,42.75,135.89,65.49,210.59,67.28,76.04,1.83,151.47-18.61,215.54-59.73,37.99-24.38,71.81-54.94,101.08-89.23,6.24-7.3-4.33-17.96-10.61-10.61-49.52,58-112.45,105.36-185.86,128.1-68.95,21.36-143.87,21.94-213.36,2.64-39.22-10.89-76.38-28.17-109.82-51.41-7.94-5.52-15.45,7.47-7.57,12.95h0Z"/><path d="m285.4,819.95c18.18,95.27,34.51,190.89,48.95,286.79,14.45,96.01,26.99,192.3,37.63,288.8,10.67,96.79,19.43,193.78,26.27,290.91,5.08,72.12,4.47,161.89,67.43,210.79,16.79,13.04,36.17,21.87,55.95,29.35s38.08,13.27,57.61,18.21c38.29,9.68,78.54,15.09,118,10.91s74.66-17.27,104.6-41.73c29.02-23.71,49.29-56.23,63.25-90.65,15.38-37.94,22.26-78.35,26.95-118.83,4.81-41.42,6.06-83.12,3.83-124.76-2.32-43.29-8.37-86.26-12.36-129.4-4.51-48.72-7.88-97.53-11.14-146.34-3.24-48.43-6.36-96.88-10.36-145.26-2.98-36.05-6.64-72.03-9.88-108.06-7.11-79.09-13.22-158.28-18.4-237.52-1.51-23.14-2.94-46.29-4.3-69.44-.56-9.59-15.57-9.66-15,0,4.95,84.53,10.94,169,18.04,253.38,6.36,75.58,14.14,151.02,19.48,226.69,6.71,95.27,11.77,190.71,22.66,285.63,9.36,81.53,10.74,163.58-4.98,244.51-13.95,71.84-49.13,146.22-121.39,174.47-72.52,28.35-156.5,9.49-226.43-17.73-19.04-7.41-38.01-16.66-53.28-30.48-13.18-11.93-23.15-26.65-30.52-42.76-15.17-33.2-19.06-70.81-21.75-106.79-6.97-93.36-13.86-186.63-23.42-279.77s-21.31-189.49-34.67-283.89c-13.38-94.5-28.58-188.74-45.6-282.65-4.13-22.81-8.38-45.6-12.73-68.38-1.81-9.47-16.27-5.46-14.46,3.99h0Z"/><path d="m5.23,605.96c73.16,22.89,146.32,45.78,219.47,68.66,36.57,11.44,73.13,22.88,109.7,34.32,18.12,5.67,36.24,11.34,54.35,17.01,9.22,2.88,18.44,5.77,27.65,8.65s17.7,6.33,26.82,7.7c18.04,2.7,28.8-10.48,39.63-22.62,12.84-14.4,25.69-28.79,38.53-43.19,25.47-28.55,50.93-57.09,76.4-85.64,50.93-57.09,101.87-114.18,152.8-171.28,50.72-56.85,101.44-113.7,152.16-170.55,6.42-7.2,12.85-14.4,19.27-21.6,3.76-4.22,2.3-10.86-3.31-12.54-29.88-8.94-59.75-17.89-89.63-26.84-14.62-4.38-29.24-8.76-43.86-13.13-7.63-2.28-15.26-4.57-22.88-6.85-3.81-1.14-7.63-2.28-11.44-3.43-2.96-.89-6.52-2.55-9.63-2.55-9.65,0-9.67,15,0,15-.19,0,3.63,1.41,3.73,1.44,1.91.57,3.81,1.14,5.72,1.71,3.5,1.05,6.99,2.09,10.49,3.14,7.31,2.19,14.62,4.38,21.93,6.57,14.62,4.38,29.24,8.76,43.86,13.13,29.24,8.76,58.48,17.51,87.72,26.27l-3.31-12.54c-50.28,56.35-100.56,112.71-150.83,169.07-50.27,56.35-100.54,112.7-150.81,169.04-25.02,28.05-50.05,56.1-75.07,84.15-12.62,14.15-25.25,28.3-37.87,42.45-11.81,13.23-23.07,27.47-35.8,39.82-6.07,5.9-11.82,7.41-20.05,5.16-8.84-2.41-17.56-5.43-26.31-8.17-18.12-5.67-36.24-11.34-54.35-17.01-35.93-11.24-71.85-22.48-107.78-33.72-72.2-22.59-144.41-45.18-216.61-67.77-8.91-2.79-17.81-5.57-26.72-8.36-9.23-2.89-13.18,11.59-3.99,14.46h0Z"/><path d="m285.67,276.91c-71.06,76.52-142.06,153.09-213.01,229.7-19.89,21.48-39.78,42.97-59.67,64.46-6.55,7.08,4.03,17.71,10.61,10.61,70.96-76.68,141.96-153.3,213.02-229.88,19.88-21.43,39.77-42.85,59.66-64.28,6.56-7.07-4.02-17.7-10.61-10.61h0Z"/><path d="m197.43,464.03c-7.76,8.29-15.04,16.97-21.96,25.97-3,3.9,2.94,9.77,6.84,6.84,2.4-1.8,3.92-3.46,4.48-6.51,1.17-6.29-8.47-8.99-9.64-2.66l.11.53,6.84,6.84c6.39-8.32,13.23-16.28,20.39-23.94,4.39-4.7-2.66-11.78-7.07-7.07h0Z"/><path d="m201.61,467.49c11.11-.32,38.35,4.58,26.87,21.34-3.73,5.45-10.06,8.43-16.38,9.68-2.03.4-25.32,1-24.73-1.5,1.46-6.26-8.18-8.93-9.64-2.66-3.34,14.31,16.17,14.85,25.49,14.88,11.46.04,23.63-3.12,31.42-12.08,6.73-7.75,9.25-20.04,2.02-28.37-8.03-9.26-23.5-11.63-35.04-11.29-6.42.19-6.45,10.19,0,10h0Z"/><path d="m253.06,487.17c-7.16,2.94-14.99,6.28-18.91,13.42-3.45,6.29-3.22,15.02,2.41,19.99s14.31,3.72,19.78-1c6.71-5.78,7.48-15.12,6.93-23.39-.43-6.39-10.43-6.43-10,0,.28,4.23.63,9.03-1.31,12.96-1.41,2.86-6.28,6.86-9.18,3.51-2.34-2.7-.34-7.14,1.69-9.32,2.94-3.17,7.32-4.92,11.24-6.53,5.87-2.42,3.3-12.09-2.66-9.64h0Z"/><path d="m282.12,504.19c-7.76,10.4-14.5,21.44-20.22,33.08-2.38,4.86,3.75,10.42,7.85,6.06,2.41-2.55,3.37-4.98,3.65-8.45.52-6.41-9.48-6.38-10,0l-.73,1.38,7.85,6.06c5.71-11.65,12.46-22.68,20.22-33.08,3.85-5.16-4.83-10.15-8.63-5.05h0Z"/><path d="m286.66,509.84c3.33.47,21.09-1.21,20.48,4.71-.31,2.98-6.89,4.23-9.03,4.5-4,.51-7.8-.36-11.48-1.88-5.94-2.46-8.53,7.21-2.66,9.64,9.79,4.05,29.58,3.41,32.81-9.6,1.34-5.4-1.56-10.61-6-13.6-6.64-4.48-14.06-2.37-21.47-3.41-6.29-.89-9.01,8.74-2.66,9.64h0Z"/><path d="m325.44,519.43c-5.54,12.06-11.08,24.12-16.62,36.18-2.67,5.81,5.95,10.89,8.63,5.05,5.54-12.06,11.08-24.12,16.62-36.18,2.67-5.81-5.95-10.89-8.63-5.05h0Z"/><path d="m325.78,527.24c2.86-.02,16.22-4.29,16.06.33-.09,2.61-3.6,5.34-5.57,6.45-.77.43-8.17,2.47-8.1,1.84.72-6.38-9.28-6.33-10,0-.87,7.7,8.09,10.36,14.14,9.7,6.74-.73,13.14-4.53,16.84-10.25,3.63-5.61,4.1-13.43-2-17.51-6.99-4.68-13.92-.6-21.36-.55-6.43.05-6.45,10.05,0,10h0Z"/><path d="m357.73,533.89c-5.41,10.46-11.3,20.64-17.69,30.53-3.5,5.43,5.13,10.42,8.63,5.05.86-1.33,1.73-2.65,2.59-3.98,3.53-5.41-5.13-10.42-8.63-5.05-.86,1.33-1.73,2.65-2.59,3.98l8.63,5.05c6.39-9.89,12.29-20.07,17.69-30.53,2.95-5.71-5.68-10.77-8.63-5.05h0Z"/><path d="m367.92,536.79c4.64-.18,9.13.56,13.34,2.55,5.79,2.73,10.87-5.88,5.05-8.63s-11.95-4.17-18.39-3.92-6.45,10.25,0,10h0Z"/><path d="m360.18,551.04l16.56,4.13c6.24,1.56,8.91-8.08,2.66-9.64l-16.56-4.13c-6.24-1.56-8.91,8.08-2.66,9.64h0Z"/><path d="m339.96,565.36c7.5,10.61,21.29,14.17,32.93,8.25,5.74-2.92.68-11.55-5.05-8.63-6.5,3.3-15.01,1.34-19.25-4.66-3.69-5.21-12.36-.22-8.63,5.05h0Z"/><path d="m398.07,544.74c-5.75,11-12.37,21.45-19.85,31.36l8.63,5.05c3.98-7.91,8.42-15.78,14.79-22.03,3.02-2.96,6.5-5.55,10.43-7.17,1.88-.78,4.88-2.1,6.9-1.41,3.2,1.1-.31,2.74-2.04,3.31-7.03,2.32-16.05,2.79-18.83,11.18-1.53,4.64.57,8.67,2.75,12.67,2.73,4.99,5.5,9.96,8.25,14.94l1.79-6.84c-.97.44-1.95.87-2.92,1.31-5.86,2.63-.78,11.25,5.05,8.63.97-.44,1.95-.87,2.92-1.31,2.51-1.12,2.99-4.68,1.79-6.84-1.68-3.04-3.36-6.09-5.04-9.13-1.34-2.43-4.75-6.52-5.03-9.29-.44-4.42,9.69-4.93,12.56-5.9,4.35-1.47,8.73-4.38,10.04-9.07s-1.14-9.77-5.41-12.17c-8.88-4.99-20.78,1.83-27.57,7.54-8.4,7.06-14.19,16.83-19.06,26.52-2.95,5.88,4.82,10.1,8.63,5.05,7.48-9.9,14.1-20.36,19.85-31.36,2.98-5.7-5.65-10.76-8.63-5.05h0Z"/><path d="m130.2,529.17c-2.24,16.23-4.49,32.46-6.73,48.69-.59,4.24,4.8,9.29,8.36,4.86,12.58-15.66,26.73-29.91,42.3-42.61,4.99-4.07-2.12-11.11-7.07-7.07-15.57,12.7-29.71,26.95-42.3,42.61,2.79,1.62,5.57,3.24,8.36,4.86,2.24-16.23,4.49-32.46,6.73-48.69.87-6.29-8.76-9.02-9.64-2.66h0Z"/><path d="m149.71,592.89c11.33-12.04,22.66-24.08,34-36.13l2-2.13c-3.01-2.28-4.33-2.52-3.95-.73-.68,1.32-.59,4.63-.86,6.19-.67,3.9-1.33,7.81-2,11.71-1.44,8.46-2.88,16.92-4.32,25.38-1.07,6.29,8.56,9,9.64,2.66,1.88-11.06,3.77-22.12,5.65-33.19,1.01-5.96,5.23-19.29-3.81-21.61-3.73-.96-6.4,1.46-8.76,3.94-3.8,3.99-7.56,8.03-11.33,12.04-7.78,8.26-15.55,16.53-23.33,24.79-4.41,4.68,2.65,11.77,7.07,7.07h0Z"/><path d="m163.83,580.59c7.75.57,15.5,1.14,23.24,1.71,6.42.47,6.39-9.53,0-10-7.75-.57-15.5-1.14-23.24-1.71-6.42-.47-6.39,9.53,0,10h0Z"/><path d="m204.2,560.32c-4.83,13.71-8.51,27.74-11.02,42.06-1.1,6.24,7.78,8.93,9.64,2.66,1.63-5.49,3.92-10.62,7.06-15.42,2.39-3.65,7.19-11.3,12.14-11.54,8.53-.41.67,28.04-.92,32.46-2.18,6.07,7.48,8.68,9.64,2.66,3.26-9.07,5.01-18.72,4.81-28.37-.16-7.52-2.36-15.14-10.83-16.54-8.46-1.4-15,5.14-19.8,11.21-5.4,6.82-9.27,14.55-11.75,22.88l9.64,2.66c2.52-14.32,6.2-28.35,11.02-42.06,2.14-6.08-7.52-8.7-9.64-2.66h0Z"/><path d="m261.17,639.54c54.61,14.51,109.22,29.02,163.84,43.54,6.23,1.65,8.88-7.99,2.66-9.64-54.61-14.51-109.22-29.02-163.84-43.54-6.23-1.65-8.88,7.99-2.66,9.64h0Z"/><path d="m282.91,618.55l10.72-11.72,5.36-5.86,2.68-2.93c1.73-1.54,1.85-1.87.35-.97l-3.85-.5c-1.04-2.43-1.45-2.37-1.22.2l-.13,1.96c-.16,2.29-.35,4.58-.55,6.87-.39,4.25-.87,8.49-1.41,12.72-.82,6.37,9.19,6.31,10,0s1.51-13.04,1.97-19.59c.32-4.51.45-10.65-5.46-11.39-4.89-.61-8.66,5.7-11.45,8.76-4.69,5.13-9.38,10.25-14.07,15.38-4.34,4.74,2.72,11.83,7.07,7.07h0Z"/><path d="m285.14,612.92c7.44,1.77,15,2.48,22.63,2.01,6.39-.39,6.44-10.4,0-10-6.77.42-13.37-.09-19.98-1.65-6.26-1.49-8.93,8.15-2.66,9.64h0Z"/><path d="m317.9,594.22c-1.99,9.52-4.29,18.96-6.9,28.34-1.73,6.21,7.92,8.86,9.64,2.66,2.61-9.37,4.9-18.82,6.9-28.34,1.31-6.28-8.32-8.96-9.64-2.66h0Z"/><path d="m320.03,598.98c.29,6.28,1.17,12.54,2.92,18.59,1.22,4.24,2.55,10.81,7.97,11.22s7.57-5.38,9.73-9.13c3.54-6.11,7.08-12.23,10.61-18.34,3.23-5.58-5.41-10.62-8.63-5.05-2.41,4.17-4.82,8.34-7.24,12.51-1.95,3.37-3.96,9.06-7.03,11.44l3.54-1.46-.99.03,3.54,1.46c-1.95-1.71-2.46-7.32-3.01-9.81-.84-3.79-1.24-7.59-1.42-11.46-.29-6.41-10.29-6.44-10,0h0Z"/><path d="m353.99,602.75c-4.32,8.91-8.57,17.85-12.76,26.82-1.7,3.64,1.15,8.83,5.65,7.34,2.46-.81,3.62-1.68,4.97-3.87,3.39-5.49-5.26-10.52-8.63-5.05l-.71,1.15,2.99-2.3-1.28.42c1.88,2.45,3.76,4.9,5.65,7.34,4.19-8.97,8.44-17.91,12.76-26.82,2.8-5.77-5.82-10.84-8.63-5.05h0Z"/><path d="m355.76,606.68c-.42,6.66.24,13.42,2.18,19.83,1.41,4.65,3.51,12.74,9.38,13.32s8.69-6.21,10.94-10.29c2.8-5.07,5.28-10.74,10.28-14.02,5.36-3.51.36-12.18-5.05-8.63-7.29,4.78-10.68,12.17-14.91,19.47-.43.74-1.21,1.62-1.47,2.42l-.78,1.17,3.88.6c.29-.6-2.55-6.39-2.87-7.51-1.53-5.37-1.94-10.79-1.59-16.35.4-6.43-9.6-6.4-10,0h0Z"/><path d="m384.26,647.03c8.42-8.03,16.69-18.1,26.92-23.82l-7.34-2.99c1.35,5.21,1.02,11.24,1.36,16.62.37,5.85.75,11.7,1.12,17.54.41,6.39,10.41,6.44,10,0s-.83-13-1.25-19.49c-.36-5.69-.16-11.78-1.59-17.33-.82-3.18-4.57-4.54-7.34-2.99-11.03,6.17-19.89,16.74-28.95,25.39-4.67,4.45,2.41,11.51,7.07,7.07h0Z"/><path d="m393.5,642.23c6.24,1.59,12.48,3.18,18.71,4.78s8.9-8.05,2.66-9.64c-6.24-1.59-12.48-3.18-18.71-4.78-6.24-1.59-8.9,8.05-2.66,9.64h0Z"/><path d="m442.47,132.32c-29.16-6.3-55.96,10.39-74.77,31.43-18.77,20.98-36.13,50.42-33.51,79.63,5.6,62.45,85.94,67.17,133.45,63.38,30.85-2.46,61.31-9.49,89.99-21.16,14.36-5.84,28.3-12.65,41.6-20.63s25.1-16.07,34.85-27.26c8.95-10.27,16.17-22.95,16.11-36.95-.07-14.82-8.58-27.29-19.34-36.79-21.41-18.9-48.69-29.26-76.57-33.95-28.61-4.81-58.03-4.94-86.91-2.98-29.36,2-59.25,7.15-85.38,21.36-6.5,3.54-12.52,7.7-18.35,12.24-3.22,2.51-2.58,7.97,0,10.61,3.12,3.19,7.43,2.48,10.61,0,20.83-16.23,47.14-23.76,72.94-27.24,25.44-3.44,51.73-3.96,77.33-2.37,25.18,1.57,51,6.15,73.56,17.94,19.33,10.1,45.1,28.71,34.43,53.59-4.85,11.31-14.46,20.63-24.16,27.89-11.22,8.39-23.71,15.39-36.23,21.64-24.46,12.2-50.73,20.72-77.62,25.56-26.66,4.8-54.84,6.19-81.75,2.55-20.14-2.72-44.22-9.49-56.21-27.37-16.8-25.04-2.54-56.4,13.02-78.22,15.09-21.15,40.71-44.54,68.91-38.45,9.41,2.03,13.43-12.42,3.99-14.46h0Z"/><path d="m473.35,191.87c-6.17,8.04-11.97,16.36-17.26,25.01-4.26,6.97-8.83,14.94-5.65,23.26,5.97,15.65,29.93,15.41,42.97,11.04,13.04-4.37,27.12-15.54,24.92-30.87-2.33-16.27-19.92-25.74-32.78-33.05-8.4-4.78-15.97,8.18-7.57,12.95s21.22,10.61,25.04,20.15c3.2,8.02-7.43,14.28-13.6,16.35-5.14,1.72-10.66,2.49-16.06,1.75-2.85-.39-9.15-1.25-8.94-5.01.14-2.5,2.42-5.36,3.66-7.42,1.77-2.95,3.6-5.85,5.49-8.72,4.01-6.12,8.29-12.07,12.74-17.88,2.48-3.24.47-8.37-2.69-10.26-3.84-2.3-7.81-.51-10.26,2.69h0Z"/></g></svg>