<?xml version="1.0" encoding="UTF-8"?><svg id="Layer_2" xmlns="http://www.w3.org/2000/svg" viewBox="0 0 982.89 1576.37"><g id="Layer_1-2"><path d="m550.3,5.91c-86.61-16.3-168.78,24.9-235.04,77.11-32.59,25.68-63.42,53.94-92.76,83.25s-56.58,60.18-80.7,93.69c-13.34,18.54-26.19,37.91-36.62,58.26-4.37,8.53-6.59,22.98,5.71,26.03,9.38,2.32,19.85-7.12,14.21-16.42-5-8.25-17.97-.72-12.95,7.57l1.1-5.58v-.09c.58-.12,4.66,1.02,3.13,1.64-.07.03,1.14-4.35,1.4-4.89,1.92-4.08,4.34-7.99,6.59-11.91,4.57-7.98,9.37-15.83,14.36-23.55,9.63-14.9,19.96-29.36,30.94-43.3,22.65-28.79,47.68-55.65,73.94-81.16,26.46-25.71,53.95-50.66,82.97-73.47,29.42-23.12,61.47-44.03,96.39-57.82,38.96-15.39,81.82-22.69,123.36-14.88,9.43,1.78,13.48-12.68,3.99-14.46h0Z"/><path d="m535.05,15.03c96.23,7.52,193.95,39.77,269.79,100.72,37.1,29.81,68.5,66.38,90.55,108.67,26.02,49.91,38.27,105.79,42.72,161.59,5.13,64.19.86,128.67-3.82,192.74-.7,9.63,14.3,9.59,15,0,4.26-58.37,8.15-116.99,4.97-175.52-3.12-57.55-13.35-115-36.97-167.87-20.56-46.02-51.66-86.82-89.57-119.94-37.82-33.04-81.55-58.49-127.99-77.32S603.56,7.28,553.47,1.75c-6.13-.68-12.27-1.24-18.41-1.72-9.63-.75-9.58,14.25,0,15h0Z"/><path d="m199.62,536.88c76.62-.45,153.23-.89,229.85-1.34,21.99-.13,43.97-.26,65.96-.38l-7.5-7.5c1.68,121.99,3.35,243.97,5.03,365.96.48,34.47.95,68.94,1.42,103.41l7.5-7.5c-34.88-.49-69.75-.97-104.63-1.46-9.66-.13-9.66,14.86,0,15,34.88.49,69.75.97,104.63,1.46,4.01.06,7.56-3.48,7.5-7.5-1.69-121.98-3.36-243.96-5.03-365.94-.47-34.47-.95-68.95-1.42-103.42-.06-4.04-3.39-7.52-7.5-7.5-76.62.45-153.23.89-229.85,1.34-21.99.13-43.97.26-65.96.38-9.65.06-9.67,15.06,0,15h0Z"/><path d="m190.96,551.34c6.15,49.04,11.51,98.18,16.09,147.4.89,9.53,15.89,9.62,15,0-4.58-49.22-9.94-98.36-16.09-147.4-.5-4.02-3.09-7.5-7.5-7.5-3.66,0-8.01,3.45-7.5,7.5h0Z"/><path d="m321.6,651.92c27.58-19.32,67.33-14.76,88.96,11.38,20.4,24.65,20.74,60.39,2.39,86.07-5.62,7.87,7.38,15.37,12.95,7.57,17.56-24.58,19.95-56.34,7.98-83.84-12.1-27.78-38.41-45.74-68.49-47.96-18.02-1.33-36.55,3.44-51.37,13.83-7.85,5.5-.36,18.51,7.57,12.95h0Z"/><path d="m316.78,647.99c6.92-4,14.68-6.28,22.7-4.78,9.44,1.76,13.48-12.69,3.99-14.46-12.07-2.26-23.67.18-34.26,6.3-8.35,4.83-.81,17.8,7.57,12.95h0Z"/><path d="m352.44,621.46c-53.94,12.05-103.26,40.99-146.59,74.56-40.28,31.2-75.69,68.31-105.4,109.69C35.83,895.74,1.44,1005.49.05,1116.11c-.4,31.61,1.8,63.36,6.95,94.56,5.14,31.09,14.27,61.88,31.14,88.73,5.12,8.15,18.11.63,12.95-7.57-28.98-46.13-34.93-104.45-35.98-157.77s6.24-111.24,21.96-164.6c28.76-97.58,86.27-185.57,164.39-250.79,44.81-37.42,97.48-69.91,154.97-82.75,9.42-2.1,5.43-16.57-3.99-14.46h0Z"/><path d="m420.28,717.28c-24.69,96.05-34.6,195.84-29.87,294.89,4.7,98.48,23.6,196.38,56.38,289.37,18.58,52.69,41.57,103.84,68.78,152.63,4.7,8.43,17.66.88,12.95-7.57-47.56-85.28-81.81-177.63-102.19-273.1-20.37-95.42-26.71-193.79-18.74-291.04,4.46-54.39,13.57-108.33,27.15-161.19,2.4-9.35-12.06-13.35-14.46-3.99h0Z"/><path d="m31.52,1283.96c28.85,58.13,35.12,126.62,18.7,189.29-4.69,17.89-11.19,35.2-19.52,51.71-2.06,4.09-.51,9.92,4.48,11.02,36.38,8,72.77,16,109.15,24.01,14.4,3.17,29.3,8.12,44.19,5.99,11.51-1.65,22.02-8.39,22.16-21.08l-12.8,5.3c26.17,28.84,69.09,27.81,104.74,24.6,10.25-.93,20.62-2.98,25.95-12.84,4.96-9.17,6-21.07,6.37-31.31.77-21.46-4.27-42.72-9.37-63.41-5.81-23.59-12.06-47.32-10.53-71.83-4.91.66-9.82,1.33-14.73,1.99,14.22,46.33,27.48,93.08,42.73,139.08,3.04,9.18,7.12,18.16,14.99,24.19s18.3,8.09,28.15,8.09c18.41,0,37.27-7.53,48.34-22.66,12.09-16.52,11.65-41.2-2.94-56.01l-9.09,11.78c9.24,4.59,11.42,16.87,15.01,25.6,5.12,12.44,13.38,22.88,28,23.12,8.79.15,17.84-2.99,26.11-5.68s16.94-6.12,25.11-9.87c13.55-6.23,35.38-14.67,34.2-32.84-.64-9.87-5.86-19.81-9.81-28.72-4.29-9.66-9.18-19.02-14.57-28.12-4.91-8.3-17.89-.76-12.95,7.57,8.1,13.68,15.26,28.05,20.57,43.06,1.02,2.88,2.76,6.91,1.44,9.92-1,2.28-3.56,3.86-5.58,5.13-6.64,4.18-13.74,7.77-20.87,11.04s-14.2,5.98-21.53,8.36-15.49,5.73-22.98,5.1c-9.38-.78-12.53-11.42-15.31-18.9-3.97-10.69-8.39-22.33-19.27-27.74-7.42-3.69-15.31,5.47-9.09,11.78,9.69,9.84,9.12,26.34,1.14,37.09-8.96,12.07-25.15,16.75-39.61,15.87-7.7-.47-15.24-2.89-19.73-9.52-4.71-6.96-6.57-15.75-9-23.68-6.11-19.91-12.22-39.82-18.33-59.72-6.89-22.44-13.77-44.87-20.66-67.31-2.53-8.26-14.21-6.41-14.73,1.99-2.5,40.01,14.97,77.03,19.14,116.22,1.01,9.45,1.27,19.12-.01,28.57-.56,4.14-1.28,8.66-2.82,12.57-1.67,4.25-4.49,5.69-8.89,6.48-8.26,1.48-17.06,1.62-25.44,1.94s-17.35.27-25.97-.55c-17.85-1.7-35.27-7.48-47.57-21.04-4.48-4.94-12.73-.95-12.8,5.3-.08,7.32-13.28,6.88-18.34,6.57-6.49-.4-12.95-2.4-19.28-3.8-7.8-1.71-15.59-3.43-23.39-5.14-31.84-7-63.67-14-95.51-21.01,1.49,3.67,2.99,7.34,4.48,11.02,31.21-61.84,38.58-134.49,21.29-201.52-4.87-18.87-11.81-37.17-20.47-54.62-4.29-8.65-17.23-1.06-12.95,7.57h0Z"/><path d="m103.04,311.29c-39.55,100.16-41.49,218.22-.61,318.4,10.54,25.84,25,50.09,48.22,66.39,7.92,5.56,15.42-7.44,7.57-12.95-19.12-13.43-31.52-34.22-40.47-55.37-9.93-23.46-16.88-48.41-21.86-73.35-10.09-50.6-10.84-103.33-2.15-154.19,4.96-29.05,12.94-57.53,23.77-84.94,1.5-3.79-1.64-8.2-5.24-9.23-4.24-1.21-7.74,1.49-9.23,5.24h0Z"/><path d="m940.93,578.55c-16.35-17.62-41.27-24.03-64.56-20.05-23.95,4.09-43.96,21.05-53.95,42.93-10.52,23.05-10.87,49.02-.85,72.3,9.83,22.87,28.81,42.07,51.3,52.68s54.27,12.54,71.11-9.89c2.45-3.26.5-8.35-2.69-10.26-3.81-2.28-7.84-.53-10.26,2.69-11.05,14.72-34.72,11.57-49.37,5.07-18.68-8.28-34.51-23.11-43.98-41.2-18.14-34.65-5.69-85.82,34.7-97.98,20.25-6.1,43.37-1.42,57.97,14.32,6.58,7.09,17.17-3.53,10.61-10.61h0Z"/><path d="m869.48,721.58c-61.6,7.36-100.58,58.57-139.32,101.38-19.82,21.91-41.32,42.52-68.37,55.17-24.23,11.33-51.45,15.96-78.08,14.61-30.62-1.56-60.41-11.61-85.44-29.36-7.89-5.59-15.39,7.41-7.57,12.95,45.45,32.22,106.65,40.07,159.3,22.51,28.43-9.48,52.61-26.47,73.81-47.42,21.82-21.57,40.39-46.16,62.24-67.7,22.81-22.49,50.72-43.23,83.44-47.14,4.02-.48,7.5-3.1,7.5-7.5,0-3.68-3.45-7.98-7.5-7.5h0Z"/><path d="m147.8,696.36c13.09,13.21,28.12,24.37,44.58,33.01,8.54,4.48,16.13-8.46,7.57-12.95-15.41-8.09-29.29-18.3-41.55-30.67-6.8-6.87-17.41,3.74-10.61,10.61h0Z"/><path d="m168.03,741.28c-10.05-23.5-18.72-47.57-26.21-72-2.82-9.2-17.3-5.28-14.46,3.99,7.87,25.69,17.16,50.88,27.72,75.59,1.6,3.75,7.06,4.51,10.26,2.69,3.88-2.21,4.27-6.56,2.69-10.26h0Z"/><path d="m935.95,358.18c8.21,39.25,14.58,78.8,19.76,118.56s10.22,82.5,11.69,124.05c1.63,45.97-1.77,91.35-7.76,136.9-5.33,40.5-12.67,81.07-29.16,118.71-28.32,64.64-77.01,119.05-136.13,157.16-39.26,25.31-82.32,45.06-127.71,56.35-80.63,20.05-166.82,11.06-239.88-29.29-8.14-4.5-16.09-9.33-23.87-14.42-8.11-5.3-15.63,7.69-7.57,12.95,35.04,22.89,73.79,39.82,114.77,48.6,42.92,9.19,87.1,9.85,130.38,2.82,52.6-8.55,102.45-28.76,148.15-55.84,56.95-33.74,105.76-81.26,138.72-138.85,21.61-37.77,34.68-78.81,41.94-121.57,7.73-45.59,13.07-91.95,13.58-138.22.47-43.47-3.19-86.8-8.42-129.92-5.18-42.82-11.07-85.55-19.2-127.91-1.54-8.03-3.15-16.05-4.83-24.05-1.97-9.44-16.44-5.45-14.46,3.99h0Z"/></g></svg>