<?xml version="1.0" encoding="UTF-8"?><svg id="Layer_2" xmlns="http://www.w3.org/2000/svg" viewBox="0 0 741.06 1430.53"><g id="Layer_1-2"><path d="m629.44,1013.13c-29.42-60.02-67.13-115.44-107.5-168.56-20.18-26.56-41.01-52.61-61.93-78.58-19.21-23.84-38.24-47.97-59.91-69.67-20.79-20.82-44.33-39.63-71.33-51.72-14.43-6.46-30.73-12.48-46.64-8.08-11.62,3.21-21.08,11.66-27.05,21.96-14.06,24.24-8.77,52.42,5.55,75.17,8.04,12.77,18.23,24.05,28.4,35.13,11.66,12.7,23.21,25.51,34.55,38.5,44.96,51.49,87.1,105.42,126.18,161.51,4.97,7.14,9.9,14.32,14.78,21.52,5.38,7.95,18.38.45,12.95-7.57-36.95-54.57-76.69-107.25-119.05-157.74-20.67-24.63-42.2-48.43-63.77-72.27-16.84-18.62-36.55-42.21-32.63-69.19,1.51-10.36,6.2-21.15,14.6-27.76,10.81-8.5,24.39-5.98,36.39-1.56,26.52,9.76,49.79,27.12,70.08,46.46,20.67,19.71,38.82,41.86,56.73,64.05,20.1,24.9,40.2,49.81,59.75,75.14,39.11,50.65,76.21,103.19,106.2,159.83,3.67,6.94,7.23,13.94,10.69,20.99,4.25,8.67,17.19,1.07,12.95-7.57h0Z"/><path d="m279.89,746.14c-18.35-24.01-45.63-38.9-75.59-42.38-26.19-3.04-72.85,2.93-68.67,38.84,1.81,15.57,10.03,30.6,17.39,44.21s16.3,27.43,25.69,40.32c19.09,26.2,40.75,50.35,62.36,74.47,24.2,27,48.42,54.12,68.61,84.33l10.26-10.26c-3.21-1.36-6.42-2.73-9.63-4.09-3.75-1.6-7.99-1.09-10.26,2.69-1.88,3.13-1.03,8.68,2.69,10.26,3.21,1.36,6.42,2.73,9.63,4.09s6.52,1.39,9.09-1.17c2.25-2.25,3.01-6.34,1.17-9.09-33.36-49.91-77.08-91.42-114.8-137.85-18.41-22.66-35.25-46.8-47.95-73.16-4.73-9.83-15.03-27.83-6.83-38.22,3.91-4.95,11.37-6.79,17.18-8.29,6.28-1.63,12.64-2.52,19.12-2.72,29.34-.88,59.58,12.06,77.58,35.61,2.48,3.24,6.43,4.87,10.26,2.69,3.19-1.81,5.15-7.05,2.69-10.26h0Z"/><path d="m161.01,809.53c-14.35-11.79-34.71-10.44-49.13.67-16.06,12.36-19.89,33.95-16.44,52.95,3.96,21.83,18.31,39.88,31.9,56.66,15.79,19.5,31.61,38.96,47.42,58.43,17.95,22.11,35.89,44.23,53.84,66.34,2.57,3.17,7.92,2.62,10.61,0,3.14-3.08,2.54-7.48,0-10.61-27.96-34.46-55.92-68.92-83.88-103.37-12.75-15.72-26.97-31.07-36.93-48.8-8.11-14.43-13.15-33.14-5.78-48.98,6.02-12.94,25.04-23.17,37.8-12.69,3.15,2.59,7.51,3.03,10.61,0,2.68-2.62,3.12-8.04,0-10.61h0Z"/><path d="m142.48,931.61c-14.45,13.38-19.2,33.93-16.73,52.97,2.89,22.28,14.88,41.9,26.21,60.81,20.94,34.95,43,69.73,70.87,99.64,15.79,16.95,33.57,32.08,53.29,44.29,8.23,5.1,15.77-7.88,7.57-12.95-32.01-19.82-57.86-47.82-79.77-78.16-11.17-15.48-21.47-31.56-31.42-47.84-10.32-16.9-22.03-34.04-28.38-52.92s-6.36-41.05,8.97-55.24c7.1-6.57-3.53-17.16-10.61-10.61h0Z"/><path d="m7.24,56.24c75.22,1.24,150.48-.11,225.61-4.08s149.46-10.51,223.8-19.64c42.08-5.17,84.05-11.14,125.9-17.92l-9.49-7.23c3.99,106.88,6.2,213.83,6.61,320.78.41,106.62-.97,213.25-4.13,319.83-.89,29.88-1.91,59.76-3.08,89.63-.58,14.94-1.2,29.87-1.86,44.8-.26,6.05.19,12.63-1.16,18.56-.13.58-1.11,2.54-1.04,3.01.18,1.25-4.33.3,1.56.51,4.07.15.63.42,1.38.91-.48-.81-.57-.98-.27-.49.34,2.36-1.17,4.05-4.54,5.08,9.62-.37,9.67-15.37,0-15-11.06.43-13,12.99-6.48,20.18,8.11,8.94,19.79,1.83,23.12-7.7,1.79-5.13,1.79-10.75,2.03-16.11.34-7.63.67-15.26,1-22.9.62-14.6,1.2-29.21,1.75-43.81,2.18-57.75,3.83-115.53,4.96-173.31,2.27-116.23,2.42-232.51.45-348.75-1.1-65.09-2.88-130.18-5.31-195.23-.2-5.27-4.61-8.02-9.49-7.23-73.6,11.92-147.61,21.3-221.86,28.09s-148.76,11.02-223.31,12.68c-42.04.93-84.1,1.04-126.14.35-9.66-.16-9.66,14.84,0,15h0Z"/><path d="m1.2,68.49c5.06,100.29,10.12,200.59,15.18,300.88,5.03,99.63,10.06,199.26,15.08,298.89,2.85,56.46,5.7,112.91,8.55,169.37.15,3.03,2.2,6.67,5.51,7.23,15.94,2.72,32.06,1.39,47.07-4.8,3.73-1.54,6.43-4.99,5.24-9.23-.99-3.53-5.45-6.8-9.23-5.24-12.42,5.12-25.78,7.07-39.09,4.8l5.51,7.23c-5.06-100.29-10.12-200.59-15.18-300.88-5.03-99.63-10.06-199.26-15.08-298.89-2.85-56.46-5.7-112.91-8.55-169.37-.48-9.61-15.49-9.66-15,0h0Z"/><path d="m492.17,826.06c22.93-.89,45.61-5.03,67.31-12.49,9.07-3.12,5.18-17.62-3.99-14.46-20.48,7.05-41.68,11.12-63.33,11.96-9.62.37-9.67,15.37,0,15h0Z"/><path d="m597.47,723.51c3.06-4.1,10.2-.71,12.9,1.83,5.36,5.03,7.93,12.83,10.55,19.5,6.55,16.62,12.14,33.6,16.96,50.8,9.59,34.2,16.13,69.17,21.36,104.28,5.11,34.27,9.31,68.72,13.01,103.16,3.51,32.65,5.95,65.59,3.93,98.43-2.19,35.64-10.33,70.96-28.43,102.01-4.87,8.36,8.09,15.92,12.95,7.57,36.02-61.77,34.12-135.82,26.91-204.63-3.9-37.22-8.5-74.44-14.05-111.45-5.71-38.14-12.98-76.13-24.05-113.11-3.09-10.32-6.47-20.56-10.19-30.67-3.42-9.31-6.68-19.17-11.7-27.76-4.45-7.61-11.15-14.23-20.04-16.05-9.11-1.86-17.54,1.11-23.08,8.53-2.44,3.27-.51,8.35,2.69,10.26,3.8,2.28,7.85.54,10.26-2.69h0Z"/><path d="m270.38,1188.53c48.69,44.12,106.4,77.51,168.92,97.72l-4.48-3.45c15.18,33.04,32.42,65.11,51.69,95.95,9.53,15.25,19.36,30.48,30.11,44.9,2.17,2.91,4.66,5.63,8.31,6.57,4.18,1.07,8.72-.75,10.67-4.62,1.57-3.11,1.36-6.87-.56-9.79-2.77-4.19-7.15-4.48-11.46-2.66-3.76,1.59-4.51,7.07-2.69,10.26,2.21,3.89,6.55,4.26,10.26,2.69l.65-.27h-7.57l-2.6-4.01,1.02-3.79,1.68-1.56,3.79-1.02c1.97-.08.3-.98-.67-2.34-.71-1-1.41-1.99-2.12-2.99-1.76-2.5-3.51-5-5.24-7.52-3.47-5.03-6.88-10.1-10.23-15.21-6.71-10.21-13.2-20.57-19.46-31.06-12.52-20.99-24.14-42.52-34.8-64.51-2.39-4.93-4.48-10.09-7.05-14.91-3.12-5.85-9.87-6.58-15.76-8.64-10.39-3.63-20.67-7.61-30.75-12.04-20.83-9.14-40.97-19.85-60.2-32.01-21.6-13.65-41.92-29.15-60.85-46.3-7.14-6.47-17.78,4.11-10.61,10.61h0Z"/><path d="m644.09,1205.69c27.7,61.66,55.39,123.32,83.09,184.98,1.53,3.4,6.25,4.38,9.37,3.07,3.61-1.52,5.04-5.12,4.34-8.85-.93-4.93-1.85-9.86-2.78-14.8-1.78-9.48-16.24-5.46-14.46,3.99.93,4.93,1.85,9.86,2.78,14.8l13.71-5.78c-27.7-61.66-55.39-123.32-83.09-184.98-1.67-3.72-7.01-4.54-10.26-2.69-3.83,2.18-4.34,6.59-2.69,10.26h0Z"/><path d="m571.76,820.83c10.57,1.41,11.27-14.38,3.14-18.04-4.56-2.06-9.76.03-12.41,4.14-2.72,4.22-2.3,9.5-2.27,14.28.12,24.48.24,48.96.36,73.44.05,9.65,15.05,9.67,15,0-.07-14.03-.14-28.07-.21-42.1-.03-6.85-.07-13.71-.1-20.56-.02-3.26-.03-6.53-.05-9.79,0-1.7.32-4.21-.03-5.87-.4-1.92,1.11-1.32-.73-.37l-3.79,1.02c-3.16-5.67-4.84-7.08-5.06-4.23l1.02-3.79,1.98-2.01,3.79-1.02-.65-.09c-4.02-.54-7.5,3.83-7.5,7.5,0,4.5,3.47,6.96,7.5,7.5h0Z"/><path d="m168.08,221.62c-40.65,16.62-63.3,56.63-70.81,98.35-8.16,45.3.46,92.52,23.24,132.45,44.09,77.27,139.16,123.27,226.96,117.84,23.54-1.46,47.08-6.8,67.97-18.01,20.48-10.99,37.23-27.53,50.83-46.19,27-37.03,41.52-83.11,40.34-128.95-2.27-88.15-62.97-162.84-141.17-198.69-22.29-10.22-45.92-18.02-70.4-20.57s-49.92,2.6-73.01,12.99c-39.64,17.83-78.05,48.15-99.28,86.61-5.09,9.21-9.14,19.02-11.98,29.16-2.6,9.31,11.86,13.29,14.46,3.99,10.97-39.23,41.94-69.59,75.42-90.96,18.67-11.91,38.88-21.86,60.82-25.87,23.73-4.33,48.01.13,70.64,7.55,74.63,24.49,140.26,85.36,156.03,164.19,8.24,41.19,2.06,85.08-16.49,122.7-9.45,19.15-21.75,37.16-37.3,51.88-15.67,14.83-34.61,24.93-55.48,30.29-41.57,10.69-86.78,4.69-126.71-9.72-37.83-13.66-72.72-36.6-98.82-67.34-27.01-31.81-43.08-72.74-44.13-114.51-.97-38.5,9.93-81.46,39.52-108.01,6.85-6.14,14.82-11.21,23.34-14.7,3.73-1.53,6.42-4.99,5.24-9.23-.99-3.54-5.44-6.79-9.23-5.24h0Z"/><path d="m319.95,206.02c-34.65-8.01-72.14,5.78-93.33,34.35-21.39,28.83-21.9,71.5-2.23,101.33,9.71,14.73,24.39,25.11,34.62,39.35,5.15,7.18,8.6,15.11,9.08,24.02.49,9.15-1.28,18.13-3.24,27.01-3.97,18.06-9.19,37.61-2.81,55.77,5.63,16.03,18.43,28.48,33.97,34.98,37.86,15.83,79.64-12.21,86.31-51.21,1.61-9.44-12.84-13.5-14.46-3.99-4.92,28.78-33.14,52.15-62.69,42.69-13.03-4.17-24.88-14.51-29.09-27.75-5.01-15.74.25-32.56,3.6-48.08,3.64-16.87,5.68-34.05-1.52-50.29-6.56-14.79-19.18-25.61-30.1-37.12s-18.51-24.31-21.59-39.94-1.33-31.28,4.88-45.22c14.07-31.56,51.16-49.17,84.62-41.44,9.39,2.17,13.4-12.29,3.99-14.46h0Z"/><path d="m317.42,262.03c-33.66,6.89-50.85,47.43-30.98,76.01,9.81,14.11,25.79,22.3,34.93,36.99,4.06,6.53,7,13.87,6.9,21.67-.06,4.37-2.41,15.98-8.98,14.15-9.31-2.6-13.29,11.87-3.99,14.46,18.58,5.19,28.96-16.38,27.87-31.73-1.26-17.83-11.98-33.31-24.95-44.94-6.44-5.77-13.75-11.08-18.83-18.17-4.79-6.69-6.96-14.83-6.4-23.03,1.09-15.75,13.34-27.86,28.42-30.94,9.45-1.93,5.45-16.4-3.99-14.46h0Z"/><path d="m329.09,314.92c2.98,8.75,5.96,17.51,8.94,26.26s17.59,5.19,14.46-3.99c-2.98-8.75-5.96-17.51-8.94-26.26s-17.59-5.19-14.46,3.99h0Z"/></g></svg>