<?xml version="1.0" encoding="UTF-8"?><svg id="Layer_2" xmlns="http://www.w3.org/2000/svg" viewBox="0 0 1728.13 944.53"><g id="Layer_1-2"><path d="m0,7.23c4.69,119.04,9.39,238.08,14.08,357.11,4.67,118.37,9.34,236.75,14.01,355.12,2.62,66.5,5.25,133,7.87,199.5.38,9.61,14.94,9.7,15,0,.17-27.29.33-54.58.5-81.87.06-9.65-14.94-9.66-15,0-.17,27.29-.33,54.58-.5,81.87h15c-4.69-119.04-9.39-238.08-14.08-357.11-4.67-118.37-9.34-236.75-14.01-355.12-2.62-66.5-5.25-133-7.87-199.5C14.63-2.39-.37-2.44,0,7.23H0Z"/><path d="m10.83,19.99c216.08.98,432.15,1.71,648.23,2.19,215.02.47,430.04.7,645.06.67,121.3-.02,242.61-.11,363.91-.29,9.65-.01,9.67-15.01,0-15-216.14.31-432.28.38-648.42.18-214.99-.19-429.98-.64-644.97-1.33-121.27-.39-242.53-.87-363.8-1.42-9.65-.04-9.67,14.96,0,15h0Z"/><path d="m1660.53,15.06c5.38,84.85,10.74,169.71,16.06,254.56,4.89,77.93,9.75,155.87,14.55,233.81,3.96,64.33,7.89,128.66,11.72,193,2.68,45.1,5.34,90.2,7.75,135.32.71,13.28,1.41,26.56,1.98,39.85.27,6.11.86,12.37.53,18.49-.01.23-.02.46-.04.69-.06.79-.16,1.37-.35,2.28-.13.64-.61,1.54-.54,2.16.14,1.14-1.62.33.62-.63l3.79-1.02c.88-.03,1.4,1.46.69-.14l1.02,3.79-.02-.72-1.02,3.79-1.71,1.7c7.85-5.49.37-18.5-7.57-12.95s-4.05,16.43,4.65,19.04,13.66-5.13,14.84-12.62c.49-3.12.69-5.96.63-9.07-.17-9.23-.68-18.46-1.12-27.69-1.95-40.02-4.31-80.03-6.65-120.03-3.68-62.96-7.5-125.91-11.36-188.86-4.84-78.96-9.74-157.91-14.69-236.86-5.51-88-11.06-176-16.63-264-.72-11.29-1.43-22.58-2.15-33.87-.61-9.59-15.61-9.66-15,0h0Z"/><path d="m60.24,944.53c213.74-2.06,427.48-4.12,641.22-6.18,212.65-2.05,425.3-4.1,637.95-6.15,119.96-1.16,239.91-2.31,359.87-3.47,9.65-.09,9.67-15.09,0-15-213.74,2.06-427.48,4.12-641.22,6.18-212.65,2.05-425.3,4.1-637.95,6.15-119.96,1.16-239.91,2.31-359.87,3.47-9.65.09-9.67,15.09,0,15h0Z"/><path d="m83.52,102.47c4.45,40.77,8.9,81.54,13.36,122.3.44,4.03,3.13,7.5,7.5,7.5,3.71,0,7.94-3.45,7.5-7.5-4.45-40.77-8.9-81.54-13.36-122.3-.44-4.03-3.13-7.5-7.5-7.5-3.71,0-7.94,3.45-7.5,7.5h0Z"/><path d="m104.32,129.81l12.52-15.34c1.65-2.03,6.17-9.4,9.11-8.66,3.52.88,5.95,8.93,7.11,11.73,2.41,5.82,4.47,11.78,6.25,17.82,7.14,24.22,8.95,49.55,5.81,74.58-.51,4.03,3.81,7.5,7.5,7.5,4.47,0,6.99-3.46,7.5-7.5,3.81-30.37.34-61.79-10.3-90.52-4.06-10.96-9.45-27.95-23.59-28.71-7.18-.38-12.7,4.33-17.01,9.51-5.23,6.27-10.34,12.66-15.5,18.99-2.58,3.16-3.03,7.5,0,10.61,2.62,2.67,8.05,3.13,10.61,0h0Z"/><path d="m153.08,122.54c2.39-8.41,11.12-14.06,19.78-13.59,10.37.56,16.4,10.47,19.37,19.34,4.24,12.66,5.58,26.44,6.71,39.66,1.34,15.78,1.51,31.61.63,47.42-.54,9.65,14.47,9.61,15,0,1.08-19.36.56-38.76-1.71-58.02-1.78-15.16-3.55-31.5-11.4-44.94-6.99-11.95-19.38-19.89-33.48-18.17s-25.57,10.96-29.37,24.31c-2.65,9.3,11.82,13.27,14.46,3.99h0Z"/><path d="m236.31,109.85c-2.76,17.56-2.78,35.1.26,52.63,2.69,15.52,7.25,34.03,19.24,45.16s30.13,12.8,42.14.72,13.22-30.87,15.14-46.77c2.52-20.94,3.1-42.05,1.88-63.09-.55-9.6-15.56-9.66-15,0,1.12,19.43.73,38.91-1.33,58.26-.97,9.15-2.01,18.54-4.37,27.45-1.83,6.89-5.42,15.09-12.9,17.31s-14.51-2.95-18.56-8.58c-4.97-6.91-7.41-15.48-9.47-23.63-4.56-18.06-5.45-37.07-2.56-55.48.63-4.03-1.03-8.02-5.24-9.23-3.55-1.02-8.6,1.24-9.23,5.24h0Z"/><path d="m301.99,153.52c-1,21.56,1.22,43.14,6.46,64.08,2.34,9.36,16.81,5.39,14.46-3.99-4.93-19.71-6.86-39.8-5.92-60.09.45-9.65-14.55-9.63-15,0h0Z"/><path d="m396.45,123.33c.54-16.97-10.44-34.29-28.02-36.87-18.61-2.73-33.51,10.58-34.48,29-.49,9.2,1.36,19.83,7.57,26.95,5.59,6.41,14.02,9.42,22.2,10.74s18.88.65,26.11,5.95c6.29,4.61,9.27,13.49,9.13,21.03-.19,10.03-7.75,13.63-16.85,13.45-5.13-.1-10.19-1.14-15.13-2.48-2.87-.78-5.71-1.69-8.49-2.76-1.32-.51-3.81-1.56-3.85-1.82v3.99l-1.02,1.73c6.59-7.05-4-17.68-10.61-10.61-7.99,8.55,1.01,16.9,8.99,20.17,9.24,3.78,19.33,6.4,29.35,6.75,8.86.31,18.31-1.8,24.77-8.24,6.67-6.66,8.6-16.43,7.5-25.52-1.07-8.8-4.54-17.47-10.65-24-6.96-7.44-16.63-9.88-26.39-11.1-7.4-.92-16.46-.92-22.53-5.91s-6.6-17.89-3.73-24.67c3.04-7.18,12.3-9.82,19.26-7.04,8.39,3.35,12.13,12.79,11.86,21.24-.31,9.66,14.69,9.64,15,0h0Z"/><path d="m447.45,144.8c16.7-1.72,33.41-3.44,50.11-5.15,3.88-.4,7.72-3.11,7.5-7.5-.75-15.09-3.06-32.9-16.93-41.82-16.05-10.32-35.85-1.02-45.89,13.05-10.49,14.7-14.72,35.99-15.7,53.69s9.85,30.45,26.34,36.51c15.15,5.56,38.06,11.05,49.16-4.23,2.4-3.3.54-8.33-2.69-10.26-3.77-2.26-7.89-.57-10.26,2.69-3.14,4.32-12.16,2.33-16.44,1.5-6.81-1.32-13.94-2.85-20.12-6.1s-10.42-7.87-11.01-15.08c-.73-8.91,1.6-18.52,3.75-27.09,3.44-13.69,10.24-33.86,27.52-34.03,15.28-.15,16.72,20.04,17.28,31.16l7.5-7.5c-16.7,1.72-33.41,3.44-50.11,5.15-4.03.41-7.5,3.15-7.5,7.5,0,3.73,3.45,7.92,7.5,7.5h0Z"/><path d="m521.98,92.5c-3.57,17.16-5.69,34.85-4.29,52.38,1.23,15.4,4.31,33.18,13.73,45.88,4.43,5.98,10.41,10.69,18,11.55,8.22.94,15.71-2.78,21.67-8.21,11.42-10.42,17.1-26.27,19.83-41.11,3.66-19.96,4.2-40.63,2.96-60.84-.5-8.08-12.66-10.62-14.73-1.99-4.81,19.97-5.47,40.52-4.03,60.94.71,10.14,1.89,20.25,3.16,30.33.64,5.05,1.31,10.1,1.97,15.14s1.86,10.31,1.74,15.35l1.02-3.79-.64.84,8.47-3.45-.56-.21,5.24,5.24-.15-.64-3.45,8.47.39-.2c8.6-4.38,1.02-17.33-7.57-12.95l-.39.2c-3.01,1.53-4.18,5.37-3.45,8.47.78,3.28,2.93,4.94,5.95,6.09,3.35,1.27,6.58-.94,8.47-3.45,2.87-3.79,1.31-9.04.77-13.37-.67-5.36-1.39-10.71-2.08-16.07-1.35-10.41-2.66-20.82-3.53-31.28-1.73-20.63-1.74-41.46,3.13-61.69-4.91-.66-9.82-1.33-14.73-1.99,1.15,18.81.99,38.26-2.42,56.85-1.43,7.77-3.46,15.59-7.16,22.61-3.18,6.04-8.49,14.5-15.82,15.8-6.53,1.16-10.81-6.01-13.18-10.97-3.62-7.6-5.62-16.34-6.84-24.64-2.69-18.37-.76-37.24,3-55.31,1.96-9.42-12.5-13.45-14.46-3.99h0Z"/><path d="m624.94,97.46c3.13,39.17,4.27,78.46,3.42,117.74h15c-.04-1.27-.08-2.1.48-3.24,4.24-8.63-8.7-16.25-12.95-7.57-1.73,3.53-2.66,6.85-2.53,10.81.34,9.63,14.79,9.68,15,0,.85-39.28-.29-78.57-3.42-117.74-.76-9.56-15.77-9.64-15,0h0Z"/><path d="m641.68,132.7c2.83-5.16,5.6-10.37,8.51-15.49,2.61-4.6,5.55-9.76,10.5-12.18,9.56-4.67,13.55,6.9,15.38,14.1,6.28,24.71,7.52,50.78,5.25,76.1-.86,9.61,14.14,9.55,15,0,1.44-15.98,1.38-32.04-.33-48-1.52-14.2-3.13-29.91-9.31-42.97-5.78-12.22-18.37-18.85-31.36-13.21-13.71,5.95-19.87,21.81-26.6,34.08-4.64,8.47,8.3,16.05,12.95,7.57h0Z"/><path d="m690.35,120.87c2.56-10.26,8.19-21.16,18.41-25.6,8.07-3.5,19.65-1.95,24.22,6.29,3.06,5.53,3.34,12.57,4.16,18.71,1,7.52,2,15.03,3,22.55,2.04,15.36,4.08,30.71,6.12,46.07,1.24,9.32,14.54,9.94,15,0,.06-1.24.12-2.48.17-3.72.45-9.65-14.55-9.63-15,0-.06,1.24-.12,2.48-.17,3.72h15c-2.52-18.95-5.04-37.9-7.56-56.85-2-15.06-1.41-34.91-14.04-45.62-10.58-8.98-26.19-10.07-38.47-4.09-13.45,6.54-21.79,20.48-25.3,34.57-2.34,9.37,12.12,13.36,14.46,3.99h0Z"/><path d="m112.4,406.71c28.95-46.09,59.75-90.98,92.33-134.58,2.44-3.27.5-8.35-2.69-10.26-3.8-2.28-7.85-.54-10.26,2.69-32.58,43.59-63.38,88.49-92.33,134.58-5.15,8.2,7.82,15.73,12.95,7.57h0Z"/><path d="m233.42,274.51c3.11,36.26,6.22,72.51,9.33,108.77.82,9.55,15.83,9.63,15,0-3.11-36.26-6.22-72.51-9.33-108.77-.82-9.55-15.83-9.63-15,0h0Z"/><path d="m254.8,325.14c8.48-22.18,20.2-42.98,34.45-61.96,2.45-3.26.5-8.35-2.69-10.26-3.81-2.28-7.84-.53-10.26,2.69-15.07,20.07-27,42.11-35.96,65.54-3.45,9.02,11.05,12.93,14.46,3.99h0Z"/><path d="m241.23,324.12c17.94,12.22,34.47,26.36,49.34,42.18,3.53,3.75,6.96,7.59,10.29,11.52s6.4,9.14,10.44,12.38c4.29,3.45,11.1,3.23,14-1.94s-.72-10.56-5.61-12.52c-2.18-.88-5.85.05-7.3,1.93l-.34.44c-2.5,3.23-3.09,7.45,0,10.61,2.56,2.61,8.13,3.2,10.61,0l.34-.44-7.3,1.93-4.11-3.73,1.93-7.3-.42.54,5.3-2.2-1.32.06,3.79,1.02c-2.97-1.83-5.49-6.72-7.74-9.41-2.75-3.3-5.57-6.54-8.46-9.71-5.39-5.93-11.01-11.64-16.85-17.13-12.15-11.41-25.25-21.79-39.02-31.17-8-5.45-15.51,7.54-7.57,12.95h0Z"/><path d="m347.46,281.66c3.64-9.49,8.48-22.1,18.41-26.66,11.15-5.12,22.35,4.61,26.72,14.34,6.21,13.81,3.24,30.38,2.43,44.94s.11,30.02,7.76,43.12c4.86,8.33,17.83.79,12.95-7.57-8.93-15.29-5.59-33.85-4.73-50.64.88-17.2-.86-35.14-13.01-48.39-10.44-11.37-26.91-15.98-40.81-8.15-12.83,7.23-19.17,21.94-24.18,35.03-3.46,9.02,11.04,12.93,14.46,3.99h0Z"/><path d="m397.69,294.86c-22.52-19.06-61.54,9.09-60.03,35.68.8,14.04,11.3,24.6,24.05,29.19,15.59,5.61,32.4,0,46.83-6.24,3.75-1.62,4.52-7.05,2.69-10.26-2.2-3.86-6.57-4.29-10.26-2.69-9.53,4.13-20.72,8.06-31.23,5.89-7.39-1.53-15.57-6.8-16.96-14.77-1.51-8.68,5.59-16.84,11.99-21.71,5.35-4.08,16-9.81,22.31-4.47,7.33,6.2,17.99-4.36,10.61-10.61h0Z"/><path d="m446.01,272.48c4.12-8.01,12.05-13.86,21.26-14.19,4.34-.16,8.93.61,11.07,4.81,2.2,4.31,2.13,9.82,2.45,14.52,1.78,26.18,3.56,52.36,5.34,78.55.65,9.58,14.58,9.72,15,0,.06-1.34.12-2.68.17-4.03.42-9.65-14.58-9.63-15,0-.06,1.34-.12,2.68-.17,4.03h15c-1.13-16.57-2.25-33.14-3.38-49.71-.54-7.95-1.08-15.91-1.62-23.86-.47-6.94-.49-14.27-2.43-21-4.09-14.24-17.33-19.91-31.3-17.8-12.44,1.88-23.59,9.94-29.34,21.12-4.41,8.57,8.53,16.17,12.95,7.57h0Z"/><path d="m485.57,299.68c-20.93-12.08-49.12-5.62-63.24,13.82-3.84,5.28-6.76,11.86-6.03,18.5.77,6.98,5.44,12.56,10.61,16.97,9.97,8.52,22.18,14.4,35.12,16.68,15.15,2.67,30.03.93,44.15-5.1,3.75-1.6,4.51-7.06,2.69-10.26-2.21-3.88-6.56-4.27-10.26-2.69-10.8,4.61-23.33,5.57-34.78,3.18s-24.76-7.91-31.43-17.59c-3.13-4.53,1.01-10.08,4.14-13.55,3.36-3.72,7.61-6.64,12.25-8.52,9.47-3.83,20.3-3.61,29.2,1.52,8.38,4.84,15.94-8.12,7.57-12.95h0Z"/><path d="m534.11,255.14c4.55,36.36,9.09,72.73,13.64,109.09l14.73-1.99c-1.1-2.72-2.21-5.43-3.31-8.15-1.52-3.74-5-6.42-9.23-5.24-3.55.99-6.78,5.44-5.24,9.23,1.1,2.72,2.21,5.43,3.31,8.15,1.42,3.5,4.24,5.91,8.23,5.37,3.31-.45,6.97-3.66,6.5-7.37-4.55-36.36-9.09-72.73-13.64-109.09-.5-4.02-3.09-7.5-7.5-7.5-3.66,0-8.01,3.45-7.5,7.5h0Z"/><path d="m555.09,299.73c-2.41-11.13,1.43-23.17,10.02-30.71s21.1-9.22,31.84-5.56c9.16,3.12,13.09-11.36,3.99-14.46-15.86-5.41-33.93-1.72-46.43,9.41-12.6,11.22-17.39,29.09-13.87,45.31,2.04,9.43,16.51,5.44,14.46-3.99h0Z"/><path d="m629.69,244.9c-3.25,26.37-2.68,52.94,1.49,79.17,1.72,10.82,3.05,23.81,10.62,32.39,7.04,7.98,19.58,9.55,27.51,2.08,7.04-6.63-3.58-17.23-10.61-10.61-1.48,1.39-4.02.11-5.29-1-2.7-2.36-3.66-6.52-4.48-9.83-2.44-9.88-3.96-20.08-4.99-30.19-2.1-20.64-1.79-41.43.75-62.01.5-4.03-3.8-7.5-7.5-7.5-4.47,0-7,3.46-7.5,7.5h0Z"/><path d="m623.91,305.48c13.7-.43,27.31-2.04,40.75-4.74,9.46-1.9,5.45-16.36-3.99-14.46-12.15,2.44-24.38,3.81-36.76,4.2-9.63.3-9.67,15.31,0,15h0Z"/><path d="m686.09,253.18c19.11,21.76,38.98,42.85,59.57,63.22,6.87,6.8,17.48-3.8,10.61-10.61-20.59-20.37-40.46-41.46-59.57-63.22-6.38-7.27-16.96,3.38-10.61,10.61h0Z"/><path d="m988.9,163.95c-69.04-8.93-139.09,21.07-187.27,69.86-51.32,51.97-77.91,123.75-85.68,195.37-4.17,38.43-3.79,78.88,8.84,115.81s36.09,65.97,62.83,92.19c49.19,48.22,110.2,83.87,175.78,104.65s135.48,26.47,203.07,15.16c65.15-10.9,130.98-40,170.5-94.93,42.62-59.24,44.48-137.84,32.53-207.16-11.43-66.28-37.77-130.89-78.84-184.38-41.02-53.43-96.25-94.63-161.22-113.77-63.15-18.6-132.91-16.7-193.41,10.18-14.67,6.52-28.59,14.57-41.59,24-3.3,2.4-4.84,6.49-2.69,10.26,1.85,3.26,6.99,5.06,10.26,2.69,51.35-37.26,116.12-50.06,178.5-42.17s122.1,37.89,167.48,82.83c45.62,45.17,77.42,103.13,95.45,164.48,18.68,63.56,26.5,136.06,4.28,199.73-10.79,30.92-29.77,57.83-54.91,78.75-24.41,20.32-53.71,34.5-83.88,43.98-61.8,19.43-129.36,20.78-192.68,8.37-64.69-12.67-126.3-39.81-178.95-79.53-26.73-20.16-52.21-43.92-72.05-70.99-10.67-14.56-19.78-30.37-25.71-47.47-6.25-18.01-9.44-36.89-10.47-55.9-3.77-69.35,13.26-142.99,51.17-201.52,35.88-55.39,94.56-97.45,160.95-105.68,15.84-1.96,31.89-1.86,47.72.19,4.02.52,7.5-3.82,7.5-7.5,0-4.49-3.46-6.98-7.5-7.5h0Z"/><path d="m1284.44,132.34c-2.68,29.45-4.08,59-4.12,88.58,0,7.23.06,14.46.22,21.68.08,3.61.17,7.23.29,10.84.1,3.2,1.06,7.68.41,10.83-.42,2.04-2.42,4.7-2.42,7.41,0,2.86,1.46,5.59,3.87,7.12,4.38,2.78,12.32.75,13.27-4.95.66-3.95-.99-8.12-5.24-9.23l-.53-.14c-9.35-2.43-13.34,12.03-3.99,14.46l.53.14-5.24-9.23-.04.25,3.45-4.48,2.07-.55,3.79,1.02-.49-.27,3.45,4.48-.15-.65v3.99c.51-1.7,1.94-3.03,2.41-4.87.69-2.72.23-5.7.12-8.48-.25-6.24-.43-12.48-.56-18.72-.24-12.15-.26-24.31-.05-36.46.42-24.31,1.77-48.59,3.97-72.81.88-9.61-14.13-9.55-15,0h0Z"/><path d="m1293.74,146.6c71.99-13.66,145.5-18.26,218.64-13.96l-7.5-7.5c.02,82.87.5,165.73,1.47,248.59.27,23.63.59,47.25.94,70.88l5.51-7.23c-50.32,7.44-100.96,12.55-151.75,15.42-9.6.54-9.66,15.55,0,15,52.13-2.95,104.09-8.32,155.74-15.96,3.16-.47,5.55-4.24,5.51-7.23-1.23-82.86-1.99-165.72-2.27-248.59-.08-23.63-.12-47.26-.13-70.89,0-4.23-3.44-7.26-7.5-7.5-74.49-4.38-149.33.59-222.63,14.5-9.47,1.8-5.46,16.26,3.99,14.46h0Z"/><path d="m1342.43,357.2c4.39-6.51,9.06-13.38,15.78-17.71s14.54-5.55,22.34-5.32c15.56.46,31.04,6.55,44.01,14.9,27.96,18.01,44.21,49.76,43.73,82.85-.12,8.29,12.96,10.41,14.73,1.99.36-1.71.72-3.42,1.08-5.13,1.99-9.42-12.47-13.44-14.46-3.99-.36,1.71-.72,3.42-1.08,5.13l14.73,1.99c.44-30.74-11.82-61.21-34.17-82.46-20.59-19.59-51.38-33.86-80.26-29.52-18.2,2.73-29.58,15.14-39.38,29.69-5.41,8.03,7.58,15.54,12.95,7.57h0Z"/><path d="m1384.88,188.99c-3.45-6.01-10.15-8.81-16.91-7.87-7.14,1-12.29,6.07-16.32,11.7-8.54,11.92-14.07,26.62-16.37,41.05-4.32,26.99,1.14,58.03,21.91,77.4,22.59,21.06,56.57,17.98,78.74-2.07,10.57-9.56,19.69-23.51,22.06-37.72,2.53-15.12-2.66-30.95-8.9-44.58-13.64-29.8-44.1-52.39-77.94-45.28-9.44,1.98-5.45,16.45,3.99,14.46,22.17-4.66,43.36,8.96,54.92,27.14,6.06,9.52,10.29,20.25,12.62,31.29,2.65,12.54-1.11,23.44-8.22,33.79-12.07,17.56-35.81,28.97-56.41,19.31-18.58-8.71-27.71-30.56-29.02-49.99-.87-12.83.97-25.54,5.34-37.63,2.25-6.22,5.32-12.18,8.95-17.71,1.33-2.02,6.76-9.01,8.63-5.74,4.81,8.37,17.77.82,12.95-7.57h0Z"/><path d="m1420.27,554.72c31.83-.97,63.66-1.93,95.48-2.9l-7.5-7.5c.06,39.18.13,78.35.19,117.53l.05,28.88.02,13.94v6.97c.01,2.15-.67,5.45,0,7.51.77,2.38-.73-.11.81-.15-.46.01-.89.23-1.37.16-1.78-.27-4.06.28-5.86.39-5.21.32-10.43.57-15.66.75-9.46.33-18.94.43-28.41.31-21.88-.28-43.73-1.8-65.45-4.45-4.03-.49-7.5,3.8-7.5,7.5,0,4.46,3.46,7.01,7.5,7.5,20.43,2.49,40.96,3.99,61.53,4.39,10.45.2,20.9.13,31.34-.21,4.9-.16,9.79-.38,14.68-.67,4.46-.26,9.48-.07,13.78-1.42,10.58-3.32,9.63-14.65,9.61-23.59-.02-10.29-.03-20.58-.05-30.88-.03-20.92-.07-41.83-.1-62.75-.04-23.9-.08-47.81-.12-71.71,0-3.96-3.43-7.62-7.5-7.5-31.83.97-63.66,1.93-95.48,2.9-9.63.29-9.67,15.29,0,15h0Z"/><path d="m1358.71,667.31v36.46c0,9.65,15,9.67,15,0v-36.46c0-9.65-15-9.67-15,0h0Z"/><path d="m1368.35,676.65c3.5-3.23,11.01-2.01,15.28-1.41,5.66.79,11.85,2.65,15.13,7.67,2.71,4.13,2.41,8.73-1.98,11.42-2.59,1.59-5.59,2-8.58,2.01-1.93,0-3.85-.15-5.76-.41-.95-.13-1.91-.29-2.85-.47-2.13-.78-2.48-.6-1.06.54l1.02,3.79-.08-.84-1.02,3.79.53-.75c5.6-7.88-7.4-15.38-12.95-7.57-4.14,5.83.67,12.76,6.55,14.8s14.03,2.56,20.44,1.77c12.27-1.51,23.56-10.91,22.48-24.15-1.03-12.57-10.87-21.53-22.5-24.9s-26.15-4.29-35.24,4.1c-7.11,6.56,3.52,17.15,10.61,10.61h0Z"/><path d="m1447.8,575.45c-.55,11.14-.3,22.26.74,33.36.45,4.78,4.44,8.61,9.49,7.23,10.39-2.83,21.35-4.97,31.46-8.69,4.36-1.6,8.31-4.5,9.7-9.13,1.47-4.92-.01-9.94-1.05-14.81-1.96-9.18-3.08-21.4-15.14-21.63-5.12-.1-10.42,1.56-15.41,2.55-5.74,1.13-11.47,2.26-17.21,3.39-9.46,1.87-5.46,16.33,3.99,14.46,7.01-1.38,14.02-2.76,21.04-4.15,1.37-.27,4.56-.26,5.74-1.13,1.24.08,1.44-.09.6-.5-.78-.7-.83-.34-.18,1.06.13,3.19,1.45,6.81,2.12,9.93.32,1.5.58,3.03.96,4.51.65,2.51.07,1.47.35,1.18-1.35,1.43-6.93,1.95-8.88,2.48-7.36,2-14.71,4.01-22.07,6.01l9.49,7.23c-1.04-11.1-1.29-22.22-.74-33.36.48-9.65-14.53-9.62-15,0h0Z"/><path d="m1417.63,582.27c-1.87,8.8-2.9,17.72-2.98,26.71-.09,9.65,14.91,9.66,15,0,.07-7.69.84-15.2,2.45-22.72,2.01-9.42-12.45-13.44-14.46-3.99h0Z"/><path d="m1421.88,640.07c5.22,12.82,20.36,19.1,32.78,11.99,8.38-4.8.83-17.76-7.57-12.95-3.29,1.88-9.15.91-10.75-3.02s-4.99-6.4-9.23-5.24c-3.55.98-6.77,5.45-5.24,9.23h0Z"/><path d="m1465.76,637.13c2.54,9.28,2.88,18.7.81,28.11-2.08,9.41,12.38,13.42,14.46,3.99,2.66-12.03,2.46-24.19-.81-36.09-2.55-9.3-17.02-5.35-14.46,3.99h0Z"/><path d="m1474.66,684.29c-9.53-8.34-22.68-11.46-34.76-7.06-9,3.28-5.11,17.78,3.99,14.46,6.93-2.52,14.48-1.77,20.16,3.21,7.24,6.33,17.89-4.23,10.61-10.61h0Z"/><path d="m1388.15,616.3c-.58,5.82-1.16,11.65-1.74,17.47-.4,4.04,3.73,7.5,7.5,7.5,4.39,0,7.1-3.45,7.5-7.5.58-5.82,1.16-11.65,1.74-17.47.4-4.04-3.73-7.5-7.5-7.5-4.39,0-7.1,3.45-7.5,7.5h0Z"/><path d="m1387.65,565.92c-3.8,8.47-4.86,17.09-2.84,26.2,2.1,9.42,16.56,5.43,14.46-3.99-1.08-4.87-.74-10.05,1.32-14.64,1.66-3.69,1.07-8.06-2.69-10.26-3.21-1.88-8.59-1.02-10.26,2.69h0Z"/><path d="m1426,666.06c9.65,0,9.67-15,0-15s-9.67,15,0,15h0Z"/><path d="m1131.72,781.53c0,24.66,0,49.33,0,73.99h15c0-1.09,0-2.18,0-3.27,0-9.65-15-9.67-15,0,0,1.09,0,2.18,0,3.27,0,9.65,15,9.67,15,0,0-24.66,0-49.33,0-73.99,0-9.65-15-9.67-15,0h0Z"/><path d="m1157.26,783.5v60.9c0,9.65,15,9.67,15,0v-60.9c0-9.65-15-9.67-15,0h0Z"/><path d="m1179.07,783.51c-.97,15.76-.62,31.51,1.06,47.21.43,4.03,3.14,7.5,7.5,7.5,3.72,0,7.93-3.45,7.5-7.5-1.68-15.7-2.03-31.46-1.06-47.21.6-9.64-14.41-9.61-15,0h0Z"/><path d="m1229.95,771.71c.16,14.33.72,28.64,1.55,42.94.32,5.49.26,11.1.9,16.56s4.9,11.03,10.97,8.63c3.75-1.48,6.41-5.03,5.24-9.23-1-3.58-5.42-6.74-9.23-5.24l-.45.18h3.99l4.36,4.77-.08-1.06c.19-.68-.08-1.85-.1-2.57-.09-2.48-.17-4.96-.31-7.43-.31-5.26-.62-10.53-.87-15.8-.51-10.58-.84-21.17-.96-31.76-.11-9.65-15.11-9.67-15,0h0Z"/><path d="m1267.28,771.71v55.01c0,9.65,15,9.67,15,0v-55.01c0-9.65-15-9.67-15,0h0Z"/><path d="m1332.7,769.74c.42,15.64.84,31.27,1.26,46.91.2,7.62.02,15.36.62,22.96.48,6.08,3.96,12.99,11.1,12.34,9.53-.87,9.63-15.88,0-15l-1.03.09,3.79,1.02c1.71.89.8,2.3,1.09-.46.17-1.57-.09-3.39-.13-4.99l-.24-8.98-.48-17.96c-.32-11.98-.64-23.95-.97-35.93-.26-9.63-15.26-9.67-15,0h0Z"/><path d="m1360.62,789.45c1.15,19,2.31,38,3.46,57,.58,9.59,15.59,9.66,15,0-1.15-19-2.31-38-3.46-57-.58-9.59-15.59-9.66-15,0h0Z"/><path d="m1381.35,779.56c2.08,23.52,2.67,47.13,1.76,70.73-.37,9.65,14.63,9.64,15,0,.91-23.6.33-47.21-1.76-70.73-.84-9.54-15.85-9.63-15,0h0Z"/><path d="m1407.28,775.59c2.06,23.62,4.12,47.25,6.17,70.87.83,9.54,15.84,9.63,15,0-2.06-23.62-4.12-47.25-6.17-70.87-.83-9.54-15.84-9.63-15,0h0Z"/><path d="m1445.87,777.62c1.94,19.65,3.88,39.3,5.82,58.94.4,4.03,3.16,7.5,7.5,7.5,3.75,0,7.9-3.44,7.5-7.5-1.94-19.65-3.88-39.3-5.82-58.94-.4-4.03-3.16-7.5-7.5-7.5-3.75,0-7.9,3.44-7.5,7.5h0Z"/><path d="m132.67,512.75c2.11-13.16,7-25.12,14.75-35.97h-12.95c6.56,13.55,10.92,27.96,13.35,42.81,1.55,9.5,16.01,5.47,14.46-3.99-2.64-16.17-7.72-31.65-14.86-46.39-2.67-5.52-9.97-4.17-12.95,0-8.39,11.74-13.98,25.3-16.26,39.55-.64,4.03,1.04,8.02,5.24,9.23,3.56,1.02,8.59-1.24,9.23-5.24h0Z"/><path d="m131.61,508.27c5.29-1.74,10.48-2.58,16.05-2.51,9.66.12,9.66-14.88,0-15-6.79-.09-13.59.92-20.04,3.04-9.13,3-5.22,17.49,3.99,14.46h0Z"/><path d="m185.14,526.59c9.65,0,9.67-15,0-15s-9.67,15,0,15h0Z"/><path d="m233.18,466.74c-13.08-14.35-39.9,10.1-24.56,23.25,3.61,3.09,8.05,3.84,12.68,3.92,3.93.07,7.08.12,10.08,2.96,5.37,5.11,3.39,13.13-2.7,16.6,3.67,1.49,7.34,2.99,11.02,4.48-.51-1.21-1.01-2.43-1.52-3.64-1.55-3.72-4.98-6.43-9.23-5.24-3.52.99-6.81,5.45-5.24,9.23.51,1.21,1.01,2.43,1.52,3.64,1.84,4.42,6.39,7.12,11.02,4.48,12.69-7.23,17.53-24.31,8.79-36.51-4.19-5.85-10.5-9.88-17.68-10.74-1.72-.21-3.4-.21-5.13-.27-1.18.06-2.35,0-3.52-.14-1.36-.84-1.33-.06.09,2.34.19,0,2.75-2.95,2.98-3.16,1.39-1.26,1.24-.12.8-.6,6.51,7.15,17.1-3.48,10.61-10.61h0Z"/><path d="m252.6,494.78c1.8,5.69,2.79,11.39,2.69,17.37-.04,2.61-.26,5.21-.73,7.78-.24,1.3-.45,2.66-.89,3.91l-.42,1.28c-1.44,1.75.07,2.35,4.53,1.8v3.99l.2-1.05c1.83-9.43-12.62-13.47-14.46-3.99-1.24,6.4,2.2,12.24,8.77,13.7,6.42,1.43,11.95-2.71,14.53-8.34,5.55-12.13,4.16-28.09.25-40.45-2.9-9.17-17.39-5.25-14.46,3.99h0Z"/><path d="m291.05,508.6c1.51-8.19,3.02-16.37,4.53-24.56-4.18,1.1-8.36,2.21-12.54,3.31,7.1,8.71,12.84,18.61,16.88,29.09,1.45,3.76,5.05,6.41,9.23,5.24,3.61-1.01,6.71-5.41,5.24-9.23-5.04-13.07-11.89-24.86-20.74-35.71-3.45-4.23-11.56-1.98-12.54,3.31-1.51,8.19-3.02,16.37-4.53,24.56-1.74,9.44,12.71,13.48,14.46,3.99h0Z"/><path d="m291.25,508.27l6.94-1.39c3.85-.77,6.42-5.56,5.24-9.23-1.32-4.09-5.1-6.06-9.23-5.24l-6.94,1.39c-3.85.77-6.42,5.56-5.24,9.23,1.32,4.09,5.1,6.06,9.23,5.24h0Z"/><path d="m309.92,483.54c4.37,10.85,7.15,22.13,7.93,33.81.64,9.55,15.41,9.71,15,0-.21-4.98,2.42-10.33,7.6-11.73.77-.21,1.93-.38,2.46-.31-.74-.09-.12-1.52-.5-.6-.47,1.14-1.1,2.03-1.93,2.92-.38.41-.77.8-1.18,1.17-2.07.85-1.65,1.56,1.25,2.13l1.02,3.79-.02-1.14c-.14-9.64-15.14-9.67-15,0,.07,4.95,3.01,9.36,7.9,10.83s9.68-.58,13.53-3.51c7.26-5.52,12.84-15.81,7.03-24.34-5.42-7.96-16.76-7.37-24.24-2.96-8.27,4.87-13.33,14.19-12.93,23.75h15c-.88-13.02-3.59-25.69-8.47-37.8-1.51-3.74-5.01-6.42-9.23-5.24-3.56,1-6.77,5.43-5.24,9.23h0Z"/><path d="m347.93,478.51c6.69,10.71,11.06,22.24,13.26,34.67.65,3.66,4.85,5.83,8.23,5.37,3.9-.53,6.15-3.59,6.5-7.37.47-5,2.31-9.95,5.29-14.01.85-1.16,2.28-1.68-.02-1.74-1.41-.05-1.85-.07-1.32-.07l.08.13c-.36.26-.87,2.06-1.15,2.51-.81,1.29-1.9,2.4-2.91,3.52-6.47,7.14,4.11,17.78,10.61,10.61,4.41-4.87,8.8-10.52,8.39-17.49-.38-6.53-5.34-12.68-11.92-13.68-14.48-2.19-21.01,19.48-22.03,30.23l14.73-1.99c-2.41-13.58-7.47-26.55-14.78-38.25-5.11-8.17-18.09-.65-12.95,7.57h0Z"/><path d="m397.63,500.98c11.13,1,21.73-7.66,23.38-18.63.81-5.4-.62-11.98-6.56-13.79s-11.21,2.24-14.48,6.76c-5.91,8.18-5.76,20.28,1.1,27.87s19.61,9.46,28.66,3.93c8.22-5.03.7-18-7.57-12.95-3.28,2-8.09,1.84-10.42-1.61-1.78-2.63-1.14-8.99,1.61-9.74h-3.99c-1.81-3.79-2.84-4.73-3.08-2.83l-.17.71c-.7,1.02-.98,2.2-1.91,3.15-1.93,1.95-3.94,2.37-6.58,2.14-9.61-.86-9.55,14.14,0,15h0Z"/><path d="m433.34,486.38l2.18,13.08c1.39,8.36,15.06,6.37,14.73-1.99-.16-4.1-.45-19.38,7.35-14.15,5.85,3.93,9.84,9.43,17.04,11.2,9.37,2.3,13.37-12.16,3.99-14.46-4.25-1.04-7.19-4.85-10.5-7.49-4.2-3.35-8.84-5.7-14.35-5.4-15.55.84-19,17.85-18.52,30.3l14.73-1.99-2.18-13.08c-1.58-9.5-16.04-5.47-14.46,3.99h0Z"/><path d="m498.88,460.41c-8.7.68-15.27,4.47-20.47,11.42-2.59,3.46-.29,8.11,2.69,10.26,5.75,4.15,12.38,3.24,18.96,4.24,2.01.31,1.96.09,2.29,1.83.25,1.31-1.01,3.89-1.63,5.02-.34.69-.76,1.31-1.28,1.87-1.02.81-.49,1.08,1.59.8-8.7-4.03-16.33,8.9-7.57,12.95,14.5,6.71,26.33-11.97,23.46-25.01-1.37-6.22-6.48-10.5-12.54-11.85-5.04-1.12-11.39.32-15.72-2.8l2.69,10.26c1.75-2.34,4.64-3.77,7.51-4,9.56-.75,9.64-15.75,0-15h0Z"/><path d="m118.01,851.19c4.52-6.7,10.12-12.71,16.61-17.55-3.67-1.49-7.34-2.99-11.02-4.48,3.22,10.19,6.35,20.41,9.39,30.66,1.47,4.96,8.82,7.88,12.54,3.31,14.47-17.8,41.44-15.62,62.04-15.96,14.85-.25,29.7-.5,44.55-.75,8.25-.14,21.7-1.58,26.17,7.24s17.31,1.03,12.95-7.57c-6.09-12.02-20.32-14.63-32.59-14.74-16.37-.16-32.78.52-49.15.8-25.14.42-56.98-1.27-74.59,20.39,4.18,1.1,8.36,2.21,12.54,3.31-3.03-10.25-6.16-20.47-9.39-30.66-1.32-4.16-6.94-7.52-11.02-4.48-8.66,6.46-15.94,13.96-21.99,22.93-5.41,8.02,7.58,15.54,12.95,7.57h0Z"/><path d="m357.24,847.21c21.06.36,41.87,2.93,62.38,7.74,9.39,2.2,13.4-12.26,3.99-14.46-21.76-5.1-44.02-7.89-66.36-8.27-9.66-.17-9.66,14.83,0,15h0Z"/></g></svg>