<?xml version="1.0" encoding="UTF-8"?><svg id="Layer_2" xmlns="http://www.w3.org/2000/svg" viewBox="0 0 459.25 1525.53"><g id="Layer_1-2"><path d="m284.87,776.48c-66.73,22.86-148.89-30.75-152.92-101.96-1.17-20.62,3.87-40.97,4.48-61.53.5-16.81-1.41-33.69-5.05-50.09-7.31-32.86-21.78-63.76-37.41-93.39-31.84-60.38-72.14-119.96-78.09-189.83-5.9-69.25,18.12-140.96,66.7-191.04C130.79,38.94,200.75,11.87,269.82,15.08c8.59.4,17.15,1.26,25.64,2.63,4.03.65,8.03-1.04,9.23-5.24,1.02-3.57-1.25-8.58-5.24-9.23-72.75-11.75-148.48,8.88-205.81,55.05C36.3,104.45,2.85,176.28.16,249.43c-1.34,36.54,5.71,72.44,19.06,106.39s30.95,64.86,48.29,96.33c16.96,30.78,33.9,62,44.32,95.71,5.06,16.35,8.54,33.19,9.43,50.3,1.08,20.75-2.94,40.95-4.19,61.57-2.19,36.02,12.27,70.06,37.65,95.42,26.88,26.87,65.28,44,103.63,41.76,10.4-.61,20.66-2.58,30.51-5.96,9.08-3.11,5.18-17.6-3.99-14.46h0Z"/><path d="m218.44,184c-28.04,26.5-51.43,58.31-64.75,94.73-13.34,36.47-15.4,78.22-2.03,115,12.5,34.4,38.82,59.13,61.14,87.1,10.29,12.89,19.63,27.12,24.46,43.02,6.04,19.92,4.77,41.22-2.05,60.76-3.56,10.2-8.49,20.2-8.57,31.24-.07,9.16,3.4,18.84,10.55,24.8s17.58,6.98,25.58,1.35c7.99-5.62,11.52-15.33,6.88-24.26s-17.4-.99-12.95,7.57c1.82,3.5-5.25,6.17-7.71,5.27-5.71-2.08-7.49-10.09-7.31-15.4.29-8.66,4.52-16.97,7.43-24.97,3.28-9.03,5.34-18.35,6.41-27.89,1.98-17.65-.5-35.76-7.29-52.17-6.07-14.65-14.95-27.6-24.8-39.94-19.64-24.61-43.85-46.78-55.79-76.58-13.02-32.5-12.73-69.13-2.38-102.31,11.7-37.5,35.51-69.98,63.82-96.73,7.03-6.64-3.59-17.24-10.61-10.61h0Z"/><path d="m233.52,337.53c24.23,6.54,45.22,24.42,54.73,47.8,10.58,25.99,6.28,56.07-9.84,78.77-5.6,7.89,7.4,15.39,12.95,7.57,18.59-26.19,23.04-61.89,10.8-91.68-11.4-27.74-35.71-49.11-64.66-56.93-9.33-2.52-13.31,11.95-3.99,14.46h0Z"/><path d="m398.86,648.45c-21.75,58.03-67.03,105.46-123.24,131.16-3.71,1.7-4.55,7-2.69,10.26,2.17,3.81,6.6,4.36,10.26,2.69,59.87-27.37,107.06-78.55,130.14-140.12,3.39-9.05-11.1-12.96-14.46-3.99h0Z"/><path d="m290.14,18.58c29.3,1.24,52.79,22.15,67.4,46.11,16.11,26.42,27.24,58.24,28.24,89.29.31,9.63,15.31,9.67,15,0-1.12-34.62-13.42-70.62-32.08-99.73-17.55-27.36-45.01-49.25-78.56-50.67-9.65-.41-9.63,14.59,0,15h0Z"/><path d="m266.85,872.44c28.96-9.01,49.08-35.35,53.15-65.03,4.2-30.65-10.4-60.71-36.61-77.02-17.09-10.63-37.52-14.52-57.3-10.99-9.49,1.69-5.47,16.15,3.99,14.46,26.39-4.7,54.41,9.04,67.64,32.15,12.3,21.48,9.9,48.25-3.71,68.53-7.44,11.09-18.39,19.47-31.15,23.43-9.19,2.86-5.27,17.34,3.99,14.46h0Z"/><path d="m189.74,774.31c-9.03,21.56-10.41,45.76-.85,67.35,1.65,3.73,7.03,4.53,10.26,2.69,3.84-2.19,4.32-6.58,2.69-10.26-7.89-17.84-4.95-38.32,2.37-55.79,1.58-3.76-1.7-8.21-5.24-9.23-4.31-1.23-7.67,1.52-9.23,5.24h0Z"/><path d="m65.35,873.59c91.48-20.75,183.42-39.5,275.73-56.19,26.23-4.75,52.5-9.32,78.79-13.74-3.16-2.41-6.33-4.82-9.49-7.23,7.26,84.5,13.42,169.09,18.45,253.75,5.16,86.97,9.14,174.01,11.92,261.09,1.52,47.69,2.69,95.39,3.51,143.09l5.51-7.23c-3.71.84-7.42,1.67-11.14,2.51-9.41,2.12-5.43,16.59,3.99,14.46,3.71-.84,7.42-1.67,11.14-2.51,3.15-.71,5.56-4.06,5.51-7.23-1.46-85.45-4.05-170.88-7.8-256.25-3.8-86.75-8.78-173.45-14.95-260.07-3.36-47.23-7.07-94.43-11.13-141.61-.45-5.2-4.41-8.09-9.49-7.23-92.51,15.55-184.68,33.12-276.41,52.73-26.07,5.57-52.11,11.31-78.11,17.21-9.41,2.13-5.43,16.6,3.99,14.46h0Z"/><path d="m40.91,878.4c10.2,65.94,18.75,132.12,25.62,198.49,6.84,66.05,12.03,132.27,15.58,198.58,3.56,66.64,5.46,133.36,5.69,200.09.05,13.61-2.24,30.44,7.81,41.34,8.83,9.57,22.84,9.48,34.72,7.7,15.87-2.37,31.63-6.34,47.35-9.57,16.32-3.36,32.64-6.71,48.96-10.07,66.26-13.63,132.51-27.26,198.77-40.89,8.16-1.68,16.32-3.36,24.48-5.04,9.45-1.94,5.45-16.41-3.99-14.46-64.62,13.29-129.25,26.59-193.87,39.88-32.64,6.71-65.28,13.43-97.92,20.14-7.63,1.57-15.25,3.23-22.89,4.7-5.25,1.01-10.93,1.89-16.28,1.12-14.41-2.05-12.1-17.94-12.12-28.94-.25-130.18-6.86-260.34-19.79-389.87-7.25-72.63-16.5-145.06-27.66-217.19-.62-3.99-5.65-6.24-9.23-5.24-4.27,1.2-5.86,5.19-5.24,9.23h0Z"/><path d="m230.51,1177.25c-21.43,9.77-36.9,29.56-47.54,50.02-11.51,22.12-18.31,48.2-11.75,72.88,6.22,23.42,24.04,42.04,44.71,53.78,10.89,6.18,22.74,10.74,34.73,14.28,12.54,3.69,25.33,6.59,38.43,4.65,13.01-1.92,24.96-8.11,36.4-14.29,10.87-5.87,21.62-12.03,31.06-20.07,18.83-16.04,27.87-39.58,30.68-63.64,2.81-24.09-.1-50.73-13.66-71.41-12.49-19.05-32.73-32.14-54.67-37.65-28.2-7.08-58.65-2.29-85.07,9.06-22.81,9.8-43.24,26.37-51.47,50.46-3.13,9.15,11.36,13.09,14.46,3.99,6.18-18.08,21.8-30.52,38.44-38.69,19.38-9.52,41.92-14.3,63.48-12.9,20.23,1.32,40.27,9.39,54.48,24.09,14.6,15.11,19.88,36.04,19.95,56.58s-4.25,42.55-17.1,59.11c-6.36,8.2-14.76,14.45-23.55,19.83-9.28,5.68-19.01,11.13-28.96,15.54-10.69,4.74-21.67,6.94-33.27,4.77s-22.41-5.56-32.92-9.91c-18.9-7.81-36.57-20.28-46.5-38.56-11.59-21.35-7.74-46.9,2.04-68.17s23.87-41.09,45.19-50.81c3.71-1.69,4.55-7,2.69-10.26-2.17-3.81-6.6-4.36-10.26-2.69h0Z"/></g></svg>