<?xml version="1.0" encoding="UTF-8"?><svg id="Layer_2" xmlns="http://www.w3.org/2000/svg" viewBox="0 0 1065.64 2006.73"><g id="Layer_1-2"><path d="m447.05,13.99c-48.88-14.84-92.43,29.18-110.18,70.26-18.51,42.83-21.27,90.97-10.83,136.25,10.33,44.81,33.73,86.89,67.31,118.42,35.07,32.94,79.88,54.76,126.88,64.34s98.62,7.68,145.18-7.5c25.06-8.18,49.06-20.43,68.5-38.45,15.31-14.18,26.92-31.79,34.89-51.01,16.41-39.59,16.09-85.41,3.74-126.06-13.55-44.61-42.28-81.57-79.09-109.64-38.47-29.34-84.46-48.02-131.28-59.17C536.84,5.4,510.3.47,484.2.02s-52.23,5.6-71.56,23.64c-8.32,7.76-14.51,17.5-17.86,28.38-2.85,9.25,11.63,13.2,14.46,3.99,6.31-20.48,25.85-33.38,45.86-38.22,25.04-6.06,52.02-1.78,77,2.68,44.88,8.01,89.16,22.22,128.37,45.82,36.96,22.25,69.45,53.38,88,92.76,16.66,35.38,22.6,77.01,14.48,115.41-3.94,18.64-11.15,36.38-22.02,52.07-12.38,17.88-29.58,31.7-48.7,41.84-40.72,21.6-89.51,28.49-135.09,25.02-44.32-3.37-87.99-17.75-124.94-42.58-36.03-24.21-64.38-58.9-80.64-99.2-15.92-39.46-21.31-83.63-12.43-125.45,4.42-20.82,11.97-41.33,24.11-58.92s29.22-33.27,49.88-39.09c9.97-2.81,20.03-2.71,29.94.3,9.26,2.81,13.21-11.66,3.99-14.46h0Z"/><path d="m592.77,946.42c-3.75,109.22-11.92,218.28-24.48,326.84-3.38,29.19-7.07,58.35-11.08,87.46-.56,4.04.98,8.01,5.24,9.23,3.5,1,8.67-1.23,9.23-5.24,14.74-106.96,25.41-214.46,31.67-322.25,1.86-31.99,3.33-64.01,4.43-96.04.33-9.65-14.67-9.64-15,0h0Z"/><path d="m609.75,759.02c-1.23-93.08-5.66-186.12-13.41-278.89-2.19-26.16-4.63-52.29-7.33-78.4-.42-4.03-3.15-7.5-7.5-7.5-3.73,0-7.92,3.45-7.5,7.5,9.57,92.68,15.91,185.68,18.95,278.8.85,26.16,1.44,52.32,1.79,78.49.13,9.64,15.13,9.67,15,0h0Z"/><path d="m77.16,1127c23.19-68.39,57.66-132.5,99.59-191.19,42.91-60.06,93.75-114.2,149.1-162.92,33.8-29.74,69.31-57.46,105.98-83.57,7.8-5.55.31-18.57-7.57-12.95-64.89,46.21-126.5,97.39-181.13,155.49-50.34,53.55-95.02,112.85-130.33,177.4-19.91,36.39-36.78,74.46-50.1,113.75-3.11,9.16,11.38,13.09,14.46,3.99h0Z"/><path d="m591.94,570.5c-40.61,23.14-80.63,47.32-119.67,73.03-8.03,5.29-.52,18.28,7.57,12.95,39.04-25.71,79.06-49.89,119.67-73.03,8.39-4.78.84-17.74-7.57-12.95h0Z"/><path d="m796.6,745.25c74.4,94.74,123.5,206.7,156.51,321.93,9.31,32.5,17.37,65.34,24.49,98.38,2.03,9.43,16.5,5.44,14.46-3.99-12.71-58.99-28.48-117.38-48.82-174.22-20.4-56.99-45.31-112.5-75.98-164.73-18.01-30.67-38.09-60.02-60.06-87.98-2.52-3.21-7.96-2.59-10.61,0-3.18,3.11-2.49,7.44,0,10.61h0Z"/><path d="m737.55,658.4c-40.69-38.14-86.16-71.18-135.81-96.69-8.57-4.4-16.17,8.53-7.57,12.95,48.56,24.95,92.97,57.04,132.77,94.35,7.04,6.6,17.67-3.99,10.61-10.61h0Z"/><path d="m977.72,1160.91c-18.95.57-32.66,17.54-33.62,35.75-1.04,19.68,14.56,35.79,31.68,42.76,21.17,8.62,45.35,3.46,65.85-4.63,9.72-3.83,18.39-9.19,22.18-19.42,3.22-8.69,1.94-18.37-1.72-26.7-9.89-22.5-35.47-27.76-57.4-30.74-4.04-.55-8.01.97-9.23,5.24-1,3.49,1.23,8.68,5.24,9.23,14.54,1.97,32.45,3.78,43.07,15.17,8.55,9.18,10.21,24.37-2,30.87-7.54,4.02-16.44,6.48-24.74,8.37-8.57,1.95-17.68,2.86-26.41,1.35-12.71-2.19-26.22-10.21-30.4-23.08-3.89-11.98,3.61-28.77,17.49-29.18,9.63-.29,9.67-15.29,0-15h0Z"/><path d="m45.63,1106.35c-20.17,6.82-37.04,22.62-43.3,43.24-6.09,20.04.04,43.15,15.21,57.6,15.19,14.47,37.26,17.44,56.16,8.75,18.5-8.5,28.9-27.54,25.54-47.64-1.7-10.17-7-20.18-14.86-26.92-4.36-3.74-9.15-6.35-14.61-8.13-2.21-.72-4.45-1.26-6.56-2.25-.95-.44-1.8-1.06-2.73-1.51-2.27-1.09.36-.72-.8,1.89,1.67-3.72,1.05-8.02-2.69-10.26-3.18-1.91-8.61-1-10.26,2.69-8.95,20.01,19.88,20.69,29.31,30.28,10.04,10.2,12.33,27.53,3.26,39.06s-27.51,16.22-41.26,10.1c-15.36-6.83-23.93-24.22-22.98-40.54,1.13-19.36,16.84-35.89,34.59-41.9,9.09-3.08,5.19-17.57-3.99-14.46h0Z"/><path d="m587.56,518.68c-50.05,2.4-94.59,37.38-112.08,83.82-17.85,47.39-.26,101.12,37.26,133.73,19.32,16.8,42.88,27.54,68.43,30.01,30.86,2.99,62.77-5.23,90.11-19.32,24.74-12.75,50.36-32.2,62.17-58.16,5.92-13.01,8.08-27.19,4.43-41.17s-12.15-25.91-21.2-36.85c-19.48-23.56-42.33-45.32-67.49-62.74-22.84-15.82-52.36-26.7-79.65-15.8-6.33,2.53-11.92,6-17.02,10.52-7.24,6.41,3.4,16.99,10.61,10.61,18.89-16.73,46.77-11.02,66.76.24,23.84,13.42,44.85,33.27,63.36,53.21,16.16,17.41,36.54,39.31,30.35,65.15-5.91,24.65-28.09,43.15-48.77,55.8-22.71,13.89-49.09,22.8-75.77,23.97-24.07,1.05-46.86-5.27-66.66-19.02-34.96-24.27-56.38-69.2-46.83-111.53,10.55-46.81,53.66-85.14,102.01-87.46,9.61-.46,9.67-15.46,0-15h0Z"/><path d="m368.21,505.45c42.91,114.37,69.23,234.86,77.54,356.75,2.34,34.38,3.25,68.85,2.79,103.3-.13,9.71,14.47,9.58,15,0,.35-6.4.71-12.81,1.06-19.21.53-9.65-14.47-9.62-15,0-.35,6.4-.71,12.81-1.06,19.21h15c1.67-123.44-14.71-247.15-48.51-365.89-9.43-33.14-20.25-65.88-32.35-98.15-3.36-8.96-17.86-5.08-14.46,3.99h0Z"/><path d="m384.81,506.21c83.62-26.29,171.14-39.16,258.79-37.91,25.03.36,50.03,1.88,74.93,4.49,4.03.42,7.5-3.75,7.5-7.5,0-4.41-3.45-7.08-7.5-7.5-88.45-9.29-178.26-4.24-265.16,14.66-24.46,5.32-48.66,11.78-72.54,19.29-9.18,2.89-5.26,17.37,3.99,14.46h0Z"/><path d="m712.85,474.05c27.73,58.65,49.42,120.1,64.9,183.1,15.47,62.99,24.68,127.46,27.36,192.27,1.53,36.81.94,73.68-1.71,110.42-.69,9.63,14.31,9.59,15,0,4.72-65.66,2.79-131.74-5.73-197.02-8.58-65.66-23.48-130.4-44.9-193.07-12.02-35.18-26.08-69.66-41.97-103.27-4.12-8.72-17.06-1.12-12.95,7.57h0Z"/><path d="m803.62,967.51c-92.33-22.1-187.59-32.01-282.49-29.14-26.92.81-53.81,2.68-80.59,5.52-4.03.43-7.5,3.14-7.5,7.5,0,3.72,3.45,7.93,7.5,7.5,93.38-9.91,188.11-7.6,280.83,7.39,26.27,4.25,52.38,9.51,78.26,15.7,9.38,2.25,13.39-12.21,3.99-14.46h0Z"/><path d="m553.2,1369.85c10.21,110.02,9.44,220.99-2.3,330.85-5.85,54.73-14.49,109.16-25.8,163.03-5.63,26.79-11.92,53.45-18.87,79.93-3,11.42-7.03,25.72,7.12,31.3,5.45,2.15,11.64,2.64,17.37,3.7,7.52,1.38,15.04,2.77,22.55,4.15,31.7,5.84,63.41,11.68,95.11,17.51,7.84,1.44,15.69,2.89,23.53,4.33,6.61,1.22,13.75,3.19,20.41,1.25,5.97-1.74,10.19-6.84,10.51-13.06s-3.14-11.89-9.26-13.08c-9.43-1.83-13.47,12.62-3.99,14.46-1.59-.31-1.99-3.05-1.25-2.78-.61-.22-2.36.31-3.19.27-1.14-.06-2.22-.24-3.36-.43-6.55-1.09-13.08-2.41-19.61-3.61-13.07-2.41-26.15-4.81-39.22-7.22-26.15-4.81-52.3-9.63-78.45-14.44-6.54-1.2-13.08-2.4-19.61-3.61-1.59-.3-5.98-.48-7.02-1.8-.19-.23.25-3.06.5-4.18,2.79-12.24,6.37-24.34,9.35-36.54,6.04-24.74,11.5-49.62,16.39-74.62,19.57-100,30.04-201.82,31.13-303.71.62-57.31-1.75-114.63-7.05-171.69-.88-9.53-15.89-9.62-15,0h0Z"/><path d="m563.1,1371.02c53.34,48.66,98.16,106.11,132.94,169.36,34.76,63.22,59.31,131.92,72.43,202.86,7.37,39.85,10.9,80.35,10.66,120.87-.02,4.13,3.46,7.4,7.5,7.5,64.2,1.61,127.89,11.56,189.54,29.55,9.29,2.71,13.25-11.76,3.99-14.46-62.87-18.34-128.06-28.45-193.53-30.08l7.5,7.5c.42-73.67-11.69-147.37-35.13-217.2-23.35-69.58-57.66-135.54-101.73-194.25-24.96-33.26-52.84-64.21-83.56-92.24-7.12-6.5-17.76,4.08-10.61,10.61h0Z"/></g></svg>